<mxfile host="app.diagrams.net" modified="2022-11-04T18:38:56.558Z" agent="5.0 (Windows NT 10.0; Win64; x64) AppleWebKit/537.36 (KHTML, like Gecko) Chrome/101.0.0.0 Safari/537.36" etag="BAiKjJPO8wN5-IN43mrK" version="20.5.1" type="github">
  <diagram id="C5RBs43oDa-KdzZeNtuy" name="Page-1">
    <mxGraphModel dx="2249" dy="794" grid="1" gridSize="10" guides="1" tooltips="1" connect="1" arrows="1" fold="1" page="1" pageScale="1" pageWidth="827" pageHeight="1169" math="0" shadow="0">
      <root>
        <mxCell id="WIyWlLk6GJQsqaUBKTNV-0" />
        <mxCell id="WIyWlLk6GJQsqaUBKTNV-1" parent="WIyWlLk6GJQsqaUBKTNV-0" />
        <mxCell id="WIyWlLk6GJQsqaUBKTNV-2" value="" style="rounded=0;html=1;jettySize=auto;orthogonalLoop=1;fontSize=11;endArrow=block;endFill=0;endSize=8;strokeWidth=1;shadow=0;labelBackgroundColor=none;edgeStyle=orthogonalEdgeStyle;" parent="WIyWlLk6GJQsqaUBKTNV-1" source="WIyWlLk6GJQsqaUBKTNV-3" target="WIyWlLk6GJQsqaUBKTNV-6" edge="1">
          <mxGeometry relative="1" as="geometry" />
        </mxCell>
        <mxCell id="WIyWlLk6GJQsqaUBKTNV-3" value="Start" style="rounded=1;whiteSpace=wrap;html=1;fontSize=12;glass=0;strokeWidth=1;shadow=0;" parent="WIyWlLk6GJQsqaUBKTNV-1" vertex="1">
          <mxGeometry x="160" y="80" width="120" height="40" as="geometry" />
        </mxCell>
        <mxCell id="WIyWlLk6GJQsqaUBKTNV-4" value="Yes" style="rounded=0;html=1;jettySize=auto;orthogonalLoop=1;fontSize=11;endArrow=block;endFill=0;endSize=8;strokeWidth=1;shadow=0;labelBackgroundColor=none;edgeStyle=orthogonalEdgeStyle;" parent="WIyWlLk6GJQsqaUBKTNV-1" source="WIyWlLk6GJQsqaUBKTNV-6" target="WIyWlLk6GJQsqaUBKTNV-10" edge="1">
          <mxGeometry y="20" relative="1" as="geometry">
            <mxPoint as="offset" />
          </mxGeometry>
        </mxCell>
        <mxCell id="WIyWlLk6GJQsqaUBKTNV-5" value="No" style="edgeStyle=orthogonalEdgeStyle;rounded=0;html=1;jettySize=auto;orthogonalLoop=1;fontSize=11;endArrow=block;endFill=0;endSize=8;strokeWidth=1;shadow=0;labelBackgroundColor=none;" parent="WIyWlLk6GJQsqaUBKTNV-1" source="WIyWlLk6GJQsqaUBKTNV-6" target="WIyWlLk6GJQsqaUBKTNV-7" edge="1">
          <mxGeometry y="10" relative="1" as="geometry">
            <mxPoint as="offset" />
          </mxGeometry>
        </mxCell>
        <mxCell id="WIyWlLk6GJQsqaUBKTNV-6" value="Eligible for HS/MS?" style="rhombus;whiteSpace=wrap;html=1;shadow=0;fontFamily=Helvetica;fontSize=12;align=center;strokeWidth=1;spacing=6;spacingTop=-4;" parent="WIyWlLk6GJQsqaUBKTNV-1" vertex="1">
          <mxGeometry x="170" y="170" width="100" height="80" as="geometry" />
        </mxCell>
        <mxCell id="WIyWlLk6GJQsqaUBKTNV-7" value="Plug in lamp" style="rounded=1;whiteSpace=wrap;html=1;fontSize=12;glass=0;strokeWidth=1;shadow=0;" parent="WIyWlLk6GJQsqaUBKTNV-1" vertex="1">
          <mxGeometry x="320" y="190" width="120" height="40" as="geometry" />
        </mxCell>
        <mxCell id="WIyWlLk6GJQsqaUBKTNV-8" value="Yes" style="rounded=0;html=1;jettySize=auto;orthogonalLoop=1;fontSize=11;endArrow=block;endFill=0;endSize=8;strokeWidth=1;shadow=0;labelBackgroundColor=none;edgeStyle=orthogonalEdgeStyle;" parent="WIyWlLk6GJQsqaUBKTNV-1" source="WIyWlLk6GJQsqaUBKTNV-10" edge="1">
          <mxGeometry x="0.3333" y="20" relative="1" as="geometry">
            <mxPoint as="offset" />
            <mxPoint x="220" y="430" as="targetPoint" />
          </mxGeometry>
        </mxCell>
        <mxCell id="WIyWlLk6GJQsqaUBKTNV-9" value="Yes" style="edgeStyle=orthogonalEdgeStyle;rounded=0;html=1;jettySize=auto;orthogonalLoop=1;fontSize=11;endArrow=block;endFill=0;endSize=8;strokeWidth=1;shadow=0;labelBackgroundColor=none;" parent="WIyWlLk6GJQsqaUBKTNV-1" source="WIyWlLk6GJQsqaUBKTNV-10" edge="1">
          <mxGeometry y="10" relative="1" as="geometry">
            <mxPoint as="offset" />
            <mxPoint x="320" y="340" as="targetPoint" />
          </mxGeometry>
        </mxCell>
        <mxCell id="WIyWlLk6GJQsqaUBKTNV-10" value="in public school?" style="rhombus;whiteSpace=wrap;html=1;shadow=0;fontFamily=Helvetica;fontSize=12;align=center;strokeWidth=1;spacing=6;spacingTop=-4;" parent="WIyWlLk6GJQsqaUBKTNV-1" vertex="1">
          <mxGeometry x="170" y="300" width="100" height="80" as="geometry" />
        </mxCell>
        <mxCell id="rzEQRnUU2mOkOvjP8USI-0" value="" style="shape=image;verticalLabelPosition=bottom;labelBackgroundColor=default;verticalAlign=top;aspect=fixed;imageAspect=0;image=data:image/png,iVBORw0KGgoAAAANSUhEUgAAA6AAAAJ5CAYAAACwg13iAAAAAXNSR0IArs4c6QAAAARnQU1BAACxjwv8YQUAAAAJcEhZcwAADsMAAA7DAcdvqGQAAP+lSURBVHhe7J0JfBXV+fefG8VW69pKSRCEvKWKCy7UVhJAFGvrriSAkoB1rQtaEagLSRCyaFWE1roX0CoJCiTU3VZFEZJga3HBvfwbIEBCaaut2hYimXd+Z87cO/feuTcTcvf7+/IZMnPOuWeeOWeW85zleXzt7e2GRKGzs1P9zcnJUX8j4TUd+OKLL2TffffVR+7E+ryUzx3K5w7liwzlC4fyuUP53KF8kaF84VA+d9Jdvr///e9y8MEHp6x8NpTPHcrnTqT8Djzom3rPwmeY6H1XvvrqK/V3zz33VH8j4TUd2LZtm/Tp00cfuRPr81I+dyifO5QvMpQvHMrnDuVzh/JFhvKFQ/ncSXf5Vq5cKaNGjUpZ+WwonzuUz51I+e3Y2aH3LLpWdwkhhBBCCCGEkBhABZQQQgghhJAEMnDgQL1HSPZBBZQQQgghhJAEMmDAAL1HSPZBBZQQQgghhBBCSEKgAkoIIYQQQkgC2bhxo94jJPugAkoIIYQQQkgC2bBhg94jJPugAkoIIYQQQgghJCH4Ojo6Eu4HdPv27dK7d2995E6sz0v53KF87lC+yFC+cCifO5TPHcoXGcoXDuVzJ93la21tlf79+6esfDaUzx3K506k/HZ1BqubHAElhBBCCCEkgUD5JCRb8Rkmet+VeGjQ27Ztkz59+ugjd2J9XsrnDuVzh/JFhvKFQ/ncoXzuUL7IUL5wKJ87lM8dyhcZyhdOouTbsbND71lwBJQQQgghhJAEQiu4JJuhAkoIIYQQQkgCoRVcks1QASWEEEIIIYQQkhAyTgF9/vnnZezYsfLtb39bfD6ff+vVq5fanGGRttzcXNdw5+Y1v1inw5bJ8qHeUH+oR0IIIYSQTGTgwIF6j5DsI6MU0KuvvlpuvPFGOfPMM+Wdd94R2Ffill4b6g31h3q86qqrdM0SQgghhGQOAwYM0HuEZB8Zo4BC+fzss89k3bp1cumll0peXp6OIekE6g31995778m//vUvueaaa3QMIYQQQgghJN3JCAX0hRdekNWrV0tdXZ2axkkyg8WLF0tTU5OqX0IIIYSQTIFWcEk24+vo6Ei4H9Dt27dL79699ZE73TlvSUmJnH322WrkjGQWCxculGeffVaWLFmiQ9xJ5v0HUvn5AJQvGMoXGcoXDuVzh/K5Q/kiQ/kCNDY2yvDhw1NWPhvK5w7lcydSfrs6g9XNjBgBxejn6aefro9IJnHGGWeo+iWEEEIIIYSkPz4Dll+iEA8Netu2bdKnTx995E53zgtrqp2dnZx+m6GgXru4TZN6/4FUfj4A5QuG8kWG8oVD+dyhfO5QvshQvgCYggtDRKkqnw3lc4fyuRMpvx07O/SeRca5YSGEEEIIISSVoRVcks1QASWEEEIIIYQQkhCogBJCCCGEEJJAaAWXZDNUQAkhhBBCCEkgGzZs0HuEZB9UQAkhhBBCCCGEJAQqoIQQQgghhCSQgQMH6j1Csg8qoIQQQgghhCQQWsEl2Yyvo6Mj4X5At2/fLr1799ZH7nTnvHvvvTf9gGYwqFfzPtVH7iTz/gOp/HwAyhcM5YsM5QuH8rlD+dyhfJGhfOFQPnconzvpKt+uzmB1kyOgKUJzlU8pWvZWs0ZHmCCueHGbRO0pcKG5Ksf8Xbs+IoQQQgghqUBra6veIyT78Bkmet+VeGjQ27Ztkz59+ugjd7pz3l69eqX1CCgUxcJ1i6RtSYnkImBznRT3L5WhzYaUDbMU0DmDtsqyCXnSnStEvvhd/QSVa9qCeu3iNk3q/QdS+fkAlC8YyhcZyhcO5XOH8rlD+SJD+QKsXLlSRo0albLy2VA+dyifO5Hy27EzeCYjR0CTTru0vCdSNGa0pXyCfiUyvVKk/KVmaV9cLIUzRRpK+srYOmsUFGGB0dJiqduMH7VL3XifFI+34m6pxO8M83d5HAUlhBBCCCGEpARUQJNOrow+v0gpir6qZh0mUlBhiFFRILkT6qXJVEaL6rbKMqRZUyN5JUOlyTDjza2pskFKHwn8rmHIdOk0w2+fid/5zN+1pf0IKCGEEEJIJkEruCSboQKaAuROWGYqk01SPbMwMLLpUEaDGFZmpi2TAn2YP6hI71kUDcrXe4QQQgghJBWhFVySzVABTRkKpEyPahpGm9SuK4wwddaaamsrqnklDTrcYmh+brfWiRJCCCGEEEJIoqACmnSapSanxvzfSa6MHlMkDetb9HGA9sXXSqnUSptWVtvqgkdACSGEEEJIarNx40a9R0j2QQU06RTI6NkVUhg05bZZFpQ0eJhOa6UjhBBCCCHpw4YNG/QeIdkHFdAUoKCiU5rEsf7TVyhrHcaDsM5zeallBbfPhGlSvbRU8lS6FTK6uVpkXYu4TdbF72gFlxBCCCGEEJIqUAFNEZTVW/8aUCPIci0s4XZ2mmGwghu0VrRMCmCUSPkPzZWSJZbfUBvLuFFwXoQQQgghJLnQCi7JZnzt7e1RPfx3dnaqvzk50XVVr+nAF198Ifvuu68+cqc75+3bt6/6i9FDknmgXs37VB+5k8z7D6Ty8wEoXzCULzKULxzK5w7lc4fyRYbyhUP53KF87qSrfAce9E29Z+EzMEQWha+++kr93XPPPdXfSHhNB7Zt2yZ9+vTRR+5057y9evVSF0wFNDNBvXZxmyb1/gOp/HwAyhcM5YsM5QuH8rlD+dyhfJGhfOFQPnconzvpKt+OnR16z6JrdZcQQgghhBASM2gFl2QzVEAJIYQQQghJILSCS7IZKqCEEEIIIYQQQhICFVBCCCGEEEISCK3gkmyGCighhBBCCCEJZMCAAXqPkOyDCighhBBCCCGEkIRABZQQQgghhJAEQiu4JJvxdXR0JNwP6Pbt26V37976yJ3unHfvvfemH9AMBvVq3qf6yJ1k3n8glZ8PQPmCoXyRoXzhUD53KJ87lC8ylC9AY2OjDB8+PGXls6F87lA+dyLlt6szWN3MiBFQFEZbW5s+IpkE6rWrm50QQgghhBCSHvgME73vSjw06G3btkmfPn30kTvdOe8FF1wgZ511llx66aU6lGQKCxculOeee07q6+t1iDvJvP9AKj8fgPIFQ/kiQ/nCoXzuUD53KF9kKF8ATMGFIaJUlc+G8rlD+dyJlN+OncEzGTNiBPTiiy+WefPmSRe6NElD5s6dq+qXEEIIISRToBVcks1khAJ6xhlnyIgRI6SkpIRKaAYxYcIEKSwsVPVLCCGEEEIISX8yxgruAw88IAceeKAMGTJETdvkmtD0BPWG+jv66KPlgAMOkPvvv1/HEEIIIYRkBrSCS7KZjHLDAiX0zjvvlOeff16OPfZYZT2VW3ptqDfUH+rxwQcf1DVLCCGEEJI5bNiwQe8Rkn1klAIKzjzzTFm2bJn87W9/U9Nx7Q1uPLA5wyJt7e3truHOzWt+sU6HDbiFO7dYn9drOmw9KT/UG+oP9UgIIYQQQgjJLDJOASWEEEIIISSVGThwoN4jJPugAkoIIYQQQkgCoRVcks34Ojo6Eu4HdPv27dK7d2995E6sz5tJ8vXq1UtNX41GMuVj/YZD+dyhfO5QvshQvnAonzuUzx3KFxnKFw7lc4fyuRMpv12dweomR0AJIYQQQghJIK2trXqPkOzDZ8DySxTioUFv27ZN+vTpo4/cifV5M0k+WIvtotqSKh/rNxzK5w7lc4fyRYbyhUP53KF87lC+yCRSvpUrV8qoUaNSVj4byucO5XMnUn47dgbP3OQIKCGEEEIIIYSQhEAFlBBCCCGEkARCK7gkm6ECSgghhBBCSAKhFVySzVABJYQQQgghhBCSEKiAEkIIIYQQkkA2btyo9wjJPqiAEkIIIYQQkkA2bNig9wjJPqiAEkIIIYQQQghJCL6Ojo6E+wHdvn279O7dWx+5E+vzZpJ8vXr1ErPe9JE7yZSP9RsO5XOH8rlD+SJD+cKhfO5QPncoX2QSKV9ra6v0798/ZeWzoXzuUD53IuW3qzNY3eQIKCGEEEIIIQkEyich2YrPMNH7rsRDg962bZv06dNHH7kT6/Nmknw+n0+6qLakysf6DYfyuUP53KF8kaF84VA+dyifO5QvMpQvHMrnDuVzJ1J+O3YGz9zkCCghhBBCCCEJhFZwSTZDBZQQQgghhJAEQiu4JJuhAkoIIYQQQgghJCFQASWEEEIIISSBDBw4UO8Rkn1QASWEEEIIISSBDBgwQO8Rkn1QASWEEEIIIYQQkhCogBJCCCGEEJJAaAWXZDNUQAkhhBBCCEkgtIJLshlfe3u7ofdd6ezsVH9zcqLrql7TgS+++EL23XdffeROrM+bSfLl5uaKWW/6yJ1kysf6DYfyuUP53KF8kaF84VA+dyifO5QvMomU76OPPpLBgwenrHw2lM8dyudOpPwOPOibes/CZ5jofVe++uor9XfPPfdUfyPhNR3Ytm2b9OnTRx+5E+vzZpJ8Pp9Puqi2pMrH+g2H8rlD+dyhfJGhfOFQPnconzuULzKJlA9TcGGIKFXls6F87lA+dyLlt2Nnh96z6FrdJYQQQgghhMQMWsEl2QwVUEIIIYQQQgghCYEKKCGEEEIIIQmEVnBJNkMFlBBCCCGEkARCK7gkm6ECSgghhBBCCCEkIVABJYQQQgghJIEMHDhQ7xGSfVABJYQQQgghJIHQCi7JZnwdHR0J9wO6fft26d27tz5yJ9bnTWf5QheqDxo0SNavX6+PLEJfZImULxTWbziUzx3K5w7liwzlC4fyuUP53KF8kaF84VA+dyifO5Hy29UZrG5yBDTFefTRR+W4446TU0891b8ddNBBQceIRzpCCCGEEJL6tLa26j1Csg+fYaL3XYmHBr1t2zbp06ePPnIn1udNV/k+//xzOeSQQ2TNmjVy5JFHqjCnfB9++KGceOKJsmXLFtlvv/1UGEiUfG6wfsOhfO5QPncoX2QoXziUzx3K5w7li0wi5Vu5cqWMGjUqZeWzoXzuUD53IuW3Y2eH3rPgCGiKA6Vy2rRpMm/ePHHrK0A44p3KJyGEEEIIIYSkIlRA04CpU6fK0qVL1WinExw/+eSTKp4QQgghhKQHtIJLshkqoGkARjdvuOGGsFFQHEP55OgnIYQQQkj6QCu4JJuhApomhI6CcvSTEEIIIYQQkm5QAU0TnKOgYO7cuRz9JIQQQghJQ0Jd7BGSTVABTSPsUdCXX35ZlixZwtFPQgghhJA0ZMOGDXqPkOyDCmgaYY+Czpo1i6OfhBBCCCGEkLTD19HRkXA/oNu3b5fevXvrI3difd5MkQ9+Qa+88kp56KGHoiqgyZIPsH7DoXzuUD53KF9kKF84lM8dyucO5YtMIuVrbW2V/v37p6x8NpTPHcrnTqT8dnUGq5scAU0z7rvvPmlra1N/CSGEEEJI+gHlk5BsxWc4/Xq4EA8Netu2bdKnTx995E6sz5vu8j3//PNSVlYm3/3ud+Xyyy+X+fPny1/+8hepqamRM888U6cKkGj5nLB+w6F87lA+dyhfZChfOJTPHcrnDuWLDOULh/K5Q/nciZTfjp0des+CI6ApztatW+WSSy6RKVOmyC233KKMD/3oRz9Sf2fMmKHCEY90hBBCCCEk9aEVXJLNUAFNYX71q1/JYYcdJn379pWPPvpIxo8fr2Msxo0bJx9//LGKRzqkJ4QQQgghqQ2t4JJshgpoCrJy5UoZMWKE/OEPf5DVq1erabY5Oe5V5fP5VDzSIT1+99prr+lYQgghhBBCCEkdqICmEP/617/k2muvlZKSErXO87nnnpPjjjtOx0YH6ZAev5s4caL87Gc/k88++0zHEkIIIYSQVGHgwIF6j5DsgwpoirBw4UI58sgj1aLdTz75RC6++GId0z3wO0zL/drXviZHHXWUMlZECCGEEEJShwEDBug9QrIPKqBJ5s0335Qf//jHUldXJw0NDfLLX/5SvvGNb+jY3QO/nzdvnspv0aJFKn+chxBCCCGEEEKSCRXQJNHR0SE33XST/PCHP5RzzjlHrdscPny4jo0NyA/5nnvuueo8OB/OSwghhBBCkget4JJsxmcqJAn3A7p9+3bp3bu3PnIn1udNJfkWL14st956q5x66qlSXV3dpU+dWPC3v/1N+RF95ZVXpLKyUi688EIVno7l5wblc4fyuUP5IkP5wqF87lA+dyhfZChfgMbGRjVQkKry2VA+dyifO5Hy29UZrG5yBDSBfPjhh8p1yj333CMPPvig/OY3v0mI8gm+/e1vq/PhvHDXAjkgDyGEEEIIIYQkCp9hovddiYcGvW3bti4Vr1ifN9nywVUKRjvx98Ybb1RhyeTOO+9UI6L21qtXLx3jTrLLL9Xrl/IFQ/kiQ/nCoXzuUD53KF9kKF84qSofpuDCEFGqymdD+dyhfO5Eym/HzuAlgBwBjTNPP/20cpECy7SwbpsKyieAHJAH2/HHHy+/+93vdAwhhBBCCIkntIJLshkqoHECPVvwx1leXi5VVVXKym1+fr6OTQ0gD+SCfDNmzJBJkyZxUTwhhBBCCCEkblABjQNz5syRww8/XL7zne/IBx98IGPGjNExqQnkg5yQF3JDfkIIIYQQEh/Y4U+yGSqgMeTll1+WE088UVatWiV/+tOfZPbs2TomPZg1a5byFwr5cR24HkIIIYQQEls2bNig9wjJPqiAxoC///3vcuWVV8rll18u1157rTz11FMyZMgQHZteHH300Ur+6667Tl0PrgvXRwghhBBCCCE9hQpoD3nggQfksMMOk/32208++ugjtY4yE8D6VRhOwnXh+h566CEdQzKZ5iqf+Hw10qyPQXNVjhQvbtNHhBBCCOkpAwcO1HuEZB9UQHeTNWvWyGmnnSYNDQ3ywgsvqHWTX//613VsZvC1r31NXReuD1Zycb1NTU06lmQu5TJncbtE9c9ECCGEkN2GVnBJNkMFtJv897//lalTpyrDPRMmTJCXXnpJrZfMZHB9uM4LL7xQzjvvPHX9//nPf3QsyTgqa6V4+WRZ3OqmgrZLwxW54vNhpLRY6jbrYEIIIYQQQjzga29vjzrQ0dnZqf7m5ETXVb2mA1988YXsu++++sidWJ83FvItWbJEfvGLX8i5554rNTU18s1vflPHZA///Oc/paysTPk3vfnmm2X8+PE6JkC61q+TbJVv7S/7ytnyrLSPWi15K0fI1qknyJ/n5skD+W/LgjF95M25uXL2zqXSfvNIkT//UnLPEnm2fYqcoH4dIF7ypXr5Ub5gKJ87lC8ylC8cyudOussH+xoHH3xwyspnQ/ncoXzuRMrvwIOCdSafYaL3Xfnqq6/U3z333FP9jYTXdGDbtm3Sp08ffeROrM/bE/neffdd5c8TLwsonqeccoqOyV5WrFihyuRb3/qWKpNjjjlGx6Rf/bqRrfL96fZeUihNYlQUSHPVWGm5ZKnkP7KHzBm0Reon+KRufJ6su7hdbj8T8jVLjW+O5LfWS0k/9XM/8ZIv1cuP8gVD+dyhfJGhfOFQPnfSXb6VK1fKqFGjUlY+G8rnDuVzJ1J+O3Z26D2LrtXdLGfmzJkybNgwOfnkk9X6RyqfFqNHj1blgb8on4qKCh1DMoWCS4qkYdpiadHHhBBCCCGE9BQqoBGor6+XwYMHK0fBsAaLdY8knBtuuEGVz6ZNm1R5odxIhtCvRO49v0Em3mqIZZEoV/KHiPxi5ZsqWtaskHIZKvkho5+EEEIIiQ6t4JJshgpoCP/3f/8nV199tVRWVioLsL/97W+lf//+OrabbK6TYhdDLXB1UeywMgo3F5ZRF2urWaMjbNbUSE5Vsxj4m2OmMfeDwVTIEPcZ5rnH5jjyHV8n7ToKtC8udsTVSlvUidjRQfmgnFBeKDeUH8qRpD+5E6ZJlfj0kUhBRZvc/+HZ1n1TsFZqW8ukQMcRQgghxBu0gkuyGSqgDmBgCD4vhw4dKu+8846cffbZOiZ+QPkcvu5xUwE0BMtxjdZaWVsQrIQ2v1QuVacNs9SAsUVSNHNFkJ9GNRI1zgzXh0r5PHSiHN+4y8rT3JqGlEqerYSa8ZNLhkqTP26SHFLd1GO3GygvlBvKD+V4++236xiSLhRUmPdEhVOlLJCyzk6pL8nTx7lS9Jt2fV+Fr/0khBBCCCEkGlRATV588UX53ve+J2+++aZ88MEHyrhOYmiXlvdExowZbTbrNf1KZHqlSPlLtopppllXJPmH6EMpluLKclkRoqBWjynWRyabW6RBquSUYY6Rq0tqpWhpvazYbOa4ql6k7jL/yFXBJYuk6NZXZU1PNVANyg/l+Oc//1mVK/yIEkIIIYQQCyzxIiRbyWoFtL29XS677DK59tpr5cYbb5Rly5bJ4YcfrmMTQa6MPr9Ilpf2DZpWGzQKtXmF1JtK5yn9Aspk/qAih4LaLCtmVsvokfoQDBttqp8VMjzHMf3XVGzr9YhV7oR6qZ/gV3kthXVsvsRyNQLKEeWJcr3uuutUOaO8CSGEEEKynQ0bNug9QrKPrFVAf/3rXysl6dvf/rZ88skncsEFF+iYWNMgpf31Wku9Fc7UUSa5E5ZJZ2eTVM8sDKRxKKNqtBIjpAH9U/JHFgem4WL6beXokHV41rTJtjqf49zha1EVWFdaKLL6yRLJc5wjVqBcUb4oZ0zLRbkTQgghhBBCshNfR0dH1ImX8fAjs337dundu7c+cifW57XTNTc3K9cqcKRaXV2tpojGDRgh6l8vxSF+EmGEaM6gNlk2Iddh3sWmXflarB/TpkYpkXbFaYaUDTOjoCzOzZetS0bLivGTRebWS/4jVl71I1eY52qR6UYEozDmb31mRJMzXq0VbZFpu8ywOCifoaxdu1bKysqUI9tbb71VRowYEfP6TfX7j/IFQ/ncoXyRoXzhUD53KJ87lC8yiZSvtbVVGXFMVflsKJ87lM+dSPnt6gxWN7NKAS0pKVG+K2tqatSU0LjTpQLaIrflrJDRIQogLNTmrZ8uRoVIjc+Mt5VGvwJaImKmmSzFMrTEVEKRv+BclgKav3isXCu/lqUT8hwKLizlzrHSallwnr7meXZVFLgowvFj4cKFMmPGDDn44IOluNixdtWFzs5O9TcnJ/pgvdd04Msvv5RvfOMb+sidWJ+X8rkTL/lgAAsj/5GIx/sFpPL7D1C+YCifO5QvMpQvHMrnDuVzh/JFJpPlC1NADZizjEI8LmDbtm3Sp08ffeROrM+LdOPHj08xBTRX1sAKrqyWzopCO9ZUFAtlbV2b1OcvEN9LowPrQR0KaK4a0SwXGVcrbThW59IjoGpks16KNi6Tkv5WI1wptcryrWMENEnYCihu4rFjx+pQd+KhoGAEFiPg0UimAkX5wumOfLNmzVLpU1UBTdb7D1C+YCifO5QvMpQvHMrnDuVzh/JFJpPl27GzQ+9poIBGAyOk2LrCazrQ3t6u9yIT6/Pa6VauXGmcdNJJxumnn268+eabOjZOtNYaRVJk1LbqY01TpRhFdW1Gp//Yh04A/4Y40FZX5N9XNFcbvnG1hhXSZFQ70lrnqjZDNeZxsc+ZryNOg/x9lU1+OeLNn//8Z1XuI0eONFasWBGX+vVCMu8/L1C+cLymA6biaZgKqD5yJ9bn9ZoOsH7D8ZoOUL5wvKYDlC8cr+kA5QvHazpA+QJs2LBB/fWaH2D5heM1HaB84XhNB3oi3/927Azauh5OyDBM5VNMJVTOPPNMGT16tNxyyy3+0ZWY47A86wRWbrG+0x6fKajo1H4Vrc22UBtmrXZYmXRitFMdFEiZI611Lsfopnm8zLyuQL7hI5/IvzMB029Rvijnk08+WZX766+/LqYSqmMJIYQQQrILWsEl2UzWKaA2cA3y8ccfy9/+9jdlnfXJJ5/UMSSWoFxRvihnWMNFuRNCCCGEEEKyk6xVQEFubq4sWLBA7r33XrnzzjvVekQopaTnoBxRnihXuF5BOaO8CSGEEEKynYEDY+l9nZD0IqsVUJvTTz9d/vznP8sJJ5wgRx55pHLPQnYflB/KES5uUK5nnHGGjiGEEEIIIQMGDNB7hGQfVEAd3HzzzWqaKPxVHnvssfLss8/qGOIFlBfKDeWHcsS6T0IIIYQQQgixoQIawne+8x154IEHZObMmTJ9+nT5yU9+Ips2bdKxxI3NmzerckJ5odxQfihHQgghhBASzsaNG/UeIdmHD6Zy9b4r8fAjk06OVm+99VaZN2+emlY6depUFUYCoGzKysrkhhtukNmzZ6swOvoNh/K5Ew/59tprL9mxY0fK+gFl/YZD+dyhfO5QvshQvnBSVb7GxkYZPnx4yspnQ/ncoXzuRMpvV2ewuskR0C6AUoWXxIoVK6SwsFD9JSKvvvqqKo9XXnlFlY+tfBJCCCGEEEJIJHwGnERGIR4a9LZt26RPnz76yJ1YnzcW8j322GNqtO+cc85RI6Lf/OY3dUz28M9//lPKy8vlmWeekZqaGrnooot0TIB0rV8nlC8yqS5fTk6O7Nq1K2VHQFm/4VA+dyifO5QvMpQvnFSVD1NwYYgoVeWzoXzuUD53IuW3Y2eH3rPgCGg3gLIF4zpf//rX5fDDD5eHHnpIx2QHDz/8sLpuXD/crLgpn4QQQgghJDq0gkuyGSqg3WTvvfeWuXPnyvLly+WJJ56Q0047Td544w0dm5ng+nCdixcvlqeeekpd/z777KNjCSGEEEIIIcQbVEB3k2HDhslLL70kRUVFys8lLMD+73//07GZAQy54Lpwfeeff766Xqz7JIQQQgghuw+t4JJshgpoD7n66qvVtNzPP/9cBg8eLI8//riOSW8WLVqkptviunB9V155pY4hhBBCCCE9YcOGDXqPkOyDCmgMOPjgg9V60Pnz58u9994r5513nqxbt07Hphfvvfeekv/Xv/61uh5cF66PEEIIIYQQQnoKFdAY8sMf/lCtlxw5cqR8//vfVz5E04lZs2bJCSecoOTHdeB6CCGEEEJIbBk4cKDeIyT7oAIaB7BuElZi//rXv8qRRx6pDBalMpAPcq5fv17JDfkJIYQQQkh8oBVcks34Ojo6Eu4HdPv27dK7d2995E6sz5ss+aDczZ49W4455hjlNzM/P1/HJJ+Wlhbl1/Tdd99VMmLqbSRYv+5QPneSKd9ee+2lDGilqh9Q1m84lM8dyucO5YsM5QuH8rlD+dyhfJHpiXy7OoPVTY6AxplzzjlH3nzzTTnssMPUduedd+qY5AI5IM93vvMd+dOf/hRV+SSEEEIIIbGjtbVV7xGSffgME73vSjw06G3btkmfPn30kTuxPm8qyPfBBx9IeXm5eulgNPRHP/qRikskf/jDH9SoZ//+/aW6ulopoSAdyi8alM+dbJQvJydHdu3albIjoKzfcCifO5TPHcoXGcoXTqrKt3LlShk1alTKymdD+dyhfO5Eym/Hzg69Z8ER0ASCdZYNDQ0ydepUueqqq+SKK65QlZkI/va3v6nz4bw33HCDkgPyEEIIIYQQQkiioAKaBCZMmKCM/Xzzm99UvjbhuiWe3HfffWqkE+fDeUtKSnQMIYQQQghJNLSCS7IZKqBJolevXnLHHXfIyy+/LM8884ycfPLJ0tjYqGNjA/JDvk8//bQ6D86H8xJCCCGEkORBK7gkm6ECmmTgd/P3v/+9GpUsKiqSKVOmyJdffqljdw/8HtNskd/EiRNV/jgPIYQQQgghhCQTKqApwqWXXqqMFGHxLqbLPvroozqme+B3mNYLNxTvv/++XH755TqGEEIIIYSkAhs3btR7hGQfVEBTiAMOOECtB62rq5P58+fLWWedJW+//baOjQ7SIT1+t2jRIrnnnnvkwAMP1LGEEEIIISRV2LBhg94jJPugApqCwCz36tWrlZuWESNGKLcpnZ2dOjYYeNFBPNIhPX6HdZ+EEEIIIYQQkmpQAU1hrr/+evnkk09k69atMnjwYFmyZImOsVi6dKmabot4pEN6QgghhBCS2tAKLslmfO3t7Ybed8UeeYNz92h4TQe++OIL2XffffWRO7E+b7rL98orr8gvfvELpXDCn+dvfvMb5VLl5ptvllNPPVWnCpBo+ZywfsOhfO7EQ768vDzVKePz+XRIOMmUj/UbDuVzh/K5Q/kiQ/nCoXzuUD53KF9keiLfgQd9U+9Z+AzM4YwCjOKAPffcU/2NhNd0YNu2bdKnTx995E6sz5sp8t12223y5JNPygUXXCAzZszQoeEkSz7A+g2H8rkTD/nw0tu1a5dEU0CTKR/rNxzK5w7lc4fyRYbyhUP53KF87lC+yPREvh07O/SeRdfqLkkpoHS+++67UZVPQgghhBCSutAKLslmqIASQgghhBCSQGgFl2QzVEAJIYQQQgghhCQEKqBxBnOgvcyr9pqOEEIIIYSkN7SCS7IZKqCEEEIIIYQkkAEDBug9QrIPKqDxYk2N+Hw10qwPLdqlbrxPihe362NCCCGEEEIIyR6ogMaLYWXSVrdWCqsCKmj74slSOqRJ6ifk6hBCCCGEEJJt0AouyWZ8HR0dCfcDun37dundu7c+cifW502GfHvu+XepGz9ZZG69lPRrlhrfChltlEmBGddc5ZPhM0VQ+EW1W6W+JA+hZppCKcePTaqbDbnpBOs8Tnr16iVmvekjdzKh/ADlc4fyRWavvfaSHTt2pKwfUNZvOJTPHcrnDuWLDOULJ1Xla2xslOHDh6esfDaUzx3K506k/HZ1BqubHAGNK7lSMnWolD7SbCqchaZ+aSmf7YuLpVCaZJdhiGE0ydCJ10rdZoTPkfLKJjPMDG+ulvK5dcLJuoQQQgghhJBMwWcqOwkfAd22bZv06dNHH7kT6/MmSz6A0U4onEYF1E99PFPt+imqa5P6kSukuH+pNJjHGP0sG2bFhYKRnS6qLWPKj/K5Q/kik5OTI7t27UrZEVDWbziUzx3K5w7liwzlCydV5cMUXBgiSlX5bCifO5TPnUj57dgZPHOTI6AJIH9Qkd4LAIWzU42AWptaF9qvROpxjNHPAp+LESNCCCGEEJLu0AouyWaogCYBKKQNJQukWQ1iNktNTo7UrLGm5ioLucPKxGitlXC1lRBCCCGEEELSFyqgSSB3Qr00VZbLiByMchbK2kVb1HTb3An3SfHyPDV10Ne/VIbqNaOEEEIIISRzoBVcks1QAU0AUDjt9Z82BRWGfwquZQEX5ErJksC03EhrQAkhhBBCSPqyYcMGvUdI9kEFlBBCCCGEEEJIQqACSgghhBBCSAIZOHCg3iMk+6ACGmdgjtg2SRwNr+kIIYQQQkh6Qyu4JJvxdXR0JNwP6Pbt26V37976yJ1YnzeT5OvVq5eY9aaP3EmmfKzfcCifO/GQb6+99pIdO3akrB9Q1m84lM8dyucO5YsM5QuH8rlD+dyhfJHpiXy7OoPVTY6AEkIIIYQQkkBaW1v1HiHZh8+AudUoxEOD3rZtm/Tp00cfuRPr82aSfBjZ6aLakiof6zccyudOPOTLycmRXbt2pewIKOs3HMrnDuVzh/JFhvKFk6ryrVy5UkaNGpWy8tlQPnconzuR8tuxM3jmJkdACSGEEEIIIYQkBCqghBBCCCGEJBBawSXZDBVQQkhas3HjxqAtUhghhBCSKtAKLslmqIASQtKWhQsXytFHH63W0djbQQcdJCeffLL/GPFIRwghhBBCkg8VUEJI2jJu3DhlbOiFF16QDRs2qO2DDz7w7yMc8UhHCCGEpAqcnUOyGSqghJC0Zb/99pNp06bJ3LlzdUgw8+bNU/FIRwghhKQK6CQlJFuhAkoISWumTp0qS5YskQ8//FCHWOD4ySefVPGEEEIIISQ18HV0dCTcD+j27duld+/e+sidWJ83neULnaYxaNAgWb9+vT6yCF3Mnkj5QmH9hkP53IlVuqqqKtm8ebM8+OCD8ve//13Jd/XVV0vfvn2loqJCpwqQaPmcsH7DoXzuUD53KF9kKF84qSpfa2ur9O/fP2Xls6F87lA+dyLlt6szWN3kCGiK8+ijj8pxxx0np556qn+DkRXnMeKRjpBsZcqUKbJs2TL56KOP1DH+Ll26VIUTQgghqQaUT0KyFZ9hovddiYcGvW3bNunTp48+cifW501X+T7//HM55JBDZM2aNXLkkUeqMKd8mGZ44oknypYtW4LWuSVKPjdYv+FQPndimW727NlqFBSjoRj17Nevn9x66606NphkyGfD+g2H8rlD+dyhfJGhfOFQPnconzuULzI9kW/Hzg69Z8ER0BTHNrICYypufQU0skKIBdZ6YtTz5ZdfVn9vuOEGHUMIIYSkFrSCS7IZKqBpgN2wppEVQiKDThgonRgJxd/9999fxxBCCCGpBa3gkmyGCmgaYDesQ0dBcQzlk6OfhFjgefje977H0U9CCCGEkBSFCmiaEDoKytFPQsKBFdytW7fKQw89pEMIITZ33XWXjBs3Tv0lhCSXgQMH6j1Csg8qoGmCcxQUwPE+Rz8JsYCRrpNOOklWrVolN998s/qLY4QTku1Eej6am5t1CkJIogl1n0dINkEFNI2wR0FhZAWO9zn6SYhIWVmZnHHGGTJx4kR5+umn5cwzz1R/cYxwxBOSrUR7PrDP54MQQkiioQKaRtijoLNmzeLoJ8l6XnzxRTn22GNl06ZN8sEHH8hPf/pTHWOBY4QjHumQnpBswevzAWf4fD4ISTy0gkuyGSqgaQYUz6FDh3L0k2Qt//nPf+Taa6+Vq666So3ePP7445KXl6djg0E44pEO6fE7/J6QTAX393XXXef5+Xjsscf4fBCSBGgFl2Qzvvb29nDnkg46OzvV35yc6Lqq13Tgiy++kH333VcfuRPr82aKfDA8hGm4MCRxwQUX6NBwkiUfYP2GQ/nc6W66Z555RqqqquTcc89VhlT22WcfFe4FNKxvvPFGeeqpp6S8vFzlkW3lR/mCyTT5+HwEQ/ncSUf50PZZtmyZjB071t/2SSX53Ogq3UcffSSDBw9OWflsKJ87lM+dSPkdeNA39Z7G6IKOjg61dYXXdABKb1fE+rxe04FUle/mm282zJeV8Zvf/Eb9vemmm3RMOLE8L/CaDrB+w/GaDlC+cDZu3GhMnDjROOaYY4wXX3xRh+4e+D3yKS0tNTZv3qxD3Yn1dQDWbzhe0wHKFw6eD9zPuK9feOEFHbp7OJ+PLVu26FB3Yn0dgPUbjtd0IBPli9T28Xper+lAIstvw4YN6q/X/ADvv3C8pgOULxyv6UBP5Pvfjp1BW9fqLkk6n332mRQVFanesqamJrn88suV9cKPP/5YxowZo+IJyVQefvhhtUYNFgPfeecd+fGPf6xjdg/8HvnABP5RRx1Fly0krcHzYSqM6n5+++235fTTT9cxu4fz+TjyyCNV/oQkA2fbB22eTGv70AouyWaogKY4MJ9fUFAghx12mDQ0NMhBBx2kwg888EBZvny5HH744Sqe7iZIpgFft+ecc47U1tbK888/L9XV1TomNiA/GF5ZvHixOo/tY5eQdMD5fOA+xv3s8/l0bM+xnw/kj/PAYBEhieKNN96QwsJCf9sHbR7gbPuMHDlSpSOEpB9UQFOYRx99VCmXN910k/ziF79wbVwgHPFIh/SEZAJYv4bRF/gqXLlypbq/48GwYcPktddeU+fB+eign6QDoc8H7uN4gHyRP86D2QJ33nmnjiEkfsAw1ogRI+TnP/95l20fpEvXtg+t4JJshgpoigJn4XfccYeabnLxxRfrUHcQj3RIj98ZRlS7UoSkLE6H+RjhQQMkEeA8OJ/toJ8zCkgqkuzno7Gxkc8HiStow6CDBW2aSy65RIe6k+5tH1rBJdkMFdAUA2sasLYBaxzwYvXas410SI/fYc3Ep59+qmMISQ/gCsLpMB/WARMJzmc76IcckIeQVAGWaZP9fMBCLp8PEg962vb55JNP2PYhJI2gAppCYC0DphpibQPWONhrHrxir41AQ4G91CRd+MMf/hDVYX6isR30Qx743IV8hCQL3H/HHXecmq7H54NkImir9LTtg3WiaPtg3Wi6tH1g6IuQbIUKaIpgr3mw13v2hNtvv13lAyWU60JJqgK/g9dff71cc801XTrMTzSQA/Jg1AnywUH/l19+qWMJiT/O5+OWW25J+ecD8hLSXUJtXfQEu+2TLjYxaAWXZDM++GrR+6589dVX6u+ee+6p/kbCazqwfft26d27tz5yJ9bnTWX5ZsyYoRyIP/LII56nnXgBvYBYQwELhrfddpsODSYTyg9QPndSVb4lS5YopfOss85Shk264zA/0dgO+p999lmpqanxO0F3wvp1h/K501V+eD7wXTj77LPV+rZvfOMbOib1cD4f+M6MHz9exwRg/bqT7fIlqu2TqeUXCcoXGcoXTqLk29UZrG5SAXUhUfJhzcMVV1yh9vEC7u60Ey/gHHgRY3H+/Pnzw86RzuXnhPK5k2rytbW1qdGcdevWqYZ1T30WJpLf//73qnf96KOPVj3tztEo1q87lM+dSPk5nw90zPTU520iwfMBRXTIkCGq0d+3b18dw/qNRLbK16tXL+XTE9ZtE9H2ga/nAw44IOXKr7W1Vfr379/t8kuV+sW6W7hpeuWVV5SRsn//+986hmQ6+++/vxxxxBFy6qmnSmlpqXKXZBPpfglVQPFwRgUKKrau8JoOtLe3673IxPq8XtOBRMjX3NxsmJVnmA1ao7OzU4fGD5xn8ODB6rxOenodbrB+w/GaDmSqfGYjwDAbAUZZWVlC7vl4UV5erq4D12OTiPJzI9bpAOULx2s6EIvnI52xn48HH3xQh7B+IxHrdCDV5Xvuuef8bZ9EYLd9Vq9erUOik8jye+2119Rfr/mBVKnfKVOmGKYSYkyfPl1dx6effqpjSDaA+ka9o/5xH1x//fX+dl2k++p/O3YGbVwDmgTsNQ/RfFzFGttnVrqsjSCZA3pGzz33XFm0aFFcHOYnmqqqKnUduB5cF66PkN3F7flIZ+zno66ujs8HCQJtD0wrt9s+icBu+6Szv9BUYuvWrcrQE2wiwDAaXOaMGjUqLqPYJHVBfaPeUf+4D7AUA/fFli1bdIquoQKaYJz+PbvycRVrQn1mERJvbIf5I0eOlNdffz2m63ySCa4D14PrwvXdfffdOoYQ72Ty87Fy5Uo+H8SP3faBL9lkt32MFPEXmo5WcMeOHStnnnmmPPzww1Q6iQL3Ae4H2PTA/eH1+aICmiB218dVrMF5cX7IAXnoM4vEA7gUOuWUU5TDfLhsSJTD/ESD68L1oVGF66XrI+IFPB+jR4/m80EyHmfbp6mpSc3CSgbOtk+q+AtNNyu4U6ZMUTYQ6AOYuAGr6Mccc4xMmzZNh0SHCmgC6Kl/z1iD80MOyEN/oSTWVFRUqJ6wSZMmKYf5WKieyeD6cJ24XhhVwsc5VXrYSephPx8w3JCtzwfJDtC2cLZ9DjroIB2THOy2j+0vFAop8QYMDsFgFEaR03kJDYkvuD/gVhL3S1dQAY0zsfTvGWvstRFQQvFiIaQnwAomHOZv2LBBrftKtsP8RIPrxXXDQT/KAevgCLHB83Hssceq5wOjgldeeaWOyQ6czwfKAeVBMhfb1kUqtn1sf6HDhw9P6rpQrJ1LF2DtFs8wp92SaOD+wH2C+6UrqIDGEaw1wBof9LJhDUIqArkwLQZycl0o2R2w+ByO6NGgxj2USg7zE43toB/+7a6++mo66CdBzwfuC9wfThcl2YTz+UB5oFxgzIRkFvZ6z3Ro+9jrQpMBOqPSBbhagQEpjn6SrsAMH9wvXUEFNA5gzQPWGCR7vadXIB9exBgyx1oNyE+IF5588kllZAS8//77cuGFF6r9bOeCCy5Q5YGPNcoH5USyD+fzgVFP3BfEej5QHuCoo46SJ554Qu2T9CZVbF14JdQmBts+kcHsBcxcIKQrcJ94sX7ug68Wve9KrB3agkx25Iz1nldccYUyP59q0068gJ7Ap556SubPny8nnniiDmX9RiJb5UP6dHWYn2icDvox9QtlzPsvmEyTD+n5fHgDzwemQ8K4CZ8Pd9JBvj/+8Y9qVPu8885L67YPZoNhrXI0YlV+ra2t0r9/f8/5gWTV79577x3RtkFzlU8KpUmMCoeBqc11MvbQFpm2q0wKPA+atkvdBX2l/vwtUj8h2iyqZqnJmSP5G5dJSf+ej8hC/jmD2sxz5uoQL0CG4SKNu6TM+wUGsXvnDaZ9cbH0XV4sW54skbwgMUz5fIXmH0PKktAPhM53U7/URxa7OoPvH46AxhCs94TZ+UT6uIo19rpQrFvF9RASCvwVQpmCBb933nmHjesuQPmgnGByH+WG8iOZC5+P7oHyefvttyU/P5/PR5qCadUnn3xySq739Ird9jnnnHMS1vaB8klI1mJ0AUZIsXWF13Sgvb1d70Um1uf1mg7sjnzmi8sYPHiw0dTUpEPSm+bmZnU9uC4Q7/KLRKzTAcoXjpd0H3zwgWF+nI0RI0ao+8MbbUbtuCKjtlUf9gjkJUZRXZs+jkBrrVHsqzaaOvWxF8zfFI2rNc/QZFTL7snbVNm1bCg3lB/KEeUZCdTFqlld5xfL+rXh8xGOl3Soz3PPPbebzwdx0p3nI1b1BrymA3w+grn55pszuu3jRizLD3hNB5J1/0VTF/Dtk8qQ+nd+h/F9lWqjtq5I5SMh31j83ofwcVVGlfrGb7VjzO8x0utNncNqB6j0Zj6LNuEEVpidrjrS67e5OpCXKY/KzS+T9b3tNNP4zLbAVt1+UPH+a3Ocp7LaqDL/VtsNDXWNwXkrcM5x1Ua1Xz5L5tDzhgE5fPZvQq7Jfx1FRnWlmY9f3mD5UHbqd0q2IrONg7gqo1HXSbHPp/NxyBtSlkW1Ww3rCkPCu2ibIE0o/9uxM2jjCGgPSRUfV7GGayOIE6fDfPgu9Ly2Z/MKqZdiGd1PH6cFQyU/TvKi3FB+toN+lCtJf+znA1Y1u/V8kCD4fKQPdtvno48+yui2Tzz9haaTFdyeUy6l66erabxtdSKlU+uk3QzFFNLCmdWyutMQY+7/k7eXWaqlmo47vlDW1rWp35gKkxTNnCN1m3OlZEmTVPmKpHbTMint75PmqjwpHdJkpWuulvKCYjMd8nDSLDWFa8VUfLUMa2XO4nbJnVAvpgIspkKlpsJGm0yrziO1YqpeYpwmMtMWFXkfOlGGNlt5N1WWS+F46/oUS8tFpiKuTWrHL5dJjzaHnTcITF82ZV20sVPLWiTlc3V+ZlxxQbmYiqUZd5/kr2swZdZSVPUNks88q4MGGapkMGXzWfIe37grTN72xZMDZWk0ydCJC2WNmX374muDw0sWmFfdM6iA9oBQ/57J9nEVa5z+QtEgwPWSDGRNjfSacLvcPqGXmrfv8wVe3vDjdnx+jlrDqI77TVJ/8dHwVdmvH6w18EmN+UJUmPn57Jfv5hZpGJIvuepjYqbxu5w1f5Njnsf8GNjp66pwbmw1QS+25qocyUH4+PnSosMsrPNavzE3Ux4DYeaLtR4v2ZxqnY91bjtdQAYH/fJlqJIzX/IrzQ1heNH78y9WHy4bdf06rtj8iAVYEZCp0nxZ69BQGXaOtBz0o7F90vH5/nDf+Fqr3EhagOcDbqxQjzA6ZT8npGdgGYv/+aCv6pTD6d+zoaEho9s+hXH0F5pOVnB7jqkwXmJ1UuROmC7VS+tlhdnOaFnfYCphl1nrRPuVyLTZ5l+lBULRNALKGb7R1l4IzbJipkj1aboDZNhlUjuuQVrCFNBgoAB2b+1lu7SsM88ztcSUzMQ8z6Jx+G6b+2tWSIVUyWjd71hwiaksL21xtFeqdVyujD6/yPwbTc01McthWWe9f31rbr7jytGmGlcrl+n8SqZWm3+RzpTvvWD5asdhx6Yo0LGu5T1lmJV/uLw2BVLW6baG1ww3zHB9tLtQAd1NUtm/Z6xxrgulv9AMZZn5Bp/SIaqHznx5lz7SLOXl5fLjU0+St791qWzt7FQ9kFKSpxS43JHFUrSuxVKWzBfi2nHmS3WDpTq1t7wlRWNGq5dg80vlgQ9DNJaWSv0gq6dT9cZp5RaK3vBbq/y9o2uXqmAT997Rxa3DpGzTIlNxrJamznL1gvTWO2q+UJUBBfOFXoEXuJn/1FJ/j6bRPFQmPbrGUihNhTlvebHVy6h6Aif782soaZHRWp7iWSPkNq2UB/Wcahne2u8Iefr+C+XLdzbK1/c9QMrKrjdTTJQ8v2JPUhk8HzBWMnHiRHn66af91m5JbDjiCPP5MMsV5YtyRnnjWSTJJdS/JzrOMhW77YOZDWz79BS3mUWWUhcRdE7bnbO+wpARvWDKTS3JSmd+a812wtqW0K5c8xu/qVjqTaXO6ux1jFB6wlTQ/O0PNzCyqPPuXyoNsjagBI/TndrdwN/xjq0gcOXtLWv1XihdyRda/uUyPCdcXjUyK4VWuLlhpBXkTlgWFO7akd9NqIDuBrCWhqlB6BVLVR9XsQbXievFdeP62RDINCrlFGX0OFdyvjNc5L6LZOPGj+T2UzukaFqV5JovHPTKTa/UL3b0RuoeTCigQ6dOF1n+qrQb7bLidyLFI5X6KStm2j1/XVEt03VvpOqNm7lCjV6id3RM7aX+3lGc3yK+vaNhDCuTTlNBhRjNL1X4FWyrJ7BeSuwXe+Voq1ew32gpQu+japuF95xChvpVZjmaZffW2EXS/PGHsnHTP+WOt8wUMx8SjvekLrDaCjPzmD4HU/Nwuk3iB8oX5YzyPu644+TFF1/UMSTR4Nuf6v49Y43tL9Ru+8QSGKbLBPIHYVQvBIzUmX8CLUWHQoZOa7WTK/lD1I4LzVLjn2pqdfZirM+dIv/UWntzHd002xD1Or5tTL2nzl60QSxMJTJoRDGEsbqD2b852gXdxVS8/R3vyKs5cOVBo6FBdCFfKKa8W+38Q+QtqLDDmsQ3fKw1Uy0kXFw78rsHFdBukG4+rmINrhcvYvgLhZ/TZK0LtXqGqqXJoQOvqekl45/oXn8WcTB2oPTRDvN/Pv8tkVEXyWOP3SsH7u2T5SV9/T1xhaYy17AeEzUKZHSlpcg1v7RW8k0FMN+HKRzohTve6mlTI6Mee/5c03W/dzRSt0jXvaOhWOtMoPlav6vR95s1zSUSRYPcrja0ZzLw0bV7M/vAQf9jj8mMqeNlH3lK5v3sZ/K/YAvmJMn8Rz8fcDUxY8YMZfkzz6w3En9QzihvlPvVV18tPzOfD9RHyvLG7dKr1+2qEy2ANQ0/eMp+esC2j9X2ibVNDFjK3l3gwiN8uYp1f0X6DsYLpRSp9Zk6APf6XPOLPPsUx/RN3elq0r6qXhrGWbYhCk6rlgasJ4TQm+vk7lvNvy4X0L54ToQRUKstgllbCr10JmyEDusqc4LLy/17bbIMnesQwurAtsiV0WMcazHXLJCJS6GMmfvDRkvVsomyQJ/TWqITfK7dR5eljXmu6qWl+lx2HISwpvc65UNbxxUt70Is7jRxymvfQwEwcop1tjku4Xp3N6EC6hHnmgesDcAagWwE1401H4MHD1blkby1ORVy9+K2hL9oM5bWN2T0Mceo3dfvOk3k6B/6lylUNVsL4f2b9vWFD8falmZTScSLyFSqjn5LWp5YIRWzrVFAfGTEP1IYAkb+9K7Cuf5A95w6FbVw3HtH/d+6IDz2joaB0U39G/PNPOKCOmkzcJ062jOhPZMBxTq0N/OC478t/5HrxZeTI5PuM4tizdM6hiSTpUuXyjH6+cDaxAsuuEDtk8SCcsda2z322EPVx5IlS3RMinHiLdL6+FtqKYH9jbKNeHRv3VnyCbV1kc1tn9SziVGuDOkknWFlapkKDAL5O3rNe31XRaHjm1wtQ9fnqfi8kqHStMSeEVSmlt2MwHTQ/n+VMYvG6A95gVwG4zu6E3iyTHfMXsI3dblMPHSs+rYXVLRJ7To9PbR/qUhdW7jvy34lcm+t+Uwq+UwZlhfLffpZxAhuQ0mepbyb8jTOXi6TDs0x062QfFMGm9wJ90mtlEoe8pibL4/PRl6IwfTeRbJWy5pXIqZcXa+RdJ43CLW+tMIqE99kkanONZrmudQyHsTlScuYWhmjSzl3wr1B8tX6Z4yFYsn71vA9wuQtqMCyIque0LFvNM5QnQgFFY1B4dLc8zWgaFxFJdbmnEG6mTF/5JFHDLPQ1V8SAOWBWyi0XOJdv02VPsNXuchYBPceygS3oVxWjHnctuvtNBdtm+kOkG73nxuxOu/WrVuNiacfZ8gBhxqLX3xRhdlmx1FqbXXFDpPklkl0v/ltmPY268ByX2LSXG0Um8fVzeqXZh04Ta3rOtHmzFW+Pl032qS4MhduEmTSXZkir/abDYeZc+v8liz2byyT5jo/ZV484IYlKD+dh/27yIS4Y4EcjjKB2XOrFAJy4DwB0+Tm9Y736bLQMjjKCbKqvLUpdMuUu/UbW9Z5F4lxwKFHGhMnTlT15Eas7gMnfD4CoNwnTZpkmMqO8aJ+PnoK3l/2fdFT1H3vvxcjEXIvpySmjHgO/C4DnG4B3EF9oF5S9/lotd6B6vuD6wtck3ofmO8NbIHvllUGdrjzHRUf+brOb8GCBUoWtn2CidT2CaWrct6wYYP667U+gF2/1netNug7a3+Ddqr8zPsP3xN1P7k//17PizTIZ7fx+EyTzMHtfoHrFeeW89VXX0mit87OTtfwVNmc8sGqIdY8NDY2Zs2aB6/Y60JRPignt/KLx7ar0zx556Ey/vrjZOLCRn9YZ+cutb96dp6UHrVKzJemdKw+TiYNqJZVHYHfp9P9F8/twQcfVIZTDu1zgMiPbpeTXRzmY+F545CJcojqiSuU8kpHD36/0VKMsUp7lLNfvsiyoTL6RPTGYdqpc4pGrpTMxdpOq5dysjFGqsxQq9/OZJypxs3FOXxSuK5W2vQoK3pHG2frnsD+f5Vif2+ke+/ohi1mlCnH8VLht4LrqXc0DPQyOnp0TXFWl1trQNVi/CG6l9EsExhC6io/JYPdM6lGbvV6C1i7a6qSiuHobTXvW+Nx/7WfOEjk1F+8IoceeqiqJ9SXWz3GeuPzYW328wFn8e+884782OX56D7NsuLWKv2MEFfUOq2ue9dRH6iX1H0+DvZ/o1bNHi6dq26U75vhmxcVSWGn9X36739fk2MnXSuPb0D4XVJx6+tiKg/md6tSyu9+XDaH5dn1FqvnA9/0bLN14ZVIbZ/ubrCC6xYebbPr19kOKl2w2h9m7LLSNVYdKhOPXOlvB5X2r5LVOo/d2QjpLl3eQ+jZiLb997//VZtbnHPzmg4beivdwp1brM/rNR02yLd9+3bjvPPOM84//3zjn//8p9bfiRuffvqpKieUF8ot3vW7apbP8M16XfXyrZpVZDzW0mG8NlOM8367wYxvNR4bK0blajv9KqPSN8Z47K87/b9Ph/vPLdy59eS87733nnL0PnLkyNRwmI8RwS5HcbIb1BPq6+yzzzbWrVsXtX7dNq/psPX4/mt5zBhjtoMwsuNMh+d2zOObwtObW9T8Qra4Px+v3GHkyuHGwAGBUaqgEXM9Yq82fd+qEX09Qq5Gspy/cd7fGPEejxkFwSPk1m8Co+K203afcvAWMovDf/6AE3Lr2QkeQbNG0vXMA53eGgWxwkwVWIVX2VMFwrCuQ/12dpVRhd/rGQZBoxkhz681u8H9nJgxgXCrbBxyqPx1eEj+1uyGQH5WWVi/ra501MWAY9XzgfdbtPp127ymw9bd+8/5vbKO7WsJbHhW8NwU6fqbvSrwvQrNr6utp88HvuH4nrPt0zWhbZ/Qsuyq3l577TX1t6t0zs2uX3UfzVql9802jtkOsmeC/ee/G4xHi31mO8i+j8x2kFhp7HyweT0v0uC+JMQruF9C7yPn6Ce2nD333FMSveXk5LiGp8r21ltvqTn+WOeYiT6uYo29NgLlhXJD+bmVa6y2PbByOWcPtT/ismL53Y1LZJMZlqPD9jBbNDl72On3kBzxyR76t9hS/f6Lp3zz5s2To48+WrnUef3117POmES6gnpCfcEn4pAhQ2Tu3Lmu9RuLref33x5qpHj5pN/Km45wPLc+/3O5+1vcn49Tb5KD5WMZettWMVUdaar0hTgBt52Z61HtqmbpM7JIit5rkXZ8dpXxrSIRbegKhqZsq8lqXfT5p0hulwOgltP2XZ1wQu6TSdMWS5vKO9wJuQUM3BTK2totSmZTiQty2m4qt6bM1qi77ZZol1rbXC0zYeXQxZphc5U14wFtibbvvu1wuh6FNTXSt/R4Wb0L8qHslgeMg5g0DLEc0WPGgO2aaAssMf7Ip/IPw8xPrReDrDo/OHG35Shfl+93bSQbvyP7HXuSer+hHt3qNxZbd++/QYeZ90JO4BjPAZzP43rMRpnaGib2kz0HTpL6zk51LbNO2kt69bpD/uTIx+vWk+fjzTffVN/wTPXvGWtC2z4oP7dyjbTBCq5beLTNrt/gdtBYfzvIesea7R60iaK0g7q7EdJdurqHcAsTB/BxddZZZ2WFj6tYY/vMQvmhHBNCvxK5b0y9XDRLH2vDNeUv6UaPcrg7VAb2y+56hLGoUaNGKSUm5Rzmw4CBbZCARMV20L969WpVn6lhCMONaqmuLJeRUZyFWVYcrS3ZFqydz8cHr94ph5kKG1wJ4a1RcBomi1s4rTeqaeVwAg5/uIfky/FL6+VVWE40FVDLLdEKUy1slxXLbbdE1n7RCCvf6FhO25Eud8I0qVoWyDvcCbneV26J8qy8PbglUumUsYvlLm6JkM7pON6Uwfzbpdzms9zZWSaFOmGoe4aA1UnLEBdcE+UhrZLDJXe8GxzTca38Aun87pBgGdL8c/ZV1vOBekR9Js9IXmQswyML1PIA886T23v1UhY7YYlyLAzroQw31Zp3QGLJJv+escZu+6D8HumGv9CeWMENQreDSh0WW/OPEqlwtIPKY2C1lJBYQgXUQWx8XLVL3QU55gfFpa9YmYfWppnX1EjOeFjVVDGxR+cfs2admR8c91ryNktNDtasWY1HZxvTuTYiUf5CcydMF6exr6A1fwVr5fGNM/wNomxk5syZypF7aWmpPPPMM3SYn+bYDvpRn+jsQf2mIqMrmqRy1lxZ7DK6hsZ24Uy4UjLUaJ1M6i+3J0mXDn0+jhh0iBlqmZ53Zam9/hfvl3JtwblARs82Fbkt5tvRdkuEddBBa6HtfS8vI/fGYmQn5CZ459uOxbVbokgEuSUyFdcwt0QYxdW73cP6/tlum/JK6nW4xdB8u5sJZaF3o4KRXVtWKz/nNyWQXwA8H6hH1Oc555yj6jcR3yGvKEfvlZbT+l69Rspbj7eqEWFY2Cz63SGyB661f6kMjYWVSY/E3L+nauuE+wm0XDkErNc7O6GwhfVX4Z6GJWG0P5AmzG+j2RZRv7XdZJmoczvyDWkH4d3jf07G18asjWS3fZLlKx3tILs7Cgwr2ySL3hthXaeatZG4+8kTzvawua9cpKDI7H2EpxLqHgy03wPt4cSh3KW4tuutNnmNKsD0gQqoSVJ8XKGXc4nu/U0zmquGq6leeMGi8bg2xCEtyg/laPsL/fTTT3VMbCio6JTOIPPeBXJLR4csudBujFijAUo+o14ZkslG4DB/6NCh0traqkYF6DA/s0B9ol5Rv8cee6yq79SiQC55XOSin+vpow7g3Luo7jKrQdSvRKbOMhXBlxM7WrXbz4eelhrYrBE/jJS+1bIm4JZoyFppWbxCyistt0RqFMLcH+b2OgpT+IKdttsuiyI7IbfcElU12i6Teui0PeIIajhOpbh98WSZaCyyptWa+bbVFeuYUEJdE7mD/DBNV02z1fmhQe0F1Cdme2zevFmOO+64pD0fMFrWWaFHnDW2Q3dMvw36bj1pftv0tXZtKK3nJNO/J5RPZXBOX6/VlghWQptfqpCq04ZZZTeuSIpmrghWTPBMIdzcVWmgvBw60VTedZ7mpgzG2Y12M35yyVBptKeID5mkptDHCpRfd3ylb9y4Ue91H3UP2cb6FAXKbRieZetes+4nqxy00btUwqOxsZREz9pKx/Z7KpH1CmhU/566J6bO/OhZPWYORUv3gNg9EapXzeHzS1oCvXBhPn4AevYcPSjOnkD3WWvBPctBeZpy+nv8QnplVvjzdfYoBfcqYz2RH2deQb+xsaw4Tr9QO2A3XyLTKwMOhm1Qjra/0MLCwpScCpWqTJkyRbZu3aqPug8ctF933XWqAVZWVqYcuPft21fHJgL0Sof3fseSyD2BiSUgh/VMuT+78QP1ajvoR31fe+21KeWgP/fCe+QxuUgWvuHUQAN+UG0GfmeM3us+CxculM8//1wfdQ3K52c/+9luPR+5I4v12krrWL237XcurED/bo7UQ7kyDwtOGyr1y9eq6a4q7UvlgamvGnuKnJraq/ZsrHcqsm1f1SANY4vlFIycujohD6d98d1dOm1XNaK+cZixoyIdBDt3R34V5t9ALZbLCi3DiuXBkgdolgWlkeICTt1V2Wmn7tGx8kOD2iuo18ceeyxln4+e0t1730ly/Xta7wD/FGqg2hKO5TNI816R5GNCgqJYiivt+85CPVNjHJ0cmKIuVTLaoUcXXAIfivWywnxm1Rrsusv8nUAFlywKV2p7iLPtg3Wh0ZZJwApussHU6929hyKhvov+9rAenbPrzW47q7Ym2phmfP9SUxktV5brMZKN37UgD9UOjdKWQDtaj2bXVDna5GHt87GO9jnaJ3Yb19zsDgglj3mPqbaxJYezPVzzkpVMofO32trW9bnnV2PKpcPNLait7QT52b83t6D3sT+uWBas12EKRzu+8pXAezHoOnQb3nEd/mtTBOsCAb0iJBxr1nVMLMlqBTR0zYM7FVK6fpo2BiFSOtVbo7eipEWmo+cJ08tKJkdtjOPhKBTdq656AcMVPzixnnh0o2U4woCjWHsNCR7eeinWPdro7bv2CX2zLCuVltMQ3ia148yHWz8YtvEH23gDjFCgR9zKy3JTofLCNCHHQ2xRIGWdZcoxrYX1IXGbCgVuv/12/9qIhK0LTWPQe/rEE09Iv3795JRTTum2IgrH7Jhii/r78MMP6TA/YVij7okYtXAD9Yz6Bqj/1HHQnysTplRKReFt8op5T9phWKftZMP/Ldd73QMjCOiwOeSQQ2T27NldNqRQLkcddZRyZbBbzwd67R3uedQ0YrsnvN9oKRLzOpxuiZYO1Y1hvCfNxrR/FMK8X+42G7+3WlPkJpuN6+ARS8tpOzoc80qOk9VP2r3t4U7IrbWCllsiy50P3BxNDXHabiqT/a2GnL1EwZ7qaSza4nrfwiF5tZvbJLMM7vO7QJpsXm9AckwDrFo2UfqqRuErckqj+SuskdXxTmyn7srF09yByql7KGpaoX/K8wqVn++9DZaxp26Qus/H7tPde98JlHIYoove9oknVgcEnPA7p9UGjeptXmEqk0VWx4sG62cDCirWKVfL6JH6EAwbbd6nFVLoVFrUSJs1Aojpz4ERQhO1ptrqMIo1dtsH5ZyqbR/cQzfccIO6h2bNmhUzRVR11OG5x3OKGRzjxpgapfUWcBplszDfaWa7txiKUSempuM9UyH1cp9uh5rvLtd2t9leLazQsz7aJH9dtEUHNlCsLNdpdnvb2aGIjr+hNyA/yBHcHh7t2qVn5neBNSMw2PibjjZ/s3aQ3Z4WmTkveIBIAeXQb9gOeoajY86MG2teY7jRuZB2vDbiFsjavI6p+A1GmK3rsGcFNFXOlBEX4Hem9KZeAYN0qiwceoWaeeIMn7hQ3FYV9hjzBFGxzed2hdd0IBUcnd98883G4MGDo7uhgMl8nzY9r3CYyg8zPV+kzfC3KfP6RXUBx9i2c2Dk5zcvb/7ecvBvpVfm56MQbObfQYgcfpC/w/G1MmXvMMsfOF9A3s5Q8/rqOPh6twYJYOUVcL4fGZQzytt8Iavj3a23SHhNB1Lh/otEY2OjscceexjPPPOMccQRR5h16DNOPvlkZXrdSWh+iLcd5r/wwgs6NEaoe0m92xz3mr6PnG4QZjf6738rLNgFg53Of+/p56tIxen7Tt1zdlrHvQhwD+p8g91PBBNwA6HTud73+lm2n21/3tbmT6fue1NGhI9bZN3/rnKE5O8ss7D8qo1qf3mEuNiIAah/20H/li1bVJjX+w/0+PlwvEfsdE2VPuVuo6jWuo8t1xqBOofbFrhO8oJTPjhyHzhwoPH+++8bV1xxhbH//vsbZkNKuY9wyud8Pp5//nkdmqI4yi9lUPdztdEY21s1KTifD/u9GvV+DiFVvh+R7v3169frFO54avv0lKD3ePCGd0DgNnK4+sGm3tUWeEcUo12CA/XeNN+zzmcDYUhvhznuTev9Yudrf4dC0Pd0vJ+z0LaPE9Qh8HofgFjef7hXBgwYEHYP/fvf/9YpLJAXytI7ju+rWc7Vzeax/zup68NZl+a+qYBadaj2HXVm170+9IP6M8P9bVJnupDfRGw/23L65dEyA6d8wHms8w9uDwOX/BzXESRvJJx569/4r91/XaHtGfPYduvlct6gtpQZb5c1ysX5zNkE9IXdx+1+gesV55Z1I6CYk4+5+R999JEabep6zYNXoxHBRBoRDMebMQasI2mU4VavtbnZQ/RRjVKMdevZCz1fruQfrXfV9BUHXawDQg9M/Zi28PVDLtjrQrHWBGtOulobke3AuAzWpcGYhvnBUT2UGBFta2vTKQI8/PDDqlffdpgPgyoxQ/XArZVFG61eRtvthI3TDYJv1t1S19pHSp5sFPMlHOb2wXz/qHTlBcV6xB0sj9JTZ43Ad9UTGISZ7tpSQ8s7XWRmpCmADvQ1Qiac13z5BtxuAPN5UTMMlpjXvsWDHEFl5pZfuYi6ZsxMaAhyKxELUP+2g36M9j300EM6JnkUVDRKlfnesnEaYsEonDzeKrecqCN3AxiewXOAqf6m0q3cG1RVVakefefz8fbbb8sZZ5yhf0UiEzwFK5OMuTmfD9wXuD/SmdB7//jjj3cdEXW2ffAtjv96z/C1xnBpFDQHHaNf/nhrZN6eBoh14seb7aig5P1GS/E4a300pt8GrCoHg/eL/7xqxkLIrDL1jhZp3BX/NYjR2j4xs4LbQ0LvIczA6u6oejDWFH7LKNtbZht6oNkWNdueqv3pbmAtmK7TtLfYK+O7SdB011BjbY72fmh7OBJmfpGNv3m5VrSR7N+bGwzbaSJfY1d6Q+h59bcWm/m9rTfWyl83G0qvaBJtsNPcbL1CfZ8d4WjvxIOsUkDtNQ+HHXZYN3xc4WWnC9+8ISOpe3hZWh1uFgGrguHrnYLxZowBKOM76qXaZB5YU0wiG6WIROj5sM5C75oKpzWdSxPles1HRpnpt9wLeMP2mYU1J12tjSAWUEQxdQyKKJRPpyKKD9q5554rixYtkueff15qamr0r2JH0PozTBu03U5Y0UFuENzdNATcPiiGXaaUrg3mh8liTOBFqUzFV/vX71hrd1pErZLBx2DsIhf3E8EoeWdPlwnK8JQ1LbFL+pXIss6AkYbwZ8rxMvcih52fNn4Vnp99jdY0NLdSiwW4H1544QWpq6vzGxpJCGrKW2jDDlP3O6W+RK8dN7ENsWALGGLpGXZDqrGxURmgyc/Pl/nz56tyQHngY5ryuJZforGmlPsb8RlozM1+PvD+xPMBxSydse99fAtgeMmpRECxgC0Gu+2T2PWebjRLTZiNCT0td32Lua+n154Yes8hjUj9qjrX9geWM8GVTRDKRY/DqJeJ9Z2IYBAsDjjbPmiDpqpNDKciGnoPdZeC06q1UbbjJf+QvHCjbD0kN/94vdc1gfa5ed/5/Shji2KsLbQ97IqZn38acBf5RcJUYP0W4bE1B3KIfI3e9QbFOIexL7UF3ueB73BArwgN98FXtH/QIHbkbNu2TaJt27dvV5tbnHPzmg7bF1984Rru3GJ9XqS55ZZbZPjw4WpuvveGyHKHMQinDzgTvbDdbmSbdeVnufIBZ7J5hdQvjaaoWSOQ/nUNm60FxIE55Bah5sv9jWI8JH45kM4nOVVNUUZUrPVX/hEZZfxhjOWbTo14lssc3QPZ/Ehp8PUGgZ7LQKO9O2DNCeoBZvLtHpZIW69evdTmFufcvKbDlptrXqtLuHOL9Xm9pkO5YH1a6P17wgknyMqVK2XatGmqcX3SSSfJ1VdfrdIiHB+1uLGsVK/pMje/2wkLryP9QW4floqs/av1THXVU9dgNhzQU+e1tzO0I8greL7sOnD2QCoca4S8yoH8bINh0fKLN+h9x/0B0Jnhv8YoWyo/H9ic8mGk89///nfY8/Ktb31L/va3v6nr/+Mf/5iA0R6SjuC+gM9QcPbZZwfdZ5G2VHk+It37eXl5Ul1dLffff79Sri+//HLl9xkKaPfaPvEEI2Tmu94xm8Z8a8qCkgZrVDOKxWh06DWUlEq5S9skd6SpMpReG9R+al88x/yqBH9n3CwTJwK77XPVVVcF1aXX+wBbLO+/QYMGud5D3/zmN4PuoSuvvFJfQTcw25O2UbaB5mGoUbYeg07vZRNloVqc2B5ukM3ZPr81uH1uY90bEVCj7SHtYbUXmaj5eSLkOvQ1hhudCxhxC7TjoSyqyGDQAeM3XAcZx0pOjuW2yNIrrOuzsJ4T6BHh4d1/WkLvq1By+vTpI9G23r17q80tzrl5TYdt3333dQ13brE+L9Lg5YvGOxRRaPbeqJKh6/tqYxBDlcEJa8SnTNTi6P54kFdIfl2ReqBtqsaITMZDrqYURlfUCiq2BvxWRkiPKWxDSw/RjdpC8w7RPeToLXcaxVhXK1vKnS5KwlFGKDCVEnmZjePKxmW6N8RaDC4wDIC8tIENdxUDPZjhirIX4CML9VBbW6vqIdrW0dGhNrc45+Y1HTZMaXULd27IC7jFObdYy4dyycnJCbt/33zzTYFj9bvvvlt9wNBoeuCBB1RahGOKT9yY3eR3DWBt3R2dcXH7gHtMxwYRoafOa29nqKP6iDhH99fUyPBbq1x7IEPxJIfOb7V2RREtv3iDnmzcH+C5555zlGvkzevzEcv73ms6bE75YEVy//33D3te/vGPf8i3v/1tdf0/+MEPUnbEgSQX3BfozAPPPvts0H0WaUuV5yPSvY/ZMeXl5XLNNdfIxIkT1QyAO++8Uy056l7bJ75ghMU5zQ/tGhiHwZIeZagmwvRaa0TTMfvGCWafbCqWet0ewqbabSHfrGCrqInDbvs8+OCDqh5ee+019dfrfYAtlvff+vXrXe+hf/7zn0H30G4t4/AbZTtFcvFJhkLqN8oWghl3PIxHOazgdo3ZXm2q0obXgo2hhbbPBy4ao+4F/AazouwO8cky3WGsLZRcKZkbaA/PGVTrMrpp5lfrMP4WNb8IqFlhdse7eR1THTO/9DWGG51DJ4plxE2147URN3PXBatdDxdH1vNg+JdTKL1CX59Tr4ABOme40TjDYXjUO6H3VRjmTRgV8yb2tJjZazpgPkB6LzKxPq+d7tNPPzXGjBljnH/++cpQRVQci3VJz0HZo9yxbd++PS716wWv95+HxyPm8pkfJ2WEqLPTuunMRpFx+OGHG+aLIMgYkTM/8+NgHHjggcaMGTPUcUxRz0BgYT4Markvgm8yqv3pHAvxcYTf2Ava1QJ583d4qOzny4oxwe8CeVqGJGzDJ8jfNtZlnduSI4Qgea38rHPr32g5rLy1ASAs9PfLEZK3f9G/TSQ5HOWh87Pkjp4f5HA3jtBzcD/gvjAbO57vP5DM97MXnPLZhljs5+WDDz4wLr/8cmVMY+bMmcqYhvP5sNMRYj8fuD929/6LhNf8epIu0r2/3377uRqScbZ9sE8Sh7Pt4yx7UwFVf73eByCW959thMjt/em8h5CXl/ZQMglqZ5Ck43a//C/bjRBhLj79UyYelDOmiSbH51j6gdEqrMc455xz1JQqGAZ49dVX1X4o8G8Hg0VwqH/sscfKiy++qGNiAHqUm4bKxAFWD1/0UXEbrE8Id/ugetNgcKauTWa4dqeF9tSJ1LZaTv5VXISewCBMee+t9Wl5X1EzEyys3swi262Ednuhsh52mSwaB9P9yDvQA2lPMw7Ggxw6vxFq2nJX+cUe1D/ug02bNql1kLs1fSrNwDrpK664Qk2pxLoljA5VVFSI2RgPej6OO+44te4vnYnsAxcuAUKXasQejB6p6Vkw5uGXAzNirOcWW3WcjFbEAufzgfsC90c6E3rvv/XWW3Lrrbeqe9+Js+2TyusQM41obR9Mo04FQu8hrP90u4dSChiScvjfxOy/NtuFD0kPtGIaEa89KV7TgVTpQXzkkUeUlo6/JH64lXNP6s0Nr+mA1/vPw+MRc/kwAorzmi9UNeJpu9EIJVJ+Tz75pOrRnDx5svHll1/q0GzFGn304iYoE0B9o95R/7gPnHi9/0CqvJ8j4ZQPo0AY8Qkd9YmUH8oFo0bp/Hyo0fugUXkb8363XWrpkHgA0/3qmcJovh5x8LsaAyGzJlKFTHs+It37XuRbsGAB2z4JwGsb0+t9AGJ5/2EEdN9991X3kKlwho2a2yAvL+0hQmzc7pesHwF1cvHFF6u1c3fccYeam09iD9acoHxRzihvEh2Myl944YWqBxIjnn379tUx3hg/frzq1QcYQTUbWmo/awgyiW65f/HiJijdQT2jvnHdqH/cB9kA3Bj88pe/VDMEvPTYo1wwKoxySr3nI3gUEQ768RVX+O/rYlmwXodp/Cb8xy+Qv6rvPrDcqBSPL1Zxlnl9K8zO3zlKGeQGwGEYJii80jJuh3XQyvhYv3ypVuv0LIul0+3nrF+JTJu9XOpXt8d1JLY7ZOLz0d1738lFF10kq1evZtsnjthtH5RzqrZ9cA/NmzdP3UOzZs1K7RFPknloxTQiXntSvKYDqdbDHml+Ptl9UI7R1trGot6ceE0HvN5/Hh6PpMrXVX4vvviiMWTIEOVwPdJIKklvUK+oXzjWR31HIhn3H4h1OpCZz0fIaL1aK61HEdWIos9aN63T2SOg9jppNQ6p01mO/nU6x5qooDVSap1yYA10YEQVv9Prt0PDxxd7HNVEWu0UPcmgXidNmsTnIwQ7P7Z9Yo+z7dOVrQuMYoN41W9XdCedl/YQITZu9wtHQF3AnPx08NGULthrHrrnb5XEmh//+Meydu1a5YA/Exyuk2BQn6hX1C8c66O+iXdS6/mw/G76R+uVSyyN9j17qfJJEex7Fm6HiuouU5YLrZFH869jeXXAkmi4P95F45Y7/PHaQA43q+1m+JPL/L5tI4N1qH2l/vwtMiNRThYjgPo86qij1Jo2Ph/usO0TW1B+3fG3irXqhGQrVEAdwEfTTTfdpF7Ejz76qA4l3QHlhvJDOaI8MeWJJJfKykpleANub2DUyJ6iS9ITGIw499xzVX3CWBXql+w+oc8HyjcpwKiPPd3VV6j8yaEbObLv2XZpWad3IxDqpzfIH6+p8Cp/vMPKpG1MvWXO39z8/t9Cw+u6Nm7UXJWnlM9lEyK4WUoAqD/UI+rzmWee4fPhAbZ9eo7d9vn5z3/Otk8GAGNr7sbeSKzI+eqrryTRW2dnp2t4KmzweYSPlr02wvCvqSFdgfJCuaH8UI5u5ZsKm9f7D7iFx3uLx/NxwgknyCuvvCIjRoxQowLwC0fSj7vuukuN1qGXHfX5ve99z7W+e7Kl8vsZW7yfD5QvyjmxNEtNQblal4lvjmE0+a00R/Y9myv5Q/SuJyL7482dUK/D2qR4eZ5eMxoS/tQhcpty+h4JjLIWSfGI3KQpn/bzgXpEfaJe3eq7J1umPh/4ZjvXhaLeiTfstg/Kb9KkSa7l67YdeuihruHRtmTdf4R0l67uIY6AuoBG3apVq+Sjjz6SoqIi+fTTT3UMceOzzz6TMWPGqPJCuaH8SGoybdo0ee+999SHEg7YU3HKVVQ3EzCsYo/QxAmc39XNhMPku91ATxSoJ9TX66+/LuvWrZPp06frGBJL7OcD5YzyhvG0ZNC+eI5/BBSO96uWTZSFSvkzn4G5iLEoOK1aGkoWmHenyeY6uftW86+r3lAgo+GY/RF9PdqFQY2p8KqefofhISiq+f30cxgafojedaVAyox6D9N0Y4/z+UD9oR5J9znxxBPVN/zjjz9m28cDoW0flF93wPR/Eg9CDLppA2p47xX7aqTGYVwt6FvuMPY2/y/uHTBBhtn05jfo5pzF4m87WO2WmipHnCmPHyWTDjdlC7xxsZwhR3J0XLzbPUnB6IJYL2YG6bSI/+abbzYGDx5sNDXRwa0bZgNNlc9NN92kQzLHSIOHxyOp8vX0vE4H/alEVDcTCXCrgvO7u5nQ7i1sAzEw1JIAnA7zQ4nFfRBKpjy/PT1vop8Py6CQaieZ91qTutf9hnyU0SArrrrOvP8cz4cyLqR+V20sqsW9GzBCZDaMHFhh/nMoY0Uu4f7nK1L6SDQZ1bbhpATC5yOYWMlnt33wjSfhuLV9QvFab17TgWTdf3gHpAch7QSnWyj17Q7EqXen/S7VcX5jb+N9EdohDlTe1Yb6if179bjod6dqP+h9M6+tSKcNwFntB7wzA+9ppzxwd2Uqqvqdi3Ta2Fya4Ha/hBohogLqQqh88OHk8/noMyuESD6uMuUD7eWFm0z5YnHerVu3erKiGhusly3KVW2zGwMNWih7KrzIqK4MVkCbKn2GD3Hjqoxq/4dFf2TGWY12/0vf/GiotOZWpb4KFoFGurkFWQYNpHdaCFX5mR+UanUu/fIPZKfyCzTU4wPqA/WC+kE9uRGr+8BJpjy/sTgvyt2LFVWSePh8uBNL+egv1J1IbZ9QuipnWsFNBOb3O0gBdXQeo91htzX0vlISHccRv/JK+XR0uIWmx7FSGnVbxWwvWCm1PLalcadiqeSzjoMV0PTD7X4JVUA5BdcD8OHU1NTkXxtB6N8zU8jLy5PHH39c3ddXXnmlXHvttfKf//xHx8YSTEMplLUwZII1Za21Ujzrblncar6nMAXFv/7tPslf16B/Y00DHH5rlazuNOPm/j9Zu1RHaBqGTFf5lQ3D1Jg8mXj0atmF/JurZebwsVK32Uy0pkYK19WK+WEw07ZJ7bo5/vDh6xbJFuTtDB9WpvKDVdEyZZUUUwvLpMA/s9Ay/hJq4CVWoPxRD6iPsrIyVT+oJ5J4UO6PPfZYAp4P4hWU/3XXXcfnIwHQX2g4KAd7vWdP2z60ghsnnFNhYdDNbGZAI7IYqpYYhNLeslbveaFZavqXyvGNAcvgYcbi+uVLkd4FaC/4mxBBlEuhLauZZ4OslRazHZI7YZk0ynDZQ8cletlPIqAC6pFhw4YpZQtrIzDnH3P/sxFcN9aGYM0DygPlQtKfcePGybvvvqv2YcQj9g76w91M+E2rwM3EuFq5TN1K4W4mxtReail/pkI4PcSgZaibiaofFlgvee1mAi/yYKK4mXANDwXrMvpK/Zg2S0mNMSh3lD8MTaA+MsFhfiYQ/+eDeAHlDiNqu3bt4vORILCukW2fwHpPlMPurPckicLFoJvZKHBX/gLk5vsdX3WB1ZkuZv5lgV7pcGNxaNfo3aiYbR+rc9zeAu2QgopO6dTXIAXFVgd5BkEFtBvAp1M2+8zqro8rkl7ss88+cu+998pDDz0kt912m7Lmt3XrVh0bAyL0SkbuedwNNxOFtqEg7WaipV2NaEZyM7F1TIMcskdIeBSaqywfh35FOka0tbWp0QaUO8r/nnvuUfVBUge35wP1RuIPyhnljXJ/4IEH+HwkGLZ9rLYPrh/lEKu2z8CBA/UeiRcw6FZh/g2MgEZg2GipXloaMPY2D78KBcpnnnsHNEY8zd8vUI+GmQ7G4ipHWz6aI6HPaf0GshabbRHLEFFzVY7ZJnG6vnIfuU1nqIDuBvDxBF9P2eQziz6usgc4bIfjdnwcMdqDBnfPidwrGbnncTfcTGzq1Plbm60oRnYzsUw69RRcZ7g7zbLi1jHKzUQsgcN8lDNM8r/99tt0mJ/i2M/HgAED5IgjjlD1R+IHyhfljPLG83H66afrGJJostFfKK4Tyqfd9okluKdJrCmQy+qK/D6PJ8t0WTR2uWzYoqMjUiBlzdVSMRyd2Hny1/MeD5pCa9EiLUtFGuC+Sndoq85rLC3qVyL15u+t8+ZJqdRKW0VU9dPEPGdrrazVsuaViNS2limltaCiUYaWHqKt4GLE1QrPKMxGWVRivZgZZMoi/tWrV3dpBS0TwPXhOnG9XsiU+vXweCRVvlieN1I6WPo76aSTjHPOOcf44IMPdOjuYBkgsowF6QX2viJjkVrA74wLWIyzDQP4fNVGI5JpK3NOI0R2fgCGgXyV2rCRMhDgU/HKuqjf8BB+ZxkAQHhgkX8gPFGgPFGuI0eODLOy3dN6C8VrOpApz28szxspHZ4P1B/q8f3339ehJBY4nw+Us5Oe1lsoXtMBPh/WfW+3fTo7rTdoJmK3ffh+TmcjRCQZuN0vtvEhe+MIaA8IXRuRaT6zuOaBYI3vypUrxWwEqlG63XfQH9IraUx19EpaPY92z2HLmNpAz+OwMmmcXSEj4Jur/1+l2MwjEgUVbbLovRHWov3+pWIs2qKmyeROuE9q1xWq8yL/+jH3qTUWCF/0nr3IPxAeGfgCLZY6GE7qIbbDfJQrfBdiRIGkH3g+UH+oR6xNvPPOO3UM6QmhzwdtDaQWTpsYmegv1Nn2gQHKeL2fN27cqPcIyT58umcjIl999ZX6u+eee6q/kfCaDmzfvl169+6tj9yJ9XnjLd+MGTPkmWeekYULF2ZEYxJrHi655BI555xz1LqbbKzfvffeW8znQ4e4k0z5QCLLD4anYP0YH2c0ENko7D54rjCVC2uIbr/9dhk8eLCOCSYZ9WuTie/nSMQyHZ4PfAfQGOfzsXvw+XAnleXL9LaPG7Eqv8bGRhk+fHhK1y9AOrSHDDWwRUjXoMM/tP28qzP4/uEIaIzAiwofTrxMHnnkER2anjjXe0Z6AZPsA41BGGA499xz1Tqs8vJyHUO8AJcRKDeUH8oxUuOapCeoTxhn4/Oxe6C8+HykH2gjTJ06VbV90n1dKNs+hCQQa2ZuZDBCiq0rvKYDmbyGAmsjjjjiiLRdF2qvedjdNTcgU+rXw+ORVPlieV6v6QDkg+N3OICng/6uCXWYnynPRyzP6zUd4PORWaB8jj32WD4fUfCaDiRLvnS3iWG3fZ577jkdEplYld+GDRvUX6/5gWTVr5f2ECE2bvcL14DGGUy7wpqBTz75JK18ZkFOrOXAmges7eD0MRINOH6HA3hMv7Id9H/55Zc6lgCnw3yUEx3mZw9uzwfuBxIA5YFyQfnAuT+fj/QmXf2FOtd7Qv7vfe97Oib+pJMV3P333z9t6pQkF9wnuF+6ggpoHMD6FUzFShefWZAPZsbh3zOWPq5I5nPBBRfIBx98oPZhhOWJJ55Q+9mO7TDfMAxVPignkn04nw8Y1cF9QaznA+UB3n//fbnwwgvVPklv0HZAGyKd2j6QM9b+PTMRuEKC+ylCugL3Ce6XrqACGkfSwV9oPH1ckezA6aAf91A2O+gPdZiPcqHD/OzG+XzgvsD9sXXrVh2bXTifD5QHyuUb3/iGjiWZQjr4C7XbPpAzWW2fdLKCe+qpp8qzzz6rOlUJicZzzz2n7peuoAIaZy666CJZvXq13HHHHWqaUSoBeSAXzNzD6hshPQEO+uEoPlsd9NNhPokGng/0DOP+wOgfFLBswvl8oBxQHiRzufjii9WU1lRs+8CaO+SCFVrImSw2bNig91Kf0tJS9QxzGi6JBu4P3Ce4X7qCCmgCSLW1ETi/veaBPtZIrKmurlY9YFjTBYuWH374oY7JTHB9uE5c74svvqiuHybICXHDfj5qa2uz9vkg2QHaFs62T7L9hdptH7hMiqd/z0wES7QwUIERY46Ckkjg/sDAG+6XrqACmiBSZW1E6JqHgw46SMcQEjvQ6fLqq68qR/IY7YFfxEzEdpgPFwS4XnbmEC/g+VixYgWfD5LxONs+mPIKhTQZONs+sNGRCm2fgQMH6r304Je//KW89957UlNTo0MICYDOxXfffVfuvvtuHRIdKqAJxrk2ItH+Qm0fV8lc80CyC6wthhGWVatWyUknnZTyRim8guvA9eC6cH3Tpk3TMYR4J5Ofj1GjRvH5IH7stk8yfKWHtn1SZYZKOlnBtVm2bJk8//zz8tOf/pTTcYkC9wHuB8zswf3h9fnyaf8+Efnqq6/U3z333FP9jYTXdGD79u3Su3dvfeROrM+bavK98cYbcsUVV6ipSbfffnvcX4hYg/HUU0/J/PnzVe+7TbqWXyjxkG/vvfcW8/nQIe4kUz6QyuUHnPnh3sN9CNcLVVVVaTtNtaKiQn7961+rhszll1+uwli/7lA+d9zycz4f6TxN1X4+8F3DNw6wft3JRvkwDfvGG29UbZ9EdITjmfrd736n1qVhBLYrWL/huKVDpxIUeygeZ599thx77LG0IpxFQOnEWn4YpsKz9ZOf/ESNfKJdF+m+2tUZrG5yBDRJQAnE+kusjYD/zXj1JDnXPKA32ql8EpJIoKytW7dOGV447rjjVEMknfj973+v5G5paVHXYSufhMQC5/OBxhzut3QC8kJuPB+YhmUrn4Q4gZ9NtH3QJomnTQxn22flypXygx/8QMekDq2trXov/YCygenUe+21lxpZxmgulA9u2bGhvlHvqH/cB3PnzlXh3cLoAoyQYusKr+lAe3u73otMrM/rNR1ItHw333yzMXjwYMOsRB0SG5Af8jVvEh0STiyvwyZT6tfD45FU+WJ5Xq/pQCzke+KJJ4yBAwcakydPNr788ksdmppAPshpvnCNxYsX69BgEl1+NrFOByhfOF7TgVg9H7jfcN998cUXOjQ1cT4fkNuNRJefTazTAcoXjtd0wCkf2iaJaPvsrnyR8JpfV+lee+019ddrfoD3Xzhe04FYyvfPf/7TuOiii4x//etfOsSdZMkX63SgJ/L9b8fOoI0joCkApirF2l9oKvi4IiQScNAPB/TmO0kZKVmyZImOSS0gF+QDdJhPEgWeD6ydxPNx1FFHyZNPPqljUgvn8wF5ITchXrHXhca67UNbFyQR/OpXv1Lr3efNm6dDSHegApoixNJfqO3jCtNckunjipBowEE/XuD333+/sqoHB/VwVJ8K2A7zsRYP8tFhPkk0zucDnZSp/nxAXkK6Syz9hdptH+SXDm2fdLOCSwJ8/vnnyiowLH1DAf33v/+tY4hXqICmEFifiRfn7voLda55oH9Pki786Ec/UovZDz30UDWaggXtyQTnhxyQZ+3atUo+QpIF7r+3335brbnh80EykVB/obvT9oEtDdu/Z7q0ffBMk/QEax6Li4vljDPOkPHjx3MUdDegAppi7K6/UKRD+lTycUVId8Ao6AsvvCCLFi1SFhLRmEgkOB/Oi/NDDvo6I6kERhuT/Xycd955fD5IXOhp2weO79n2IYkAo59QQKdMmaIM79xwww1KAUU48Q4V0BSlO2sjQtc8dNsSVZbRp08fvRcZL+bQSexBzzVG7+Gg/4gjjkiYg36cB+fDeTl7gKQqyX4+4MORzweJJ2jD2DYxuvIXmu5tn40bN+o9kk5A+cR698GDB6tjvBsxCopw4h0qoClM6NoIGKQIBeHptOaBEC/YDvrR2IVDe9zf8QC95yeffLI6D86H8xKS6oQ+H15Hi7oL8kX+OA+McMF/IyHxxraJgY6Prto+SJeubR+4XCLphT36iVFPZ4cHjhHOUVDvUAFNcdDTjMb3J598otY4fPrppyrcXu+JNROIZ490ZJqrciTHVy1Njm9Yc5VPihe36yOSiqBX8ZlnnpHS0lI588wzpby8XMfEBuR3+umny4QJE9R5cD5C0gXn84H7GPezW0N9d7GfD+SP89jWbglJBLCJgfWcdtvHXhfqbPvQtzlJNPboZ2h7gaOg3YcKaKJYUyM+X40Ej+O0S90FOaYiFN2yIdZGYG0DhvvhWmX+/Plq2gnWSmDNBOJJV1TI3V2UM0lNfvrTnyojRZiuFAsH/bbDfPQ+Y1Tnyiuv1DGEpB94Pt599111Px933HHy4osv6pjdw/l8YJQV+ROSDJxtH7R5Mq3tQyu46QVGN++++2412unG1KlTVTxHQb3hg1NRve9KZ2en+puTE11X9ZoOfPHFF7LvvvvqI3difd5UkO9vyy+TY1qulvapJ6iwvy2/XI5tuUq2mseGx/zgDw6LnfEARPO5lonlF41I6bDeEyOgw+VxeXxdg/jm1ktJP2sEdM6gNqmfkGumape68XlSuhS/KJJFm5ZJaX+fml5hPh8IjEiml58byZQPIzFVVVXKGMqdd97ZLdcP//nPf9TUxaefflqN7sCQS7aVH+ULJtPk4/MRDOVzJx3lQ9tn4cKFcumll/rbPqkknxuUz510lW/x4sXq3eg0dPXll18GuWjDLEUYjMPMKhuWn8WBB31T72mMLujo6FBbV3hNB6D0dkWsz+s1HYiffG1G7bgio7YV+01Gta/aaOpUEcaqWYKOALUV1bVZgUijw7BV6cQeqm035YuM13Qg1eq3qdJn+Cobjc7makMqm3RYoJyxb4cbZhqfWS+NZlEno5xB9j4fkXGmM1/4xuTJk40BAwYYZqNEhXUF0iE9foff7855o+E1HWD9huM1HaB84TjT4f6+9tpr+XyYxDodoHzheE0HeiJf6DfZ63m9pgOs33C8pgOZLt+GDRv82/r16832os9oaWkJCg8lkfI5iXU60BP5/rdjZ9DWtbpLYkiulEwdKqWPNEtzVaFI0wwp8Im0Lx4rI2WVmBVmvl2bZGjJZKnbjPA5Ul7ZhDeumIqRzJy3WNrwCia7x7AyaZI5qmwDtEvLOpHq0wqsw2GjpUrWyobNLOhUBaM6cHz/4IMPKlcQ0Rz02w7zkQ7p6TCfZDq4v3/96197fj5g8IXPByGJh1Zw0w/4bnVukcJI11ABTTRKCSo0/zXJjGGWBa2W9Q0is0ZKr169xOcrlHJpkPpV7ZI7sliKZhaaYT6pNmZI55ISyaOHlR5RcEmx1E+tkxZ9TNIXGEjB2lA4xHdz0O90mI90SE9ItuD1+ejfvz+fD0KSwAZawSVZDBXQJJA/qEjvBRjzeKseATXUptYm9iuRenv0c3iOqYgGW3Ilu4FZpveNqZfSmfpYciV/iEj5S9o81JoVUiFDZWA/avrpAkZvnA76n3/+efWXDvMJif58YJ/PByGEkERDBTQFgEK6fNIjYnlya5Yan09qzIP2xcWWq5BhZdK5qVaKzXCqRT0nd8J0qdb7oKCiTWrXWSPNvoK18vjGGVLIgk4rnA76r7nmGvUXx3RPREjk5wMWRQkhyYFWcEk2QwU0BcidsExWzZopI/UU3LV1bVJmtptzJ9wnxcvzLMWof6kc12itGSXdo6CiUzorTAVTH5shUmaPMitypWSJNfJsGPXKAi5JT2DFc9OmTTJ9+nQdQgixwfOBdWf4SwhJLlwvSLIZKqBJIHdCvRgVBUGjmcPKOvxTcN0VI0PKqX0SQgghhBBC0hgqoIQQQgghhCQQWsEl2YwPvlr0vitfffWV+rvnnnuqv5Hwmg5s375devfurY/cifV5M0k+WMvFaGk0kilfptTv3nvvnfByBnw+wumOfHvttZfs2LFDTV2PRDLlY/2GQ/nciYd8/H6EQ/ncSTX5Qu/dVJMvlK7SNTY2yvDhw1NWPhvK5w7SwW1VrNobIJPLb1dnsLrJEVBCCCGEEEIIIQnBZ2BxYRTioUFv27ZN+vTpo4/cifV5M0k+9LR0UW1JlS9T6he9rYkuZ8DnI5zuyJeTkyO7du1K2RFQ1m84lM+deMjH70c4lM+dHqdbUyO+ApEmo0xse8vbtq2TV352rNSfv9Vh7yKYSPmF3ruxvg6QyPLDFFwYIkpV+WwonztIhxlXsWpvgEwuvx07g2fecASUEEIIIYTElmFl0la3VgqrtJ9tk78tnyETj14dUfnMJmgFl2QzVEAJIYQQQkjMgTu52nVzpG4zjppl8TVHS2O5NR7aXOVTI0fYlM9zK1Ru79VLzUBCeHVz9NF6Qkh6QgWUEEIIIYTEgVwpmTpUSh9plqaq4WI8e70MMxXL9sXFUihNakqtYTTJ0JLJSkltXzxHZs5aZbmla66WmfMWS1uG6qC0gkuyGSqghBBCCCEkPgwrM1XNQhkhq+X67/mUD/SW9Q0iMwv1CGihlEuD1K9ql9yRxTJm1kg1AlptzJDOJSWSF3l5XVqzYcMGvUdIdvGf//yHCighhBBCCIkf+YOKzP+DNcmiujY9Amptal1ovxJZ0tEhHasrZebwHFM5rZYmzsIlJKP4/PN/UwElhBBCCCGJAwppQ8kCscwTNUuNzyc1azAFt1jGP9EucuIt0tL0KznD9y/ZtnGjf7oq/jq3dGbgwIF6j5DsorPToAJKCCGEEEISR+6EemmqLJdCPQV3bV2blA2zjBaNeaq/moI7sOB6ae6zVG44eZSMGjVK/Q5/7e24446TRx99VIWnI7SCS7IZX0dHR9TJDfHwI7N9+3bp3bu3PnIn1ufNJPnwYsYC/WgkU75Mqd+999474eUM+HyE0x354Jdrx44d6jnpKf/73//U32wqP8oXTibJx+9HOJTPnWTK9/nnn8ugQYNk9erVcsQRR6hw57370UcfSWFhofzf//2fHHTQQSosEtlYfoDyhRNr+fbZZx/V3oiVH9BMLr9dnQF1s62tjSOghBBCCCEkddhvv/1kypQp8stf/lKtDwX2KChA+PXXX6/SpSutra16j5Dsw2c+2AkfAd22bZv06dNHH7kT6/Nmknzoaemi2pIqX6bUL3pbE13OgM9HON2RLycnR3Y1Vsoew33S2Fkmlsc50C514/OkfkybZyfo2Vh+lC+cTJKP349wKJ87yZbvv//9r/Tv31+amprkyCOPVGHgww8/lGHDhikrslBA07X8Vq5cqZTqVJXPhvK5g3SYcbVr166YjYBmcvnt2BmYecMRUEJIZjKsTLbWviWFVZaJC9C+eLKUDmnyrHwSQghJHlAub7jhBpk3b54OscDx1KlT03r0k5BshwooISTtCbWKiL+5E+6V2nVzlHNzWFlcUDJUmiqs8dDmKhi+sLZiuAKwQpUlRjscFhkJIYQkDyiaS5cuVaOeAH+ffPJJFZ7u0AouyWaogBJC0hoYqygqKlIGKTCdCdMLjz/+ePNvHymZOlRKH2k2Fc5CU7+0puPCzH+hNKl0htEkQydeK4tbDTN8jpRX6vDmaimfWyft1ikIIYQkAXsUdO7cueoYfzNl9JNWcEk2QwWUEJLWoCFy7rnnyplnniktLS0yfPhw+eyzz6zIYWWmqlmoFE6Y+Act6xtEZhbqkc5CKTcapH5Vu+SOLJYiHV4jZWIsKRFO1iWEkOQChXPJkiXy3HPPqb+ZMPpJSLZDBZQQkvbYDRRMz6qvr1ejmFAkARyeh1KEabdqBNTa6kvyRPqVSL09+lkA5bRGOAuXEEKSCzoZ8Y6fNm1axox+AnvJCCHZCBVQQkjaYzdQYJwCCmU0oJA2lCwQyzxRs9Tk5EhNM6bgFkvx4nY1amq01kq42koIISQZ4P1+4oknqr+ZAqz4EpKtUAElhGQEaJjAWMVf/vIXHeJO7oR6aaosl0I9BXftoi0yo8Bnht8nxcvz1Mipr3+pDG0uEz1rlxBCSBJ54IEHZNOmTeovIST98XV0dEQdLoiHH5nt27dL79699ZE7sT5vJskH/5Rmvekjd5IpX6bU7957753wcgZ8PsLxmq6qqkrWr18vjz76qHpOesr//vc/9Tdbyg9QvnAyST5+P8KhfO6kgnyNjY0yY8YMOfjgg+XKK6+Uhx56SOVx++23qxFRO100UrX8WltblZ/TVJXPhvK5g3T77LOP7Nixw7/kx41kygdSpfx2dQbUTfoBJYRkFFOmTJFnn31WPvroIx1CCCEk3ejs7JSbbrpJxo4dK5deeqk89dRTytAc/l5++eUq/JZbblHp0hUon4RkKz6jiwVT8dCgt23bJn369NFH7sT6vJkkH3paulrnlkz5MqV+MVKQ6HIGfD7C6Y58N954o3z66afy8MMPR+2V9EI2lh/lCyeT5OP3IxzK506y5Fu2bJmUlZXJyJEj5Re/+IUa/QzlH//4h1JQV61apdKMGTNGx4STbeVH+SITa/n22msv2bVrV8xGQDO5/HbsDMy84QgoISTjwDQtOCrff//9lY9QN/CCtF+ShBBCkg8at5dcconMnDlT7rrrLpk/f76r8gm+9a1vqXikg7KK37W3p5fnZlrBJdkMFVBCSEax7777yqRJk+Siiy7KGHP9hBCSyfzmN7+RI444Qo2ufPDBB8q3sxeQDulzc3PlyCOPVDNf0gVawSXZDBVQQkhG8ec//1nee+89ta1ZQ0+ehBCSqrz//vty9tlny+OPPy7PPfecmk67O8AoEX5fW1ur8kO+hJDUhQooISQjgMXa6dOny8SJE+XCCy+UCRMmyFlnnaXCbGu2hBBCUoPbbrtNjj32WDnllFPk9ddfl4KCAh2ze+D3K1euVPkhX+SfygwcOFDvEZJ9UAElhKQ96D0//PDD5YsvvpBPPvlErr76arnqqqvUPsIQhzSEEEKSy2uvvSbDhg1Ts1VgsXzatGk6JjYgvw8//FDlj/NAKU1FBgwYoPcIyT6ogBJC0pZ169bJeeedJ/fdd58sXLhQHnzwwSCjFTBUgTDEIQ3S4jeEEEISy86dO2XWrFlqdgo6Cevr62XQoEE6NrZ897vfVfnjPJgVg5kwOD8hJDWgAkoISUtgKfH73/++nHTSSWqt56mnnqpjwkEc0iAtfoNGECGEkMQA1yowMgSXFTAa9JOf/ETHxBecB6Oh//3vf9X5IUeqQCu4JJuhAkoISSsaGhqUtcOWlhY1xbY707eQFr/Bh/+YY45RPeSEEELiw9atW5VV8tmzZ8s999yjrNQedNBBOjYxHHjggfLQQw/Jr3/9ayUH5NmyZYuOTR60gkuyGV97e3tUj9SdnZ3qb05OdF3VazqANVlwlRCNWJ83k+SDufGu/F0lU75Mqd++ffsmvJwBn49wkA5K45133qkUSBiX8GqmPxJPP/208h+HqVo333yz63qcTCo/QPmCyUb5+P0Ih/K509N0jz76qNTU1MjPfvYzqa6u1qHJp6KiQn71q1/JjBkzlP9QJ4ksP6x/HTx4sOf8AO+/cJIp3yGHHKI6WXw+nw4NJ5nygVQpvwMP+qbeE2lraxOfYaKPXbGdte+5557qbyS8pgNwNgxfT9GI9XkzST7c6F1UW1Lly5T67dWrV8LLGfD5CAcm9jHlFg0H/I0llZWVUlVVpRpIN910kw61yJTyo3zuZKN8/H6EQ/nc2d1077zzjurU27Fjh9xxxx1q2UOq8cc//lHJ+LWvfU25foHVXJDI8kOnKjo+veYHeP+Fk0z59tprLzWtPJoCmkz5QKqU346dHXrPUkC7VncJISRJ/P73v5cTTjhB/vSnP6lGTayVT4A83333XXnjjTfUuXBOQggh3QedeSeeeKL8+Mc/lhUrVqSk8gl+8IMfKPkgJ+SF3ImGVnBJNkMFNA1AL5lzixRGSKaAXrbLL79crrnmGpk6dap/3We8gHEKnANrRHFOnBsyEEII6Rooc+jAg5VxGP2ZMmWKjkltICfkhdyQf9WqVTqGEBJPqICmOHAfcfTRR8uoUaP82ze/+c2gY8QjHSGZwL333iuHHXaYcqfy8ccfS0lJiY6JP3APgHPCfQtkuP/++3UMIYSQUGBd9oYbbpBLL71U/V2yZInk5+fr2PQA8kJuyH/99derNau4rnjDwQOSzVABTXHGjRun5pY///zzymIaNpgwt/dfeOEFFY90hKQzq1evVh0qzz77rOpNx7ocL2sSYg3OiXVLr7zyinruRo8erWQjhBAS4IknnlAzU2B0BO2S0tJSHZOeQH4YBsKaPsyKwfXFE1rBJdkMFdAUZ7/99lPTAufNm+dqOALhiEc6QtIRWFVDr/PYsWPloosukhdffFG+973v6djkgelYkAV+5CAbZPz88891LCGEZCebNm1SM1PQUffAAw/IfffdJ/vvv7+OTW/QlsL1wG0Lrg/XyZFKQmIPFdA0AGvgli5dqtYpOMHxk08+qeIJSUd++9vf+nvQMfX1sssu0zGpA2SCbOgAOvzwwzndnRCSYrRL3Xif1KzRh3EESyQwOoglCm+99ZacfvrpOkazuU6KfTXSrA97jJnf2JzY5ddc5ZPixW0S3Q60KONEuD5cJ75R8CHqiTU1kmPK29TVCUwGDhyo9wjJPqiApgHokcPahNBRUBxD+eToJ0k38GE/88wzlZ84THPCx/2AAw7QsakHZIMTdcgKmSE7roEQQrKBtWvXymmnnSZPPfWUMtQza9YsHZPZ4DpxvfAbjetHOcQKWsEl2YzvtddeUxrNoYceKv3791eBra2taooF6Nevn3K0inVRzvBI6b2EY479P/7xD7WfqPPCL82WLVtk8+bNQeEgNP3Xv/516d27d0LP29X1YuofXlZoqKPXbOfOnWpaINYQfPbZZ3E7L+hueKbU78knnyx//etfY3LeZF1vqtUv0j788MNqihP8bmJaazoCZRROzMeMGaNGSHFdrN/dP288nl8Qq/Nm0vML/8bmd1/tJ+q8rN94n3dvWX3jibLhvMfk9UkXyctm2EkVDfLoJcdZ6d+4XfYaOVPs/uupy9ZLzVk479/lvvP6y5TnrfAf/+oNefaaoWrfmf99N58sS+3R1comMSoK9EGz1OQMl3KVcZU0GeVSgBHQ/i1SXLdWSksazPAiqW2tl5J+6gfWCGFhuSXLuFppW1IiuSoCo7h5UrpUHUh1syFlw8wdjIAe2iLTOsvEPqsfda5SwVlw/sbOcimEO0bzHL65Zh5SLuUqP0uG0auKJU/JZIbUbpVlJXniQ9qCchUWkMeSpd78XcPSBqlq6pTygm1y8dA8+a3ud0QZnnuwrt+93pZphVNkubk/7YZpcve8z+TeVyfJ6f1D6vfPC2XmuGp5Xf2qUl7feYv022yGv1gjJy/5i/z4tdfl92Mfk9bFE6QjQr3z/RyePpnP73e/+13l7xZpe3pekMn12/cQ+yVg+QH1dXR0BIbUXIBgABcaDa/pwPbt29UFRCPW580E+eCnCjcIGu7l5eXqJoRjfjeSIZ9NptTv3nvvLebzoUPcSaZ8IJXLDzjzwzRy+NwcOXKkuof79u2rY9ITvEDLysr8owHFxcVZXb9uUD53kikfFNBEv9e6Ix/rN5yu07XL4gn95SJ5TN6+54dy1F/nS68Rb8ljLUtkgiyW8fnLZcxfn5QJ/X3S/sQF0n/5ubKh9gLZY1mJ9P+/qdKhNL01cnuvV+WUjlsERwBGDium/VTe2fH/5M1Vi+V7h+5lKmaTReZCobSUtJapnaaiaOa7eKzkrZ8mxiWm8mkqhVLXJvUTctWU18J1WrFTyuREOb5xl5SZCp1SOIdYCm1QOqUUrpVFm5ZJqW9xBAXUVH59heYfS1FtrsqR4esely1PlkreG5ZSaSmxWrF1nGfOIFP5nGAqn0qBrZdipSA70+X79zvN30CnRf6F0igbf3KI3Hz5ObL4pY3y89/WyW0l+5vlNlLeerxVllyYa+q+e8lJ5vdg5c4Z8v1dznpD+TrT9ZKT/jhPNv7uWundXCN7j0J9LZMJgTa6K3w+wkmmfPvss49SQGEMNBLJlA+kSvnt6gyom2g/YUpnVKCgYusKr+lAe3u73otMrM/rNR1IVfn+/e9/GwcccICxaNEiY//991fHkYjleYHXdCBT6td8RvRRZJIpXyzP6zUd6K58H3/8sTF27Fjj+OOPN55//nkVlkngmnBtpgKqrrUrMq1+oxHrdIDyheM1HUjGe81rOsD6DafrdG1G7TgxiuratHxNRrUUGbWtVmwQzdWGjH3MaDXza6srMqSySUcEQNti8uTJxoABA4zFleMNGVdrniGE1lqjSKqNpk59bKPCHefG+ezfm/s+c3+r/RvEIQ8tv6kwauzr2Wp0mvkV+5AmBP9vNXY65B0S57zOpkqdrwovDr42v6yB8rRENcvT5wuS79phYhyYO8C45qLTjHOlwlWOoHqzy8s6UsejfCcZtZs6jY7Vlaa8lYG4KPD5CMdrOhBr+UzF0+jstG9od5IpXyzTgZ7I978dO/1by4aNBteAphH2WlCMtnDtJ0kHampqZPDgwTJ06FC1duaMM87QMZkDrgnXBsu9uFZcMyGEJJqh+dZk1lAw6pfj86lRGv90U5PcCfXSJIVWuLnBiFFtba0yupOTk6Ncq1xY8aS0jamXPJ2meHG79ePNLWrqK3o0whkq+S4jee0tIevm++VLkdppkRY99dYiV/KH6N2oYMqtvq7+pVJvrJW/btYSjcsXT95Il5b6r02VzVJTFh2F8nSOa5UX6HS+PLnXLKtRv3hN9vjv5/K0/Ep+b5ZbVHR5+TGv/bvO3McO9CYvIRkCFdA0A4onGvO0fEtSmeeee04pZO+++6588skncsstt+iYzAXXiGvFNR933HHKnykhhCSVNTVSOLNaVncaGPoWo7laR1gUVFjhf/3rMnmioJ9U3DFPHnnkEbXOHdMLARRV9VujTYqX51nWdrXyGHniYTi5+cfrPY1fKTOVxSBX5u3Ssk7vRgNrNpVc9lYvpf27I5EJ1rQG5eGy1lQxRmpbnekM+d1PBso9c6+TEVIsT86bJ+PHj5e/tm53V8r9yrbGvPYtsrc+ICT7oAKaZtTX16u50/hLSKqBNcqXXHKJ3HjjjWp9MtwEDRo0SMdmPrhWXDPWaMM/78UXX+xf2E8IIcmlXermBexGWC5J2uWXv/ylHHHEBOkjg6X23Tflhz/8oU5h/mJxsfiqnE5QiqzRTVOhGirlsmKNpW5hDahvfJ15hihACVs2URaq35iyzC03FcDRpsJnjXiWz9W/X7NASpcWSdGI4BHIIIaNluqlpbJAG0fC+b26P7HJHWmeY+YcqdOvaJSH+zUUyOjZy6X0EV0OWDvq025v+o2Wq8c9IkdOe1aGDBkig0+aIg2GqdSGqqG6vOboEeTmR0rlxbET5ZR+3VSYSUxQdR3iLsh6Hrp20UNiAxXQNAIjLHCMDGf9+HvzzTfrGEKSD9wCwU8mrLPBbyasNGcruHaUASzAoUzQwCOEkIQz7DKpHVcuI3LQ4J4sxpRFMmbZBtlgRu3x4/nydkmeWtqzY0eHnNL8ctjoX+6E+6R2nT1NN0/qx9ynLdoWSFlrrbw1fA8Vl1dynDT5LdpGoF+JLGuqkorhOSqvUqmVNm1Rt6CizTzS02GVAaGuRjOt86/V02LzSgx5fOMMywpuFPIHFcny0r4yts5UNEx56puHqvMgD4wUR7qGgoqtgXLQRpaU7SYzdcncWhGzHGFk76TK2+S78he57tRT5c0331S/tbDkRTr7XKthMIn6ZxIJdAiQJGB0gdfFqV7TAS6iDidauk8//dQYM2aMcf755xv//Oc//WE4xob9UGJxXide04FMqV8Pj0dS5Yvleb2mA6HyrVixwigoKDDOOuss46233tKhxObtt99WZVNYWKjKKlOej1ie12s6QPnC8ZoOJOO95jUdYP2G4zUd8CrfLbfcoowZ3n///TqUxBKUK8oX5RyJDRs2qL/xqF8v+cU6HUgX+WCMSiprjdpxAYNZtoGqnSq/VmWICu9LiWDQC+f00QhRGJHy+x+NEKUXa9asEbNxL4cddpg0NDTIQQcdpMIPPPBAWb58uRpdQTzSEZJIPv30U7nmmmtk0qRJcuWVV6o1j1j7SII59thjVdn89Kc/VWWFmQsoO0IISTTPP/+8ek/DL9+HH34oV199tY4hsQTlivJFOWNqLso9FPhxJ8kkX0qmDg1MrXawpuZQyyUP1vuqUfLg6bqk51ABTWEeffRRpVzedNNN8otf/EJN2wgF4YhHOqQnJBE8/PDDqlPka1/7mjK885Of/ETH7AZqPU2xfx2Ojb0+yV6PAT9savqT3tT6GydwcF7VLAb+YrpZZZOOsIHfOPzW8SGBX7ocR74h63/U+id/HAxe6IjdAGWEskLnEcoOZUgIIYngs88+k6uuukquu+46ZUn/8ccfT3tfzKkOyhflfOutt6pyR0ct6oGkEMPKpEkC64At2qXlfZHq0/SEdKw3lrXSQnMOMSUHDkMTvXV2drqGp8qWCvLBiAvWeTY3NytDJtFAPNIhPX7X0dHhmmeitkypX+AWHu8tlcsP99kFF1wgTzzxhDz11FNq3adtKTGe2E7G/RYP9dofpxLa/FK5VJ02zDJaMbZIim59NbjHcs0KKR9nhutDpXxqp+gqT3NrGlIqebYSasZPLhkqTf64SXJINYxL7D4oK5QZym7x4sXK2EdTU5NrWSdr4/u5Z1uqywfcwlNlY/32bHOTb+HChXLEEUeo9w9cq2Tz+vxkgPLGaOg3vvENVQ+oD9TLoYceGlZXXW18Pnq22fLt6jQrpnOX2v/+pPNl2Q2Py3ozzNiFdLvMdIi2f2cem1/+XToP5wZCw3qyZXL9hsIR0BQDvWN4Wf3lL39Rjf1hw9Qq9y5BOqTH78aNG8deNhJTdu7cqUbazzrrLGVqfsWKFVJYWKhj4027tLwnMmbM6IBxiH4lMr1SpPwlW8WE2f4iyT9EH0qxFFVWyIoQBbV6TLE+MlEuAKrklGGBmQUFl9RK0dJ6WbHZzHFVvUjdZX6jHAWXLFJKrTb62CNQdq+++qoUFRXJ2Wefrcp2x44dOpYQQnrO+vXr1fsasy3q6upk7ty5atYKSTx77bWXKn90PKI+UC9856cI/SbIPectl4tmmfvq+95HBh4lMvNl3YB441WZKce7+rYlPcDoAq+LU72mA1xEHQ7SrF692hg8eLBhNkZ16O5x8803q3xWrVqlQyIT6+sAmVK/Hh6PpMoXy/NGS7do0SJj4MCBxk9/+lPjb3/7mw6NIa21RpHLIn/LIECbgeX9bXXFhs9nfhoqm6zIUJDHuFpjKxI3Vxs+c7+xrsiRvsmolmqjSZ3L/GuH+XxmPRcZizZFNyKg0Pmqc8QQlOkVV1xhDBgwwHj88cdVWCzqzYnXdIDv53C8pgOpLl8y3mte0wHWbzhe0wFbvjlz5hh77LGHUVNTo457RptlkMX/PtXHVnM9eDPfkW06lTL04oiraorxy3O3MGUf71PGZjr1dVQ366gEgnpB/dx11127Vb/R8JpfrNOBdJHPMkLkbE+gjWC2OWpphCgaPZGPRohSlMcee0xGjBjhX+/ZE26//XaVz0knncR1oWS3ef/992XMmDHKIflDDz2ktt69e+vYWNPgN4Vvb4UzdZRJ7oRl0tnZJNUzbXcA5ubwTadGKzFC6lgmnT+iWIpmrrCm4WL6rfI356RAyjo7pa3OJ5MG2OtAw9eiKrCutFBk9ZMlMTebjzJFj/hvfvMb+fWvfy3nn3++miZHCCHdBa4/8O3HDIt33nlHZsyYoWN6APxyDqk237/6fQrXI0sCyyGKfUVSu6nTOtZuTLCGv3Ad1s0H0r09fA+paUabPlWwrsNyp5JYUC+on5UrV8opp5xCQ5IJpqDCvCe1CyALsz1g3qf1cJOjjh33uFGvXQ+RWEIFNAWAf8+77rrL03pPryAfrC2jv1CyO8BIxdChQ9VU0TfeeEN+9KMf6Zh4YTZgWu2XvbU1VeooP9YHwopvUz7ZYKQItKxvkKH5IU7L+42W4nGW4QBMvy0alK8jgrGUW52vm7U7GEkyv1ONu8q69DHXE0477TRV1uiI+v73vy+VlWEFQAghEcG3fuLEicraNixvH3XUUTqmZ6jlC6eVyehKr34TsSTCfKuHLJuYNluk4uVmNawUTLvUjdcdi+NrpMbct9b3m+EX5Jj79i9gSM7RSbimJtAhaW7VWrlVBuzGWwbk7G8Ewqz8F8hfzXe9hXVevy2BkPzscNggKK6qNhVtO49gY3W7C+rnmWeeUb7dzz33XLbVSFbhMxtdUbuj7IWje+65p/obCa/pwLZt26RPnz76yJ1YnzcV5cM6zUsvvVQ1fB955BFlHTPW4ByXXHKJ2nc7RzqXn5N4yNerVy9VN9Hornw1NTXqbzS++OIL2XffffWRO1gIDnJyovchdTcdrLQ2NjaqHvSqqirJz3dX2mIKFLz+9VLcGtzLiAbDnEFtsmxCi9yWs0JGmwpggUMBhIXavPXTxagwy9VnxhtmPCIwWjk3X7Y8WSK+J4plshTL0JJ6yUf+gnO1yHQzbb75+2vlXlk6we7xBGjgzLHSalns83RWFAQruHEE5vnLy8vl9ddfVyPQGBV1I5nPB4jVeSmfO/GQDw3oWL/XYikf6zecrtI9/fTTSnk58cQT1QyqruTrHngn6vcr3tVTRe7To5wKZcytXoo2LpOS/oE3pHpvljSIVDaFjDSFo9IuL5Y25AslsMBUeE1lsmwYFNC+0nLDLnMfeTvez+pdHvhutC8eK32XF6n3/oZqPfqq5bRkgUE56xpgfM5YtEWWlfhk8fg8aZlqnqtfaH6WTFtVfjkyfGalNBrlVhn0L5WhSj4lfkzAfYU6RCck6hAKqRt8PsJJpnxY27tr1y71Xo1EMuUDqVJ+O3Z26D2RtrY2joAmC0y3wOiS7d8zHsonoL/Q1GL27NldNv5IKAUyenaFDK92ulVplgVm40aNarpOr7XIzR8qDSWlUj6uWEaHTKHJHVksUnqtLG4N1Ef74jlSLkODjA3kTqhXDahEKZ+EEOKFf/zjH3L55ZfLz3/+c9W5iU7mrhqH3cb5fsWsErGMtHWFem8aIcsmoIzq+ADtsmJ5g1RP1UrtsMukdpyKiE6/Eql3TI3MzT/e2rEZku9XkjFDpsg2KKdHYsNe6GH5DbV2bJxl4EW+boJ6Q/2hHlGfqFfULyEZi9kYjorXxale04FsX0RtvmTwDjYWLlyoQxKDfV78tenJdUQiU+rXw+PRbfnMj3CXC9ZTofxuvfVWY6+99jLuvPNOHRJHPBghso5hMMg2CmDFgba6Iv++IshYkDYsYMcHGSEyMY+LlSEiO19HnAb5w1hBosxnwCgFyr6iokKHRGZ36zca2f5+dsNrOpDq8uE+74pYn9drOsD6Dcct3YIFC4yDDz7YmD59urFr1y4dGntCDQlhC3rfqneo+f7u0pCb0/iPE+sdHTAE5DQMZP2mutn/FTDTBr4VYbKNW6Te+/a3w8LKzykzviVuRojC87O+I3Z6i+DfxAPUJ+oV9Yt6dsLnIxyv6UCs5fPSpkumfLFMB3oiH40QJRlMsbD9e9pTYxOF018o1xqQaGAN6Nq1a9U6Ykzr+sMf/qBj4kBIz7MNjATUTwis6yyo0EYu9IY4gJ52e18xrEw6l9jGgrRhATtenUtP1QXm8bJOZ76OOE2iRkBfeuklVdarV6+WP/3pTzJzpsMKEyGEmHz00Udy3nnniamYqNlTsB/R1RKL3WZzncyZGbI+v7VWpGSBBK2TDwNTZUPW0kuujD6/SJav36CPbfIl3+uI4uYWWat3sdSicGa130+z0VxtvqPd3tK5kj9E70bDJb9kgfpEvWL2GuoZ9Q0/ooRkElRAEwTWYsKi6Mcff9wt/56xxvYXCjkgz6effqpjCAkGBhLwAfzZz34mV155pfz0pz+V7du361gSK1CmKN8rrrhCrrvuOvnd734nRx55pI4lhJAAV199tVpjhY6qkSNH6tD40L6qQRpCly/0y5ehUh7kYzmcAmWwqNBhqVwtmyhtkDHfGaiPbUzFdEyRlM/Vhn1gcXepivBTof09w9p5g9oLpV3q5lWYfzFwGU7BadXSYCvNplJ9963mX/ekGjO/ueV6P3nAIB1sMqC+S0pK1DTm3NzcwJTmCBvsV2Bzi3NusU6HLdvkg70Msnvk4MZO9AaDJ27hqbLFWj6MImH9JdZhokEfr/WeXnGuC8UHzH7BxWrLlPoFbuE92bzkmWrld8EFFyiXLPvtt5+6Z+6//351HaTnoCxRpjA6hTK+8MILXesgkVu2vZ9jvaW6fMAtPFU21m/07d5775U99thDKSerVq1S9Rkf2mXF7xqCLdkqoFxKQGGMAGawNIlj/aevUNYqwz9Oo28WuRPuk1oplTykeynfsQY0V0ruXiRFt45QecCgnH9cUq0VNZVclfdkMaYskjHLNkjo+KpiWJk0QSFG2v4tMmbRmPA1oCH5ydRaKVra4p5fgkAnw/Dhw1V9P/7449LR0SFbt25Vf6Nt//3vf9XmFufcYp0OW7bJ9+KLLyojRG7P6u5smfz+C8VnFmLUfiD7R7G0ooQe/678Ccb6vMmSD4vKMXKEv7FysRJL4CcUlnjhg/AnP/mJDg0nG+t37733Vi+ZaHRXvn322Ud27NihPqaRSOXyw9RQuA2C/DCWAENapPugUwpWbjHVCu5WfvCDH+gYi2TVL8im93M2yode+1i/12IpH+s3HLd0+HbjXYx2BZbVxG0abqJRVmbDraJnE2jkw5c76hh+3Z1tRz4f4VA+d1JNvl2dAXUTVnAx1z0qUFCxdYXXdCBbFimbLxBj8ODBRnNzHFerxwDId8QRRyh5I5GM8gOxTge8ymc+I/ooMt2Vz1Tc0sIIUTQg30MPPaQMJEyZMsX48ssvdQzpCpQVygxlhzKMRKzrzWs6kCnPbyzP6zUdSHX54vFe6wqv6QDrN5xI6f7+978bl112mXHYYYcZDQ0NOjT9CDX+E08DP6kO6hH1iXpF/YbC5yMcr+kA5QvHazrQE/lohCgBYL1nUVFR0td7egXyYUQGPiCxLhTyExINjOrjfsFoLlwJ/fa3v9UxJBIoI5QVni+UHcqQEEJ2l29961syf/58ZbCmrKxMGTaEn750A9N1zfapf4ulf810AfWG+kM9oj5Rr6hfQjIVKqAxxunf017vCYf6NTFyvwlny77x0ddeKAt0OcVS5/Bv2BWQExb1lL/Q7x8lp2CKpS3z5joZH2FRdvFiWxJYvbPCrEXeNdLk/fQkDTnooIPUGkasTXn44Yfl7LPPlrffflvHEpt33nlHlc1DDz2kygpOxlF2hBASC84991z54IMPlC/JwYMHqyU1JH1AfR1xxBGq/lCPqE9CMh0qoDEE8/WhfMKJMBqZFs2yYma1jE6THj3IXTxkq7xm7pffqa3A9SuRJXrRdVtdsfjG1crWTqun0nJvAeWzUNbWtamw9vZ2M91aGbEHldBs4JRTTlGGrH74wx8qwxhY20gsKioq1Dvh1FNPVbMMUFaEEBIP8P1etGiR6uhCpxcMm5HUBfVzzjnnyGOPPSZPP/20o91ISOZDBRRg0buvRmqqAiN4QSOWa2okJ0eP+tmjj2/cLr0mLNYjke1y7hE++VlZjWqIX3La12RsjvaBBb9V4/Il39zFSGhgxLBd6i7IMc9jamj6/HWLTeVOjSIWS91mnQz4z18s8//i1OjMPMZrufyyId/hUmE0SOmhY/354Nx2uoAMbjTL3sur5TfNv5Hey++Rcyd78BeqfHMVSfHIgK283AnTpUoq5FVcH8kKpkyZonzUbdmyRY2kL1u2TMdkH7h2lEFra6uain/DDTfoGEIIiR8nnHCCvP7666qz69hjj5XbbrtNx5BUAvWC+hk1apS8+uqrKb9Ui5BYQwXUT7msHWSN4D17o8PEuKkcji1cK4s2wll9m2UqHL6tTjxFKpdtkHXKv+cFsv7zvnLyxfeZL5ECpZA1zB6tHNrDb5WEmTF3o1xK109X52+rEymdGjh/cUG5VDXi/PfJ/3t/uUoNmqvypHRIk/qNYTRJ9dJSWbAmV0qebJQqX5HUblqmrMi1m4pt4bpaaUM65UQ6L/KU4DUrpLxytFw+7HJZPf9k+fMf3+l6XWi/0VI8zlR4+zunGhdIWWenlBXE230/SSX69eunLD5jDUtVVZVy4bJ+/Xodm/ngWnHN1dXVMmfOHDUrAmVCCCGJZNq0aapD8M9//rNSbqDkpAxragTLdJxeQm3QXul6mVEMcA4sRJAlHrz22muqPlAvsAswffp0HUNIdkEF1E9gBO+EUYFRP+WIeWyxnNIPipSp3E2tFlnXYr4cB8quU2ZK6XEFcnjfA6T0rmVy4V/+JNC/ml+qkKrT0JvVLitMfdE5MhgZU2G8BCqrNXpYvbReVmD0EsrsuFq5dJg+/w1VKg1QC/crrN+I5Eu+33eWE8jg8OXVr0SmV4qsbXF/vTe/VC7Vp1l5HvbjC2VY/iTpd7jlL/SNN94wQ91GNE25lpiyNFdLualw2o5+q5s5+pmtnHnmmeoDe8wxx6j10DAln+ngGnGtuGashcXUKkIISRaDBg2S+vp6ufrqq6W0tFSmTp2qDMeRZqnxDyyg03+tFMZZ6d25c6cq/wkTJqj6QL1gyQoh2QoVUD9DJT/SQMWyUulr95QVlIssbZEHHvuDzH5V5NAzrpIpI3qZ+l+B5A95S1q2tEnLe0WSfwh+2CItS6PkG4R7uvaWtXrPBTV11+7By5PSpTrchQY4f9ZpC2eax+tbdIwTrFcVpUSqtP1LpcFUhAuu/YXySYWX5ROvb9RpXRhWpl7mWAOKkda3h4/tliEkknnAoh964deuXStDhw6VF154QcdkDrgmXBsUblwrrpkQQlIF+PiGcZv//Oc/cuSRR8ZxeUTAGKHaMFvMBrPJcnJUePUfQtoFakQUvymWBf4JM9YypeLx1tIka3ZV8LIj50yu5qocydHhzvM6lx/5w9eskIrZ02VCf2uGVlCnfxxAecPI0Jdffikffvih3+f6gAED1F9CshEqoF6Y3SSdapqrtd100+fScNdd0vzUbBnQ9wfSYr4woTzmDzJVzlWvSr1RZI2Y6ums9hhlMFBOzT/+9/BaabFffmpNpUVu/lC9F4r5Ip5aKqIN/6jpwa4joBYYjbTlV5t/5DRA++K7pXycnqqrNzUd+JFm5QgZLmXuf+YvYqx7wkzt+IDg4+H80IB+o6Vo3HJTIdfHJGvBqODSpUvl5ptvlp/97Gdy6aWXytatW3Vs+gJHyrgWXBMMjz3xxBPqWgkhJNWApfsHH3xQfv3rX8usWbNk0qRJMX4PQzkMGCNEJ3TRzDnaDoWpmPYvFWPRFtWWOtU3U/1CoZcZWW2U+yR/XYOOsFg+ZJr6DVyzBC07UjOutL0Msw0yfN0i2aKMI5ptoXX6vGa4f/mRM3xYmXSabSD/AiHV5vI6WOAdlC/Kefbs2arcYQkd9UAIEfHBqajed6Wzs1P9zcmJrqt6TQe++OIL2XffffWRO7E+b9R0bQ1y2fGb5Or2KXKCefjF6jtl0G8Hybu/KZJvm3GXD31OzvzzfDn1G/+Wi885XJq/+J58/P7LctiBH0rN+DmydulQmW6USYH5Iq2ZVi9rz79Xlk3IkzVVPllxWsCnFXri1MtwSYnkYv1BYblUNnZKef/FUmy+nKFMwqos1kDkLS+20qkexUKRJqyn3CZ1F/SVUmORGTdaVozPk/ox1m+UEqhf4mXDzN/kzJH8jcukpL/PNT98JCwLtjbobewr9edvDQ5X+Zqnx/WZh58sOE8Gz9wio4/rI/fPmycHHHCAGfqm/DL3bJHn2mXK93T9fjxf8s5eJ/ea5Vbc1/+a95PQ+g3B6/3Xt29fNZobje7Kd8ghh6iPEnpjI5Fyz0cIPZEPDQdY+luwYIFaJ3n99dfrmPTinnvuUSOdl112mVKscV0g3uUXSqrVbyiUz51kyoclErF+r8VSPtZvOPGQ74477pCFCxeqv5gSGnvQ1jDbIa31UiKmktm/RaZ3mu0IfPqgdOIY7Qq0Mebm6/aJif/YbOOoNskW1Z7y2W0h1cZBQii8edIy1TwWsz1l/mbLkyWS5/y0hubthpKlXoohZwwV0AceeEDNHEMn5S233KJDg/n73/8uBx98cFbef4DyhZPJ8h140Df1ntWBj4ZTVDo6OtTWFV7TASi9XRHr80ZN11prFEm10aQP25+72ZBxtUabPjaaqw1TX0AL09xO8qcDTZVmWKUd0mRU+4qM2k2d5n6bUTvO3G+1YizMeGvo0PxNrbFonM+objbT6vNXIy8VH5BF4Th/Ve0io8iWzQy30iO/JiVLUV2b0Ylzj/cZPgmcX8npSBuGKUMxZA+SF1gyI1/QVlds+MzzX3vTTcbgwYON5uZmFR50bWorMhapcnAnJvXmwGs64PX+w3V0RXflMxVPw3w4dag7Kfd8hBAL+dauXWucccYZxogRI4yVK1fq0NQHso4cOVLJjmuwSXT52cQ6HaB84XhNB1Jdvni817rCazrA+g3HazrQHfn++Mc/Gqeccopx+umnG2+//baO7QHONoluB6g2hQqvNhrtT5+jzdVWVxTW3rKOrXaMaiMpQtsY1hbUNtHtJDsMqPxD0gZAnm7tnt0H5YjvA8q1qakpar299tpr6m+86rcrYp0OUL5wvKYDmSzf/3bs9G8tGzZiWkJ0vArmNR1ItwJ+5JFHlOKAv3EhRAFOF1AeeKmHlkumPEC4tq7ornxUQIOZP3++kZeXZ1x77bXGZ599pkNTD8h23XXXKVkXLFigQwMkq/xinQ5QvnC8pgOpLl883mtd4TUdYP2G4zUd2B355s2bZ3zta18zKisrdcjuYCmI1XaftFO5s9s4LgpoQOHURFVAvSiL6Px3ymHjEh567h6C8kM5zp07Vx13VW9UQKMT63SA8oXjNR3oiXyhCmjX461ZDqZOYIoK/HtiHSQJYK8LRflgGiIh3cU2joGpGvCbiam5qQZkgmyYNg2fnphSRQghmQJ8OMM4zrp165Qf0ZdfflnH7D7ti+dIud63XLWVy5wn2tRQZPMjE8W/0nPYaO1CDgftUjfX/6sQCmR0ZYOySaHA1FnznQxDRFhmlFPVrPK2KFLrOZVLlyD7FFa4HxhOjDY91yOvvPKKKjeUH75nXv0+Dxw4UO8Rkn1QAY0A/F7C/yWsWjY1NUlBgbspoZjQr0Tq9RrLdAP+rKCEomHepb9QQlzAeoJf/epXylLgY489Jqeffrq8+eabOjZ5wKotZIGvNsgGGffbbz8dSwghmUN+fr4sWbJEKU+XXHKJMq4Gq7neKZDL6or8VvQny3SpHdegjSvmSsncWvGVHqIs1c75zuNSrX4DCqRMu3CDNf+WMbWmmuhOQQUMCRWq/GGlH3YzsB40d8J9sui94bIHws086sfcp9ZzItyf3hHuB2tEe+B+5b///a8qJ3SkotxQfv/v//0/Hds1tIJLshkqoC6g4QmFE6MeDQ0NctBBB+kY4gasui1fvlyVF8oN5UdId4Gbn5UrV8rZZ58tp556qjLg8NVXX+nYxIFzYkR/9OjRyp/pihUr6K+NEJIVwF8oRvFgSAQuW2Dd2yu5E+oxv1tt9RMKlH9w2wgjOtqXmXmquJJSKXN2umsXbtjKJpRIvRqVNJXWJzvN3zutCplh8DnuP4c9dmml7XQLd02v6cEIKMoFrlV27dqlRo9RboQQ71ABDeHRRx+Vs846SzV+Ya0TPWfEGygvlBvKD+VIyO5w7bXXyieffCL/+Mc/VKdGXV2djok/ixcvVueEdULIcM011+gYQgjJDjDT495775X7779ffddLSkpk06ZNOja7QTmgPFAucKty33337fbMmI0bo/hVJyTDoQLqAKMeWM+IKaXptt5TrXVQU0ngTiVHatYEVkMkktB1oeh1JKS79OnTR+bPn68aQHPnzpWioiLVKx8v0IONc9x9993qnDg3ZCCEkGzlRz/6kVoOAf/GGO2DUprN4PpRDt/5zndUufz4xz/WMbvHhg0b9B4h2QcVUBN7vSfWMUJ5wrrG9MVt2kpisdeFYgQJjfpPP/1UxxDSPfCBx4f++9//vhx77LFSWVmpY2IH8jzmmGPkxBNPjEmjghBCMolZs2bJqlWr5KmnnpLTTjtN1q5dq2OyA1wvrhvXj3K49dZbdQwhZHfxwVSu3nfFXoO15557qr+R8JoObN++XXr37q2P3In1eSOle+ONN+Tyyy+X8847T02piCUYlcwrga23Iqk2283lMl2MivyA82Sl5zZLTc4cyd+knSBjUXxBwApcte102QzPmbtWxixtkIZxtZZjZX9anf+6Yr/z5pYbdllKaJT8fHNFqkypKpYipkgWbVompf1jq7jCivDvfvc7NaKEBr5NourXDa/339577y3m86FD3OmufPvss4/s2LEj6tTuVHo+3EiWfC0tLTJ79mx5//33paamRs4991wdu3s8/fTTUl5ertY5QQl1Mx6RSeUHKF8w2Shfr169Yv5ei6V8rN9wUkk+zBDBd3369OnqfZzpQPm+66675LbbbpPJkyersFjVW2trq/Tv3z+l6tcNyucO5XMnUn67OgPqZltbW3aPgMLiJoyL2Os9Y8rmOplcIlLbisXv00Vm+o2ORwZmxQvW6t8Y0gaLcnMdFtqWmWripk5r0bxKW64USsO4T/LXueTfVX5LTcX0BhgFaJPa8ctl0qNOc+Wx4fbbb1fli3JGeROyu8BK46JFi2TmzJlqevekSZN2a10SfoPf4r6EAoo8u2O5kBBCshWsi4e7EcxwOv744+XFF1/UMZnF73//e3V9mBn37rvv+pXPWALlk5CsxVRMohLJoWgoXtOBVHC0ajZgjcGDBxvNzWHeimNCW12xIZXKzbLCVP70cagz5Caj2hfBubLTSbK57/NVG422T2bPzpsdhOQnEsgP8voc8sYalDPK22z0q+PdrbdIeE0HvN5/Hh6Pbsvn8/mMzk6XunFAR8nhuKWrqKhQTr/nzJmjQ7oGafGbsrKyuMsXCdZvOF7TAcoXjtd0IB7vta7wmg6wfsPxmg4kUr7FixcbAwcONEyl1PjXv/6lQ9Obf//73+p6BgwYoK7PjViVn43XdID3Xzhe0wHKF47XdKAn8v1vx07/1rJho5F1I6BY74l1ibZ/z3it92xZ72HE04XmKsuHltocU2cVY/MlX++2t3hbgxE1v3GB/OIN/YWSWINps3/605/k9ddfV/cXnIFHAnFIg7T4DaZVEUII2X0uvPBCZRwuJydHLWWora3VMekJ5B88eLDsscceyjAdri+e0AouyWaySgHFek/4qYRFt3j798wfFMmVcgibW+QtvYt1mYUzq6XJsKbMGs0BV82h5OYP1XtR6EZ+icDpL3TkyJGqPgjpCUOGDFGGITA96tJLL5WrrrpKuVCxgSsXhCEOaZAWvyGEENJzYCth3rx5snDhQvV3/Pjxar1+OgF5ITfk/9WvfiX33HOPuq54Qyu4JJvJKgUU672GDx+u1iViRDCe5I4skqKZc6RuM46aZYEyRhSg/KVmwVyo9lUN4j5W2i51c0NGLJ0MGy3VS0tlwRocdJFW4SVNYsB6W9TDxIkTA6OzETYYzMDmFufcvKbDlpub6xru3JDXqFGjtMQk1cGaToyu77vvvqqD6YEHHpAHH3xQ7SMMcUhDCCEk9owePVpZEUcHH1yV/PKXv9QxqQ3khLyQG/Kjc5wQEn+ySgGtrq6WxsZGZcENI4JxpV+J3Fcnyqqsz7dC8uvsEdFcKZlbayqnhZJjKjqTjTFSpWNk2GVSO65cCpUSNFlkqpluaYu49yUWSFlztZQXIG2etIwx0+oYP93KL3HAgAzqAcZf1MhslK2jo0NtbnHOzWs6bO3t7a7hzg15vfzyy1pikg58/etflzlz5ijDDnjGFy9eLM8995wKQxwhhJD4UlFRoWY3wYgPlNI//vGPOia1wFIMyAc5IS/kTjQDBw7Ue4RkHz6zsR1VE4uHGd9t27Z16eQ91ue1033xxRdqOh4uG1NG4jkNN0C7cr1SP6ZN6ifk6rDsA+s+L7nkErX/m9/8Rk3JjXX9pvr9t9dee8muXbsEo6yRSKZ8qV5+XuRDGeM5x99IJFM+1m84lM+deMiHd08Xn/2kysf6DSdd5cNMFHQ4X3fddWoAIFWAsolptpgNB6u+Tli/4VA+dyifO5Hy27Ez4P4rK92wQOnB+k8sNC8sLJQ1a9Qc1tgDP5tq5NEaoSwd0pTVyifKGetvsf4T60BRD4TEA7z07BcgIYSQ5HD11VcrYz4wtoMprpiRkkyef/55JQfWXsJ4UqjySQhJHFmngNrY/imhFD366KM6NIYMKwua0mlUFOiI7APli3KOi79VQkKAAoop1IQQQpJL37595fHHH5dbb71Vfvazn8lPf/pT+fTTT3VsYsDsqyuvvFKNxEIOyHPIIYfo2ORBK7gkm/GZDbWET8Hdvn279O7dWx+5E+vzRkqHuf+XX365nHfeeVSO4gDW4v3ud7+T+fPny4knnqhDE1e/biTz/ttnn31kx44dUafgptLz4Uaqy/ftb39b9bp/61vf0iHhJFM+1m84lM+deMgHA2tdddAkUz7WbziZIt/OnTtl6tSpyho52ls/+clPdEz8+O1vf6umAY8bN06dM9rSDJDI8oMtDBhk9Jof4P0XDuVzJ9Xk29UZUDezcgpuKFCKVq1apfyC0j9l7LD9rUIRgO9Fp/JJSDzx0sAmhBCSWKD8YQQSBgjvv/9+KS4ulr/85S86NrasX79e5Y/zQAm98847u1Q+CSEJxOgCjJBi6wqv6UB7e7vei0ysz+sl3U033WQMHjzYaG5u1iFkd0D5oRxRnp2dnTo0mFjWG/CaDiTz/vP5fBHLxCZVnw+bVJevb9++xqZNm/SRO7E+r9d0gPUbjtd0gPKF4zUd8PDZj/l5vaYDrN9wvKYD6SRfTU2Nscceexhz5szRIbEB+SFf5A92V75IeM2vq3QbNmxQf73mB3j/heM1HaB84XhNB3oi3/927PRvLRs2Glk/AuoE0zPiui40lDU1kpNTI00uk6DbFxeLb3ydtOvjuKFksI0lVUuzDt5dQtd7RptqSkg8wLQPewoIIYSQ1GTGjBnyzjvvyKuvvionnXSSNDf3rAWC38N/N/JDvsg/lRkwYIDeIyT7oAIawsUXX6wstd1xxx1q3YCptOuYTKRZagrXyqKNneo62+relsIeKL0oL5Qbyg/lSEgygALawSm4hBCS8hx11FHy7LPPyqRJk+Sss85S7YjdAfYm8PvS0lKVH/IlhKQuVEBd+N73vqd60j7++GO1jrH7FttMxS4nR48qmluVo1dvc50U6/DqP8BCrg4HftctxbJgvQ5TPkR9Ujy+2PpNM35ghdn51zg8yTRX+SRHh/sqm3SoFW6n98uzZoVUzJ4uE/pbo5S5E6ZJ9dJ6WbFZHXoG6z2xfhblhXJD+RGSLDgCSggh6cUVV1yhbEbAz+CRRx4pTz/9tI6JDtIhfXt7u3KtAiu76QKt4JJshgpoBOCnEv4qbX+h3qeGmMrhBcNlbe0WNapotNZK0cw5UqeUOlMx7V8qUtem4k71zRSfaA0UimlBuVIwDeM+yV/XYIVrlg+ZJp3mb8oLfKYyafkVVfk3V5thxVb+pgJbuK5WtnQijzapfX9uUHgb0iN8nZZnWJl0VhSYMmg2t8haGSr5/fSxB+jfk6QaHAElhJD0Aw7uH3nkEamsrJSf//znykPB3//+dx0bzD/+8Q8Vj3Q1NTXqd7m56eVrHf5ICclWqIB2ge0vFKayva0LzZWSJzulfkKeddgv31TpNErBq5bpE6yXZMEli6QII5I6rmFcrVw2DAdmHlOrseNnzKB8vdcsK2aKVJ+m/YoOu0xqxzVIS9ioJeRYJiVhyqQZvqQ+PNxUgMceWi/FrWXi1WMp/XuSVIQjoIQQkr6cf/75sm7dOjnooIPkiCOOkAULFugYi4ULF6rBgQMOOEClwwwsQkh6QQXUA1jP2NTU5F8X2iVBhn0KpVwHKyVT74bS3rJW77kzND83MFJpgpFQK/88KV0qsralXY1oto2pl0P2sOKK69qsxDo8T6U3wxeHrvJslhpT+Sza6KawuoP1FigPjAxzvSdJJTgCSggh6U1OTo7cddddamYVRjfhq/35559Xf6GQIhxtEKRLVwYOHKj3CMk+qIB6ZNiwYf51odH9hcKwT4VUNVqGfQyjSfxjmf3ypUjvhpKb7x8n9UCR1LYi78BWr0dVcyfUS6eeglv81CH+9aEIt9Ka4cvzgtaNqrWgY4vllH5dW6y1/XvCbyrKA+VCSCoBP6AcASWEkPRnxIgRsnr1ajULbfLkyfL+++9LY2OjCk93aAWXZDM++GrR+67YDTmMKkTDazqwfft26d27tz5yJ9bnjaV8MO39zDPPqF65cAUMBoiGizTukrICn3KnklcipsKIaa8wHpQn9WPalMLYXJUjw2dWyurOcin0mb/zFZo/N6RsmJWuVGqlbcloWWHut0ztNMMtBREGhQqlSYyKAjV1trh/qQw1f3dZi3mu9dP1uk6sRb1W5O5lMnqVFa7SKwNGk0XmukzD7QKs97z00kvl7LPPVmsuMJrqRrrXL4iXfP+/vXuBbqO888b/kyE+mywFQuu1nNgQ7aa03YXTxbtnsRSyAbe852wv/2IrDrUcaENoe/5NzwIhlIsvJLZcum1qaLfh7LIkaUtkk4vs5bxle94/Z13SYMv07etuT1puzSIHJ5G8aZe28JbaxtL/+T3zjDzSjC6OJVvSfD+cITOjRzM/jUa2fn5uq1atounp6bTXjuH6mS0kvhtvvJF2794t/01nOePD+2uG+KwVIj7+A022FgLLGR/eXzPEN894/xZjfEaIzxriS6+c45uLzaebkUgENaAX4itf+Qrt3LkzzXyhbtoeaKbODdoouDtol6GPppN8fQEiX418bO+fPUU94l8tFXFTuxxQSGtWG24KpK0tdXfyQEIeeQyHGtSoXeTBztZ9cv9FvF8cI/ipf5RJpr5fluf9TfuSk09uMrylnyIZ/hSh9/e899575evPlEABLKeLLroo8QMQAACgGE1OTqo1APtxxLldZgaFyKB5mG0e7SyTfJ+3EPG9+OKLchQ27pNQzoPwcL/XZ555hp588knZDCabcnl/Wb7jq6yspLm5uYwJPK6f2ULi++hHPyr/UPJ3f/d3ao/ZcsaH99cM8VkrRHz8syfLr/1ljQ/vrxnim2e8f4sxPqNs5Y4fP06bNm0q2vh0iM8a4rOW7njTM/Mtb1ADukjXX399Ur/Qhc8XWtyM83ueOHFCvl6AYsc/9PQfgAAAAABQXJCALpI+XyjPg7mw+UKLG+b3hFKVSx83AACA5YRRcMHOkIDmCTfB1ecL5cGJShnm94RSxn1AkYACAEAxwyi4YGdIQPNIny+U567Kab7QIsRxY35PKGWYhgUAAACgeCEBzTOeloWT0Ndeey3LfKHFRZ/fk/t7Yn5PKGXcBxQ1oAAAUMxOnz6t1gDsBwloAXB/ycHBQdl/kpuycn/KYsbxcf/Vq6++Gv09oeRhECIAACh2ExMTag3AfpCAFhD3n7zvvvvSzBdaHDguTj45TvT3hKI31ksORy8lD/UVpf4tDvIORIkH58cgRAAAAADFCwlogd1+++30wgsvyH6VxdYvVO/v+aMf/Yi2bdum9gIUsYZ2ivSPk6dnPgWNDuygtmtHKdjqJJ5dlQchQg0oAAAUM4yCC3bmiEajGWekjsVi8t+Kisy5aq7l2Ntvv02XXHKJ2rKW7/Mud3xvvfUW3XPPPbJ2hmsdl7OZK/f35AGGuJboG9/4Bl122WVFf/3KJb61a9fSuXPniCfTTgfXzyy53H/R4OceJOreT801P6HHnC/QDdG76a/FIz/pq6FPfi0ua0I//vjPaH8zT5jMZT5Bev3+A89G6e+vK2R8meH9NUN81goRn9PpJPF7X21ZW8748P6aIb55xvu3GOMzQnzWEF965Rzf5auvUGtEkUiEHHFBbVvSaxK4X1UmuZZjU1NTVF3NXwzTy/d5iyU+rnV85pln5FQtyzHQD/f35NrOT33qU7LJbaldv3RKJb7Kykqam5ujTAkorp+ZqRw3xX2ukUbJQ8M3x6ldfJSiA15ac2oXfXEqQFdeGafZ+6PkmgxS4wkv1Yj98U639rw+F032byGn8XhplO31ywDxmZVTfPyzJ8uv/WWND++vGeKbZ7x/izE+I8RnDfGlV87xTc/Md43iBDR7ugt5pc8Xyv1Cl3q+UMzvCWWjoV0mnx7xf04+WfjUIFGXh/bt2yfu8cepgwYpeCJKzo1eahb7+YtLL7VT/IhPJp8AAADLBaPggp0hAV0G3PyVpzrR5wvN9tfofMD8nlBuXOub1dq8pv5ztGvXLtq9e7f8XHG/UKr1UVCsx0N+6nA7RCLaS8U9LjUAAJQ7jIILdoYEdJkY5wvl+TcLNV8oH5fnI8X8nlDuOCEdajtAUxfzPKAT1Ms1niLT5Ka5PEIu15rGJwNkTlsBAAAAYKkgAV1G+nyhH/zgBwsyXygfj4/L85Fifk8od87WII3s6aRDX/0q9fZ+h8YD52TzXGfrPvIO1cgmuI66NqoPtRP+DAMAsEyyTKdlFxgFF+wMCWgReOSRR/I+X6g+vyf6e0K54oRTDixk4O6M0cO7d9POnTvpGDe/lZzkOxKXTXJ50fuMAgDAMsgynZZdXHXVVWoNwH6QgBaJfM4X+uCDDybm90R/T7AbnuqIpxgCAIDixC1TAif3Uv8Z3grRfl89jao/KI71rpA/x7nVirc/IqfV4jLcrYLJAeXQkR+gpCEBLSLXX3+97KfJ/TW53+ZC+4Xq/T1feeUVmXyivyfY0UUXXZQYBhwAAIqRk3w766ntYIhCPR6RX7YTp5/cZ38jnZB/RIzHR6l+65doYDIu9u+lju5R+Uw5oFxfP5V6Y12Mggt25hAf8iWfB/T8+fNUVVWltqzl+7ylFt9DDz1E//N//s+c5wvV5/f85Cc/Sb29vXKuSVao+DLB+2uml1u1ahVNT0/Lv+Cmg+tntpD4vvnNb9JLL71E//RP/5T2Oi9nfHh/zRCftULEl0sLgeWMD++vWTnHx7WdMuFUfSPk9m65mtD0vTfoyMbnaYvrdhoS290vzNKD15f+9RsZGaENGzYUbXw6xGcN8VlLd7y52Hy6iXlAi9hXvvKVnPuF6vN7cnl+XqbkBqDcoQYUAKA0rPuzJrU271PfnaB33nlH/qGElyOtNUS1rXRE/eGk6wZuovsIvSi3AKAUOeJZJqEsRAY9NTVF1dXVastavs9bqvHpNZuf+tSn5GBFqckl9xd95plnTDWlSxWfFby/Znq5yspKWTud6Y8EuH5mC4nv8ccfl1McPfXUU0VZA4r31wzxWStEfPyZyPJrf1njw/trVs7xcZPbmlO7EgPKyW3fX9KJ2Qfphov/N/VWbCAamaPtE5tpB+2jQV+NnE7LWxeme2bvlyOal+r14ya4PBBRscanQ3zWEJ+1dMebnplveYMa0BLASSX3C9XnC33zzTflfszvCWCNf+hla2IIAADFh0c3P7G7izbKQYg8NH7oLD3kdiSm02LlMp0WRsEFO0MCWgKM84Xy1CpPPvkk5vcESIMTUP0vcAAAULysptNqaNea3nJNfdBXQ1o7Fm06LYbptABKHxLQEsJNcHleT7/fj/k9AdLANCwAAFDsMAou2BkS0BLD83ryDy3M7wlgDTWgAABQ7CYmJtQagP0gAQWAsoI+oAAAAADFCwkoAJQVJKAAuYpS/60V5NhinNQ/SgOtK+gR4xwXY71UUeGQI+jy4h2YLw0AF2bdunVqDcB+kIACQFlBE1yABTraRvvH1HoqTj494/TU6Zgc/CUeH6V6Xw2SUIBFwii4YGeO2dnZJZ8H9Pz581RVVaW2rOX7vOUUXy6DrCxnfHh/zfRyq1atounp6bTzUzJcP7OFxPe//tf/oj179tDIyEja67yc8eH9NUN81goRX/LvjygN+K6kof/nu3TdbRN00+yD1CD2BW6to4m73qF2z69ooLWOhj71Bh3+tD4aqfDiI7TiBqLn37mPrhebdrp+iM9sKeMz3r/FGJ8R4rOG+NIr5/jmYvPpJuYBBYCS984779Bbb71F//3f/03/9V//Rb/97W/p97//Pf3nf/6nnCf35z//Of3Hf/yHKg0AZjfRtqd+Sn1Pp9ZqTtDEMaLr1jnnk092/U3UTT+libNqGwAWbHJyUq0B2I8jzm1qMihEBj01NUXV1dVqy1q+z1tO8XGtTpa3bVnjw/trpperrKykubm5jDWguH5mmcpxbSdPScS1y/zXcb6+jOfH5W1+DiejTz/9NH3yk5+Ujy1lfKnw/pohPmuFiC/59wf3AV1DwVvOUbCVqH/LfnId2U6nWmpo4u5Z6tzwv6nX4SEajVG72/gzKyT276Urw4eptdZe1w/xmS1lfMb7txjjM8pW7vjx47Rp06aijU+H+KwhPmvpjjc9M99yEzWgAFDyPvKRj8gfiL/+9a8pGo3KGk9uJvLLX/6SXnrpJXr44YfpL//yLxPJJwBYcZJvJ5GnZ1htMxe5WojGJ6KU9CfPsWHqoHpyieQTAABgoZCAAkBJu+GGG6ihoYH27t2r9iT71re+RX//93+vtgAgrYZ2GqU2uv2Y2pZJqZ+G2r5E/ZN6ChqiXncHNfdvpwa1BwAWDqPggp0hAQWAkvflL3+Zvva1r8n+oEY/+MEP6He/+x3deuutag8AZOLeFqAmtS6JpDT2hpeGrrpINn90ODw03h+hYKtTFQCAC4FRcMHOkIACQMmrr6+nT3ziEzIJNULtJ0AmTvIdjiUnk7U+OjI7Sw/y8LY6se9YTJ+GJY7kEwAAFgUJKACUhfvvv182w33zzTflNg/w8Prrr9O2bdvkNgDk30c/+lFVM5p+4cHAeLF6LHVxOp2W+41LrsfLdzleEJ95ybUcL4uN78Ybb1R3Xuk7ffq0WgOwHySgAFAWPvCBD8hk89vf/raspUHtJ0Dh8R969JrRdAvP28iL1WOpCw8kZrXfuOR6vHyX4wXxmZdcy/Gy2Ph++MMfqjuv9E1MTKg1APtBAgoAZeO+++6jxx9/nL7//e/Tj3/8Y9qxY4d6BAAAAACKgWN2djbjhJKFmEeGp0ioqqpSW9byfd5yio+bpvBfBzNZzvjw/prp5XiuyunpadmUKB1cP7OFxHf33XfTc889R3fccQfde++9am+y5YwP768Z4rNWiPjy/ftj5cqVeTsew/trhvislXp8k5OTVFdXV7Tx6RCfNcRnLd3x5mLz6SbmAQWAsvPFL36Rrr/+evrSl76k9gAAABQXTj4B7MoR50b1GRQig56ampITx2eS7/OWU3xce5blbVvW+PD+munlKisraW5uLmMNKK6f2ULi476fQ0ND9JnPfIY++9nPqr3JljM+vL9miM9aIeLL9+8PrlHN1/EY3l8zxGcN8VlDfOkhPrOlim96Zr6lDGpAAaCsPPjgg7IPaFtbG/3DP/wDPfDAA+oRAACA4oFRcMHOkIACQMn7zW9+Q01NTfTKK69QKBSiO++8U/776quvyv38OAAAQLHAKLhgZ0hAAaCkjY2NkdvtltOwDA4O0urVq+X+yy+/XDbF5f38OJcDAAAAgOWFBBQAStZ3vvMdmVzef//99NWvftWyby3v58e5HJcHAABYbuvWrVNrAPaDBBQAShL37+R+ntzUNt1gQzp+nMuhXygAABSDq666Sq0B2A8SUAAoKXp/T+7fyUllQ0ODeiQzLqf3C928eTP6hQIAAAAsAySgAFAyjP09uX8n9/NcCL1f6Ac/+EHauHGjTEgBAACWGkbBBTtDAgoAJeF73/teUn/PxdD7hW7YsIEOHjyo9gIAACwNjIILduaIRqMZZ5COxWLy34qKzLlqruXY22+/TZdcconaspbv85ZTfE6nk8T7prasLWd8eH/N9HJr166lc+fOWQ6Wo8P1M/P7/fTcc8/JQYRybXKbC65R3bZtG918883U3t6u9s4rl+uH+KzZMb58//5Ys2ZN3o7H8P6aIT5rpR4fTxvGrXGKNT4d4rOG+KylO97lq69Qa0SRSIQccUFtW3r33XflvxdffLH8N51cy7GpqSmqrq5WW9byfd5yio+Tlyxv27LGh/fXTC9XWVlJc3Nz8j1MB9dvHvfTvOOOO+T9fuDAgcQUK/nE5+AklHFtqLFZb6lfPx3is2bH+PL9+2PFihV5Ox7D+2uG+KyVenzcBJcHIirW+HSIzxris5bueNMzs2pNS0Czp7tQvMZ6xZeJXkruxRal/lsraMvTEcr8lQCguOn9Pa+++uqk+T3zDfOFAgDAUsMouGBnSEBLWUM7RfrHydMzn4JGB3bQ1mtG6PCnayh9HRtAcctlfs98w3yhAAAAAIWHBLTEOVv3UeDkXuo/w1sh2u+rp5EOt0w+x3or5Rd3XrwDeh+dEPWqfbx8ZQz1pFBcFjK/Z75hvlAAAFgKGAUX7AwJaMlzkm9nPbUdDFGoxyPyy3Zyi+wz+vSt9Lf0I9k3Jx4fpXrfDpmkRgf2Ukf3qLY/5Kfd33yaIshBoQhc6Pye+Yb5QgEAoNAwCi7YGRLQctDQTqPkEf+NUrv6zj7xn0NEuzeqmk4PddAgBU9EybnRS81dHrm/l9ppZqCVatBWF5bZYuf3zLfU+ULRLxQAAAAgP5CAlgnX+ma1Nu+Wp95QNaDaEmx1EtX6KKhqPzvcDlqx4isUQg0oLKN8zu+Zb8Z+oZgvFAAA8mXdunVqDcB+kICWqXV/1kT/evt31Ai5Wr/P3jFuguvV+oM2tFN8MkDNXEMqywAsPZ578+tf//qy9PfMld4vlOPkfqH8xxwAAIDFwCi4YGeO2dnZjN+mCjGPzPnz56mqqkptWcv3ecspPp53TbxvaksTfXoL1f3nTppVbXD5eC8+sopu7Nbe3qanJunIp51iLUoDrXV0+zG5mx5+/vf0wPUOW12/5Yxv1apVND09LZtAp2OH68f9Kj/3uc/JZI5HnF3uJre50Ock5UmWn3zyyQuaL5Th82GG+KwVIj6r3x+pFnLelStX5u14DO+vGeKzhvisIb70EJ/ZUsU3F5tPNzEPaBlxfvpIIvnUXf/g7+UXA1605JM5qXVA28cLJ58AS+nFF1+kv/3bv5X9Pe//q2do+w/+oB4pjFCPgxxb+kkfB1qbP3d+JGjjwq0EGLcUMO7nVgOXiYST5yP90Ic+JPuF8usAAAC4EJOTk2oNwIbiWYgkRS7Z5FqORaNRtZZevs+bazlW7PHl8Lbl/by5lmN4f830ciKZicdiMbVXM9pN4j31x0fVNsc32u2IN/efiyeXnLfQ82aTazm2mOt38OBBef8eOHBAbmuvMyLXC2IyEG9u8cf9Lc3xwKTaZ8Dnd3SPqC1NpL856f0QpeJ+EXNzYP790F8H/8uW6vqlync5hvjMci3Hij2+fP/+yOfxGN5fs1zLMcRnlms5tpTxPf/88/LfXI/HcP3Mci3HEJ9ZruXYYuL7w/RMYglPnI6jBhSgKHTQ3sRcreXJOL/ntm3b1F42PD83bY/Wa1lKqan0J0bLilL/lvn983PcmkVPBImattP2JpJTFeUifGqQqLuR3GqbxNr2/mYa+tcfUlSFgPlCAQAAAC4MElCAYtAdIO+QNlermTHh8qYpU7yyze856AtTI4/MzINidXm0ZrBn+snrHqfApDaCc6TfS12PDshmtNGBHdR2rZrLVs5xu18NtpUqSsNDRN6NTnK27iJ/13CacsncN/uJeKoiQ7NdZ2uQYkd8SVMWYb5QAAC4UBgFF+wMCShAUXCRb2e9ZS1dqKdmPuEKiTJ1vVQqs1LmNL+nXttY20jeFrlHTRcUJF+ttul0XaetmLipPd5uqK00ODNMQfJSozyGmxq7O2g4lwvHI0THIxSgNpFwqsRfJKMRvQLWAPOFAgDAhcAouGBnSEABioVIfEZpLw1G1LYUpfBJIv/NKsVqaCQ/jVO4BGpBc53fs3m9S60lk4MH6Qmgu4NE+i33c23kKHkSj+kDB6Xi5reDR+eTSE8XUcdzuTXD5cG6fEe02ldeRq9to7X+URWBmXG+UB7VFwAAAACsIQEFKCLubV56tmuQwmq7VD300EOLm99zrFckjH4aVQlgPOQnkUaqB8V16tSTw1GxYdUsOUT7fYOy36ieRHJZf9feLE2Yubmz+XiyWe7JiUQfUCup/UL5nAAAAFZOnz6t1gDsBwkoQDGp9dEjH3uWtj4skheZvzjJda2h5m5smDqonlyqaWqx0ft7/vKXv7Ts73lhRFL4aKf4V0vouGY0eeAhi+shr5OfGpNO7yJXyyAFT2Qa7MlJjTxg0U7DtC18/r4OomvXkTPLrEV6v9DXXnuNmpub6c0331SPQFmRA2T1pvQpFvfJrRW0fei/1DYAQHoTExNqDcBeKiocSEABis2fNP2/1JNU2xehwEnV5FQOzNNO+Ujr8o37P3o8nsz9PXPVsJ0CLR3kkc1nd1D87kPUdGxC1gy7O3ngoRrtejg8IiM19wENPScS1qSRbBknl800mHbQIg038Y00Bef7fzq0PrhzneI9UGUy4dfN84Vyv1C+HugXWoYa2inSP04ew6jN0YEv0dZrRmh/05+oPQAAAJDqPe+5lBw8V4vatvTuu+/Kfy+++GL5bzq5lmPnz5+nqqoqtWUt3+ctp/hWrFhB4n1TW9aWMz68v2Z6uVWrVtH09LRMbNIpxevH/T3vvPNO2r9/f8oUK/bG/UH5evB1uf322+U+fD7MSjO+KA20/j3R149Qa+0YPVL5Q7pp+kH6s1+dp/98Yg1t3K2Vanpqko582inWRJkVG6lL200PP/976tiwQm1ZK8T1y/fvj5UrV+bteAz3nxnis1bq8U1OTlJdXV3RxqdDfNYQn7V0x5uLJaebqAEFgEXR+3uOjIwg+Uyh9wvl68PXCcqJk1rvvo5u/+4YhXr/lujEA9TgIPqvf72TNtIJmZTNzp6g6277exo4I9LVp/uoa/cJmhH73zm+m7q/dcTQzBsA7IaTTwC7csSzjJRRiAx6amqKqqur1Za1fJ+3nOLj2rNsA5wsZ3x4f830cpWVlTQ3N5exBrRUrh/399QTzoMHDy6uyW2ZM14rHqTo6quvluvpFMP7mwnim8d9kjfQSKKJ9rP3O+gTX9Me0zX3Ryi4cZi8dW00KLb3nJihh0S2uhTxpcr37w+uUc3X8RjuPzPEZw3xWUN86SE+s6WKb3omuaUMakABYMFymt8TEvT5Qvl6ffKTn0S/0DLiWt8s/p/8ByVOODkp05dgq1PNbSu2Q37a/beVInH7Ssa+yABQ3jAKLtgZElAAWJDDhw/nNL8nmPH1evDBBzFfaBm70vVxw0BXIep1aHPVRge8cvTmeEM7zbz+PWrO0AoCAMofRsEFO0MCCgA54/ktH3/88Quf33MZcQLg2MLTq/Bcn1pSsBwwX2h5+5Om/TTarY/g7KHx/gi1N/DoyvvIO1RDF4n9K1y304d/9IBp9GYAAAA7QAJaAriZhnFJtw+gUPT5PV999VXZfDQ/83suFyf5jsRlUrBc9PlC+XpivtDSxtP2xDrdSY1w3Z0pzW8l7b6LiX08QBH3AQUA+1q3bp1aA7AfJKBF7sCBA3TNNdfQpk2bEssVV1yRtM2PczmAQihkf8/owGY5KIrD4aXeHi855LyKqTWUIeqt8FL/pKopHOtVz9GWRDmxv2KLl7y8f0tAG2E0UdZL+0/JUkLK8TMcz7Gll3pFWf0YAT2GPND7herzhXJCCgAA9nDVVVepNQD7QQJa5FpaWuSX33/7t3+T/QV4eemllxLrP/jBD+TjXA4g37ifIidHBenveaafvtQWl0ldPL6LqIvHB81CPMfrHlfPiVOkv5k6+rhZrXKMqPmNGMWPtJFTlu0gf4jL7iPXSYvjizKbPRmOd7SDaCc/FqHAliG67TshyneD2UceeURe3w0bNqBfKAAAAJQ9JKBF7j3veQ/de++99Oijj8ovyKl4Pz/O5QDyiQfL4X6KPL9nIfp7Rk8M0uCeXeSr5S03bRfJX1ZyJNGgeg6R01WvrSTUk6tWNW08E6bBlgBtl01tneTb6Ze7k4jjHYtlOp6fGtXzG28xj3aaL3x9R0dHE/1CAQCgvKH7FNiZY3Z2NuMf9Asxj8z58+epqqpKbVnL93lLOb633nqLXC4XnThxgj70oQ8l4nvllVdkrQnXhKYmoEsZXyq8v2Z6uVWrVtH09LSstU5nua8f9/e88847ZYzctHv16tXysXwL9VTQBnqBYp0euc2DBNWc2kXxThf1b6mh8E69nyY3wd1LrtPHyFfnkPMuerrkUzQiyYwc8ZGTm+D2uejsYR/ViMsrjzfk1R7jctykVjweOdJIw4bjcxyeLsOPQcPxtPLa87m58JpT99JcSn+/fNLnC43FYvTEE0/Qe9/7XvWItXzfBwyfX7Nyio/n7eQ+qJks5LwrV67M2/EY3l8zxGet1OPjP+7yd7hijU+H+KwhPmvpjjcXS043UQNaAji5vOuuu+ixxx5LqgXl7bvvvhu1n5A3L774Im3cuFH2SxwcHCxY8sms5k+0dCZMP1WrnER6uvw0Kj4H/FngORXTMddmWhDH2/BwT07HWwp6v1D+QxP37+b3AwAAAKCsiC9dGXENKS/Z5FqORaNRtZZevs+bazlWjPH97ne/i1922WXxX/ziFzK+l156KX7ppZfK/VbydV5druUY3l8zvZzD4YjHYjG119pyxnfjjTfGt2/frvYW2GQg7nU0xwOTvDEaF6lfnLpFKhiPxAMt+rrY6veK69YcP/SGuG4hf5zIL0rLR7RyLQGxJojHHGL9XOLyasf0h3jdWFZbl/v5OY70x0usCzIOEVPmdy9/+H1Yt24d/8UJC5asy6ZNm7L+bGFcNpuF/NzI5/EYfn+Y5VqOIT6zXMuxpYxvYmJC/pvr8Riun1mu5RjiM8u1HFtMfH+YnklaUANaIriW85577pF9PllfXx/t3LkTtZ+QVzwgDjcLWpL5KWt99O2Ag9rqeITZYXIl+oA6ydcXoOYuj2wGvCPeRD1ir6wrbdhOgRZ9jsUdRDtFuaNhCvNjJm5qD/mpw81layjcJMqqRxLE8Q61dOZ4vKXD15/fh4GBAa1mNs0ifsjLxeox45JrOV7ELxjL/cYl3+fNtRwviM+8cJnjx4+ruwcASgFGwQU7c4hfXhm/ZRaiDfHU1BRVV1erLWv5Pm85xMd9Qevq6mjfvn30xS9+kc6cOZM2AV2O+HR4f830cpWVlTQ3NycTq3SW+/rp/RBZIfuAJuOpUWoo2BQxzJtoP/q15x/LTz75JL3vfe9Tj1jL933A8Pk1K4X4uG8n9x3O9LOF8eNZfu0v+Lz5Oh7D+2uG+KwhPmuILz3EZ7ZU8U3PJI8VgBrQEqLXgu7evRu1n1AwSzY/JQ8aVME1j1oNZdu1o7ZOPo3zrR47diyv860CAEBxwSi4YGdIQEsMJ5719fXyX4BCKvj8lA3tFIsZmhJ2utUD9lPQ+VYBAKDo8AwGAHZVcgnoq6++Sp2dnbKm4LLLLpPNf3jRalHSL7mW48XpdFruNy75Pm+u5S699FI6cuSI/NfqcX3J93lzLcdLoa4fv9/8vvP7z/cBFB7mpyy8Qs+3CgAAAFBMSioB5SlH/uZv/ob+8Ic/yFoCbr6QqD3BUvYLv9/8vvP7z/cB3w+8HwqroaFBNsPlpL+pqUn2U4TF4+vI15Pn8+Ukn/+4AgAA9rBu3Tq1BmA/JZGAnjt3Tn45+/3vfy+TkK9//etU+aMbafU/vqxKKGf6aXNFLy20xxpPWO/Y0k9RtW0tRL0OL/WfUZuLxJPpewcicvz83PGE/BXUO6Y2L4B23syvNBuekL/C8nrxNXIsKr5MuE8cz43I7z/fB++8845stsj3BxSW3i+U+ydyQsr9FeHCGft7Fnq+VQAAKD4YBRfsrCQS0M2bN9PHP/5xeuKJJzAwB0h8H/zzP/+zvC+8Xq/aC4XGNdA8AjMnTwXpF5pKDlTUS6MWf6nJ7Q9HeSBimG8W7reMZSH4uvH10/t78nEBAAAA7MLBk4qqdUs8rDurqMicq+Zajr399tt0ySWXqC1r+vF4xFde/5d/+Re5reOaPA+NJg9cwjWgV4bp3lg7ucW6ty5M3v5xavMNigebKTAZJF+tVlR+sfV0UDzeTP5uoo6TXooc8ZFT1uJ5qEMVoz0jFOv6Uxq4dQ21HeFLpR9Hmzai7ahWzB+KU3uDtp6Ev7y69aPxl9d2cokvzjUyJnG0wDk69qcHqKLPpc6vfbGuObVLvTbtPFvFeeJ7eqjn4U5y6OeSr7GNtCNpx5ZXg19bH1G3eBWdMj4t5sYThvP2W0x3kRRrymtKPNZMPXuIOn+uXy/Ddej2k79LlOHn1fJ7EaT45kEaPNojYutQ74lFvHwMcX23iusrr3AituRrbBmz8LnPfU5+id+zZ0/e77983fd6ubVr18oa20xJx3LGl+v14+a4PCIzNyEt6KA58nNK9MJcO3lSLpn8nAzp92Gh8M+DveRSPzu49n/NUDOdu8Bzcj/aYDBI3/zmN+mv/uqv1F6z5X5/i/3+Q3zJuNyaNWsoEolQtj9ocB99nqs0k4WeN1/HY3h/zRCftVKP71e/+pWcaqtY49MhPmuIz1q6412++gq1psSzmJ2dlUs2uZZjnPRmw8f6xS9+Eb/sssvi//3f/632zhvtFrlK96jaUiYDca/DH5d7xXqzeHl6mUh/c5xaAvGIeszrcMT9ozF+JB5oEeXkY9q6SHS4lCrXHA+8weVG434S65PaQ0nnD/lF3tQcPyTLGSU/h2PQj83Pb+4/F5fP4OfrsQkyVnVseR7x2DkuKMqJ7xZxkRjyI+LY+vp8OXkMVa7H+PoMx0u8PiP9tRpiNV4vvpbaucTxtjjijpZD8rHU8/ItJcslXWOWPl4+l0PEp5Xkctp7aLwOxv2p3nzzzfill14q75dc5Hr/5fO+18uJL4dx8eFUe60tZ3y50OPj637LLbfIhdcXRryf4lrw/SKXxPssqPtN3kvdfE/54yP6JVP3GH/e/N36Pao+ty1iWzyWdN/rx1H3HZP3ntpPe0bUfZeyX4+Hz2eMTcY9/znJlfFaieRd7U0v3+9bruVYqdx/meT7vLmWY8sVH9+32X62MC6XzULPm02ux2N4f81yLccQn1mu5dhSxvf888/Lf3M9HsP1M8u1HEN8ZrmWY4uJ7w/TM0lL9nR3GQUCAVm7deHNbpspsE2rY3O27iL/0SANcx/OM2Ea3HyI7mjgvxQ7ybdTpEaSWD8Sn69lq3XRddpaihANd4mvxTer2teG7RRoGaSJs9pmOs7W4ALnOYxS+KQ4z04f1XCo4jyHWtRft8eGqYP81KhqKN3bAtR8NExhbVPgx7TX19gkvs5nU+ujY7H5GmKnq15bYXy9WgK0XZ5LXKN7esS/fOz5+OSrkteBV3RN5ErUOGeLV+em9kTNqFG6/Vpz3M9//vPyfikF5dLk0tgvlJuU5j5fKNd4b6DxwFkSX5dJJJzU3LVX9a8OUW9dG1F/RA4w1SjuGofMCQWuQXeLuyjEg1LtI9dJrS5dN3jtLnm8DreDQj1r5LyifAyRRIp9qv/2WC95TgYowvvjEQr8oo8GJsXxU/efVPE0tKe0sgjTT6l+/r7OgbG/J18vHs0ZAAAAwK6KOgEdHh6Wffwu/Au79RfFaPinas0CNzUV59MWD3WI76bq668Jf9HVymnNRMdfj6aUFUnTpJeCdarcgvuriQRNNT+11kEePVbZtHWcwvogSZtd5FKruQr1VKjXIxZDU9xoeFytpcoWH19/43tnHS8n5iO0gS5Sj+mDGPH+UfIkYso0uNEnPvEJ+vd//3e1BUuJm+Dq84UePHhQ7c3ESb7DMQq21sg/Y/AfehJ/7hAJ3jj5aZf6Q438QwW//+qxpD+EJP5wpGler9/xIRp+2PwHosRnI4HjOEY+8flMxn+IMjTX18km/kFqPv2Q5R9CrKT29wQAAGAYBRfsrKgT0Jdffpk+/OEPq61krvUWtXr8BVWtagwJmfxiq3G6rOs1Ze1LooaFl1Hyi++mqV9PNdyvUi+nLUGf+kJtVOujoHo80hSkmp7stUThU/qrEElkUo1iCvFlXKux0ReLL825Eon3hoe5r6Y6Vmj+y31SbWiSLPGlyhCvuzOm1YaJa056bZXcr5dN3p+K7xO+X2B56POF8gjFOc0Xyn07K9QfI4x9rk2f4XkZ/3Ak1LucSZ8/0x+IwlFZoyk/h+qPGl6uaeXCqftNI0WLnw0y+bRKWK3p83tyzTDm9wQAACOMggt2VtQJ6O9+97u0zW9lUpRotsei1P9oJ9Gemwy1E4MUPKF9kYyeCNJgi5caOeFpaKSeY1vpwBh/9RTP65uv7TOKDuwlcUSLGlA3NXYPUttBlUxy00DxpbVXJK5J5P7kaWHma2lS6M2DufamS+4RtOazHX39InETm2P7aetRdQ7xGvxH22i/qhWUI4KmnOvCpVyTpHOp6yyvynx88iqL+PQBg0wyxGuekkaruTZPGZO+6SPfJ3y/wPLh6Vk4Cc0+X6hI5jyd1DMSS/xxIfHnjloXpWswnv4PR1aazH8gUrWqXLOu7YuQ95m19BX5cyBl/1BNco372DB1bvbSTUk1+tb4dTc3Nyfm9+TrAgAAAACaok5AM+K+WaF6atObt3Itx1+8QHOdHlWA+an+VI18vMZXT6OJkSvd1D7aQ50buMlpDYWbAupLr5u294uEStWc7KBddGjzkOrbybV9Iums02rh3J3cT0w1D1V91h4Sz0tS66N9/eOJZqc8Yuc+9SWYa3CH2tbQZq6BEa9llBNa+VqGySVi0Dlb91GA2mgt1xb1raOn9ujn4Oa9ARpXsdb4SHzhtu4jacTnHfTVmGt4ZP/SThXrDqKdxj6a4lyyHx0/VkOvf+op8fVei0OPT9Yc9bko0C13W0gfr7tzlOrb1lKFPLd4/0KG/VyrnLIfipfeL/T973+/bHqay3yh/IeexJ87ahvJ29JBe9X9GTrYRoOcFPJG6h9C0vzhiO+1xj1D5j8QiefJP3wktUJoJtfaNPuNf+wQn9GY+Pkh+2JnoPf3vPrqqzG/JwAApMXzmQPYVjyLXEdHyrUcy3UUJZF45DSqnyU5kqb1qKlQnnK4naXlHGWM7+lsymUUtP3798v35ODBg2rvvEi/V47UzI8394/KEWsTI9UaRsFt7g/E/Tyytf5jIDEKrigvHms2jIJrHOlWnCFpFNz5kZ9T9gfUSNRpyys8srQ4lxyNOg1+nfxcq9drVC7vbz7Pm2s5hvjMuAzfexgFN1m+yzHEZ5ZrOYb45mEU3MzyXY4hPrNcy7HFxKePfqsvpVsDCgBF7fbbb5f9H7kfZGq/UGfrMRLflfmbKwVb3XL06cScs4Z+08FWH7XzvL56zSO3fFCPtYvHgrJVAw8aZHi+pO3Ty86PPp2yP9FvO115JUsNKL8+9PcEAAAAyM7BWapat/Tuu+/Kfy+++GL5bzq5lmPnz5+nqqoqtWWNj7dq1Sqam5uTTTABsuH7RNzPaiu9XO8/lq/7Xi/H9/TMzIxcT2c548vn55fx8bhP5J133infHx4lN12/7lLEr23btm1y4uUnnniC3vve96pH0iu39zcTxGetEPGtXLlS/mzJ9vtyxYoVWX9OLvS8+Toew/trhvislXp8k5OTVFdXV7Tx6RCfNcRnLd3x5mLJ6SZqQAGgoDjhPHbs2IL6hZYCvb8nv67Dhw9jfk8AAMgZJ58AdiU7pKl1S4XIoKempqi6ulptWePjVVZWogYUcsb3SZbbWcr1/mP5uu/1cnxPc21ZJssZXz4/vyz1eDwvJtcYHjhwQP5bqvTXwTW63OR2qa5fqmJ7f1MhPmuFiI9rNvlnS7bfl7n8nFzoefN1PIb31wzxWUN81hBfeojPbKnim55JbimDGlArxulTePL5CrHOv18tplXJhqcScWxR05SwsV75BcBq0ad90KYomd/PI9ZmT6uWgJy7sZdGRTChngqLuRIBMuNkjftJ6vOF5vIHg2KD+T0BAGCxMAou2BkSUCtyEJQ8TPkhEta9J/3kJ32OT8EwiMpot0gwu0coprZ5EBVOPuWUMWofz5HIU5HI6VrUIYqBuzNmHqgFIAf6fKGvvfaanC8z/XyhxcU4vycnn5jfEwAALtTExIRaA7Af+yWgXIu3pZ8iMpuLUv8WrYZR0ms4EzWdIeq9cqtIRjvIU+FP1HyGEzWU2pyg6URPBImattP2JpqfkzCL8KlBou5GQ/KrzU069K8/pKhVBmqoUe3tEevqtWk1lBFVSHud8xPri9elniOX7lEtuZWv20teUdZhqAHmORTl8Z/j8fZ5Z2oNaMrx9PkUxXO59riXE239GOXR/Q8WifuF8jyZPF9mKfQL5fg8Hk9ifs9yGkgJAAAAYCnZLwFtaKSeY2HS/u4UFv81E50Kyy06E6bBlOSv/Y1DIgHz02isQ+3voCDtUzWYg9S209C8NkmUhoeIvBud5GzdRf6u4UQCm4n7Zj9Rlyep2a6zNZhmCgiR+Lk7yB/imtIIuU6mm5jfiJNRD41zjSrXsE4GyLv7GzQwqWe3g1S/k4/HNcDi+HVtRKpso3jt2tSNRubjNXftNSTmnTS+/px8bLRbXL2+dNcL7Ki3t5fuu+8+mYRyv8pixHFxfBznV7/6VfmHFAAAgMVYt26dWgOwHxs2wXWRq6WThl8UiZRIOKlpF3lPaslh6DmRzN2creFts0wqmUwW0zkzLBJVLzXW8oabGrs7aDiXSh7ZRDdCAWoTCaeqOUzU2KYYG6aOlgBtly0BneTbmSGeBG2+w0Tz2VoXXaetKc3kkjEL4vqMk592qbLubSK55Hjkls58vHptTWnK7XqBbWWaL3S5Gef3LOVBkwAAoLhcddVVag3AfmyYgDqp8ZZm+mk4SpETgyIfdZPr2nEKn4lS+KQh+UqrPocy3Px2kAaPzieRni6ijudya4arJ3WyRpFrDq9to7V+1UzWIBoeV2sLlDQQkoc6xIHnj214fVwjrFYzSj2e2q3h46HGCDLj/pSc5L366qvU1NS07P1C+fwcB/f3PHHiBPp7AgAAAOSJLQchcm7kZrcTNHEqLpMt13qi8AljjeVihWh/26BqGqsvo+RPappqhZuzmvuVyprDkxOmPqBOV3JdY3phCh9Vq0nNdlVcIj+0TBFrXdxAOQuL46lHABaC+1UODQ3RBz7wgWXtF6rP78lx8Pyl6O8JAAD5hlFwwc4qeL6WpV54rjKr/alLwXCz05/vpb1dWm2fc6OXaIgHDGok1ZB0ccaGqZN6qDGp0oSb/g5S8ESmHpBOauQBi5L6lYqktK+D6Np15EzNEhsayX+0jfbL7+mqnMHQ0LB2HG6qK/eYRQe+IWI11oAa1DaSt6WD9qrBhkIH22iQk0y5ZS06sDftuZaC1X2UuuR6/xViySXG5Ywvl6XQ8fn9/mXrF2rs78lxWMW32MXu7+9iF8RnvTCr/alLruVyXfJ9PLy/i1sQ3+KWpYyPR8G12p9pwfVb3IL4FrcsJr5UtqwBlX0yrxmioe6btIGFREJKR7UBg0xkH8nOpFFwswk9J1K6PerYCZxcNtOgb3/G4/CAQ5Gm4Hz/T0cNtV07SnOdHotaSje1h/zU4eZyO0QCPV/36O4coZ5jt2nHec5FgRb1gHgOj6qrPcdBO+I76dDmIZo4qx5O4iRfX4DIVyPL7l0foB4+nnpUk3I82iXONUjhjDW9AJlxv9AXXngh0S+Ua9cLTe/vyefl8wMAAABA/jnEF7uM3+z0rPXiiy+W/6aTazk2NTVF1dXVassaH6+yspLm5uZkYgPZhXoc5KFRinW6rZvUljm+T3JJVHK9/1i+7nu9HN/T/BekTJYzvnx+ftliz8t9Me+44w75vh44cIBWr16tHskfPoc+wNDBgweTmtyW+vXTIT5r5RTfihUr5M+WbL8vc/k5udDz5ut4DO+vGeKzVurxcRNcHoioWOPTIT5riM9auuNNz8yqNY1Na0DLhGGOTl48JwMUsWnyCeXJOF8oz8OZ736h+vye3N+T+5+ivycAACwFjIILdoYEtJTV+igY1wf/EcsRX376sAIUmULMF8rH4eRTn98TAAAAAAoPCSgAlIR8zheq9/ccGRnB/J4AALDkMAou2BkSUAAoGYudLzR1fk+uUQUAAFhqPAougF0hAQWAknKh84Vifk8AAACA5YcEtGiEqNfhoF6r79JjvVRR0UujhZ+JAqBkcL/N+++/P6d+ofr8nlwe/T0BAGC5rVu3Tq0B2A8SUAAoWZ/97GeT+oVaTQeh9/fkclweAABguWEUXLAzx+zsbMZ6tULMI3P+/HmqqqpSW9b4eKtWrSqLeUCjA16q8Q2qrWYKTAbJV8vrUeq/dQ1tPRKneLef/F0dRKE4tTeIh3iKlbo24mf5xWMdXUQjsXbyvNhLjr5xaj46SIMtAYrwyLdjYp9bPJeJfecO+6iGL5lxP/lpNN5Ossdb0v4ecdwO8pTB3C18n4j7WW2ll+v9x/J13+vl+J6emZmR6+ksZ3z5/PyypYqP+3beeeed8h7Q5wvV5/fkpPTJJ58s6PyeuZZjeH/NEJ+1hZRbuXKl/NmS7fclz9uZ7efkQs+br+MxvL9miM8a4rOG+NJDfGZLFd9cLDndRA1ooYlkr8ZXL5I/baqU0e5BajsYkg+FekTyGX+Kzoo3JX4zkZ4Syua4Ivmk/oh8TqN4xEGGN+4okXdSTbvCiap7XCS1fPwIBaiN1vpHRWlxDI++P06R/nHaOxAVTxb7E+V5/39Q39PiPNqRAUoSJ5fcr/P973+/bGrLCSf/y9vo7wkAAMVmcnJSrQHYj0MkIUteAzo1NUXV1dVqyxofr7KysixqQI1kbeipXRTvdMnaz/A9c9TewK8vSv1baii8M07ttVz7GaZdeo2lSDI3Xxmme+fENteAip16baY83pBXqwnlstxftM9FZw+76MBFe8n1hl7bquO+pmJ/oha2fPB9kuV2lnK9/1i+7nu9HN/TsVhMrqeznPHl8/PLliO+b33rW3Tw4EG666670ja5Xc748P6aIT5rCynHNZv8syXb78tcfk4u9Lz5Oh7D+2uG+KyVenzHjx+nTZs2FW18OsRnDfFZS3e86ZnkljKoAS04Tiwd8pc+L/NNccMUPir+sfq9fSYsm96m1eIil1qVjrZRjTo+N62NH31dHN1N7W94KVin9m/pF5EwsX/SuD9Akew5G0DJuPXWW+lnP/sZ+nsCAAAAFCEkoAUWHdhBbcRJnt7ktVk9IpLIFvGP1R+ra12kl8pJ96g89vyi+nTW+iion7cpSDU9WtPf5P1DtNYfQhNcAAAAgCWCUXDBzpCALqkQ7U/UgDqp8ZZm6uwb0Gogx/ZTG9eIstpG8rZ0qD6b4lkH22iQE0a5lcy50UvNXXup/4y2HepxUAXXak720+aKXnHGec3rXdrgRo7U/fghCAAAALBUMAou2BkS0AJztu4if6KJ7DA1hvxEJ8OyOayz9dt0yLGV1laIx/pcFOjWnsPJqa8vQOSrkc1k964PUA8/Xz2ahGszQ/XUpprUerr89MJhcb46H3078FPyyPM6ZD/Rfa1OWX5f/7hhfxP946fFedThAAAAAAAACgUJaMG5qV01d43zwEEN7drotfIxkWgejlGMHxP7fJ1qChZmaCYbbPVRe0w8l7PEpOcrvM9wDn1KFWfrsfn9huc4W4OG/ZwcqwcAAAAAoOBOnz6t1gDsBwkoAAAAAMASmpiYUGsA9oMEFAAAAAAAAJYEElAAAAAAgCWEUXDBzhzRaDTjDBz6pPkVFZlz1VzLsbfffpsuueQStWWNj7d27Vqam5uTg+UAZMP3ibif1VZ6ud5/LF/3vV6O7+lIJCLX01nO+PL5+WXLFd/73//+jNd5uePD+5sM8VlbSLk1a9bIez7b70un05n15+RCz5uv4zG8v2aIzxris4b40kN8ZksV3+Wrr1BrGkecR6LJ4N1335X/XnzxxfLfdHItx6ampqi6ulptWePjVVZW2ioBjQ545Wi1kdRBhiAnfJ9kuZ2lXO8/lq/7Xi/H97T+4UxnOePL5+eXLVd8NTU1Ga/zcseH9zcZ4rO2kHIrVqyQ93y235e5/Jxc6HnzdTyG99cM8VlDfNYQX3qIz2yp4puemVVrmuzpLgAAAAAA5A1GwQU7QwKaNyHqraiQf12WS/eotvtMP3kdvdTbo/aLpXdMe0ga66UKngfU4aX9p9S+FCHx3Ar9uKnHEM9P7N/SL+cXJfH//lsrxDn984/1hOQjkoxJ7Xf4aTTxx2vxvC36fgd5B7I3ZwUAAACAhcEouGBnSEDzghM3D40Hzmpzek4GyLv7G9R/Rj1MHTS+PiKbKY12i60+lSiKRHCzp5N6RmLisX3kOjkoS6dyd8a146pjN5OfGnm+UE4k3R3kD/FjEQpQG9WIRFPPJztPuijCzwn5ibr2qnhEolzXRvXyORxPF91wa0CU4ybAX6K2a0e188RHqd63X5QGAAAAAADIDySgeeEk35E4BVtrSPa+qXXRdXK/rpm8G7Vene6bRTKoOxOmwc2H6I4GfpY4xk7DY1Y4Yb0ySN7JdnLLbfH8lgBt52RUf37XMIncUmpqatT6kjY0ipRVGRsW6bBKYAX3tkPUfGyCzH+Hc1N7XJ0HAAAAAPIGo+CCnSEBzZdEU1pePNSRNCZDPblq1apBNPxTtZaLEPVeuZWuGzlGPnWsaHhcW9GJxLdZ/KMPQVHvSjeUUQd59Ca4dW0UjI/T62fi5Gw9RqPkSTTBTWoqDAAAAAB5cdVVV6k1APtBApoXIjl0d6imtFrzVX8OA/c6Xcn1pOlxn84NRKNz1O6eP7DTVa/WFK4RFf8k5b5WWrjJrdYEV1uC1FanHZeb++qvgdxeQzNiAAAAAACAxSnqBPTSSy+l3/zmN2qrdEQHvkGdaj2jhkbqObaVDoxxyiiSzL4ObX8S7l9aQ8FbztJDsqmuAdd4Hm2j/bKmUj2/u5EMOaoZN8dNPIdj3UwVFb1yIKJQT0XKwEPWNbfFiO8Tvl8AAAAAih1GwQU7c8zOzmasMCvEPDLnz5+nqqoqtWWNj3fTTTfRI488QjfeeKPaW7x4Ds81bYMUF1ezOTBC3n+9gcI7Y9Re20/eujDt0vtT8qi1fa75uT656a6nQz7P3x+g8SGifUnzgIaol5v0qi1dc3+Egq2iFB/PrR7lmk35XK4xXUPhe+aoXSatfIy95JoMas13efCiujZZW8r9Uw+9cUzVgCafiwc3ald9RYvd8ePH6f7776cXXnhB7Ukv1/uP5eu+18utWrWKZmZm5Ho6yxlfPj+/bLniW7t2bcbrvNzx4f1NhvisLaTcypUr5T3P3Scy4Xk7xe99tWVtoefN1/EY3l8zxGet1OMbGRmhDRs2FG18OsRnDfFZS3e8uVhyulnUNaCceD777LOySWixc7YGKSYuLsca9HnId0Qkn5y81fooaBzMp6Gd4sYEU2zrz2tvFWWTkk/GgwHpzWLnF5l8Mj6evj/xXCf5DvP59S8ifAyVfDIZk36s+ea3qecqleSTff/735d/sABIZ6x3hfjy/Qglz4JUSVuejqgtAAAAACg0h0g0lrwGdGpqiqqrq9WWNT7ea6+9Rh6Ph8LhMK1evVo9ApCMm99yZ/5QKER//ud/rvaml+v9x/J13+vlKisrKRaLyfV0ljO+fH5+2XLFV1NTY7rOPJ+up0trPXC45X1y3/9+pJL2rj8rR7C2Ytfrh/iSlUJ8XLPJ93y2GlB+PMuv/QWfN1/HY3h/zRCftVKPj5vg8neXYo1Ph/isIT5r6Y43PZPcUqaoa0Cvvvpq2rZtm2xaCZDOl7/8ZfrMZz4j7xeAjLoD5B3aQQOWg2txf2t9JGsMwAUAAIWDUXDBzop+FNxHH32Ufv7zn5Pfn2WOTLAlvi9OnjxJfX19ag9AJi7y7ayn279rnmMo1FNDbdeOak3QQ/XUVteb1FwXAAAAABavJKZhOXbsmOwL+vnPf74kR8WF/OP74Atf+IK8L4LBoNoLkIOGdjpBfSm1oFEKnyTy36x6a/No0TROYdSCAgBAAWAUXLCzkkhA16xZI/v38Qii3GThvvvuk6OeIhm1F36/+X3n95/vAx59ke8Lvj8AFqLhM000dN8AhdU2AADAUpqYmFBrAPZTEgmo7rHHHqMf//jH9Ed/9Ef0wAMPyCRE66+FxQ4Lv9/8vvP7z/cB3w8AF6S2lb71qSHa+nCcSI6f4iTXtUQdz4XkwzQ2TB0lNA8uAAAAQKkoqQSUfeADH6Cenh5Z8/Xb3/5Wzj/Gi+y3lWHJtRwv0WjUcr9xyfd5cy3Hi13j4/eb33d+//k+AFgM56d3Ug/Njxjq7oxQ4KRH+4OHe5wCk+1UQjMRAQBACVm3bp1aA7CfkktAAQAuhLszTvHOxIy8QgO1x2IU9OlTsDjJd0T/44dh3lwAAIA8wyi4YGeO2dnZJZ8H9Pz581RVVaW2rOX7vIjPGuKzVqj4uB/zzMyMXE8H189sofGtXbs243Ve7vjw/iZDfNYWUo77xPM9zzX4mfC8ndyqJJOFnjdfx2N4f80QnzXEZw3xpYf4zJYqvrlYcrqJGlAAAAAAgCU0OTmp1gDsxxHn9mYZFCKDnpqaourqarVlLd/nRXzWEJ+1QsVXWVlJsVhMrqeD62e20PhqamoyXufljg/vbzLEZ20h5bhmk+/5bDWg/HiWX/sLPm++jsfw/pohPmulHh+P6r9p06aijU+H+KwhPmvpjjc9k9xSBjWgAAAAAAAAsCSQgAJAyeMJvfXlzJkzpn28AJQTq/t7MftyZfVcq30AkBlGwQU7QwIKACXtwIEDdM0118imTLzccsstdMUVVyS2eeHHuRxAOUi95z/ykY/Qe9/7XrrxxhuT7vk77rgjqRwvi/lspDtv6vH279+vngEA6WAUXLAzJKAAUNJaWlpkv7Yf/OAHNDExQT/5yU/oV7/6lVznhffz41wOoByk3vOnTp2S8y+n3vO9vb1J5Xh56aWXkspVVFTk/NnI5bwLOR4AANgTElAAKGnvec976N5776W+vj7LwVAeffRR+TiXAygHxnveymOPPSYf58G4spXbuXNnzp+NbOflzxof79JLL1V7ACAdNFcHO0MCCgAlj7/0HjlyhF5++WW1R8Pbhw8flo8DlJNc7/ls5e655x61Jzf5Ph6AXXGrAQC7QgIKACWPa2b4izHXwBhrQfUaGdR+QrnR7/nU2kiu1eQkUL/ns5VbaG1luuOh9hMAAHLlmJ2dXfJ5QM+fP09VVVVqy1q+z4v4rCE+a4WKb9WqVTQzMyPX08H1M8ul3FtvvUUul4ueeeYZ2rBhA73yyivyX/4rc2oCuhzx6fD+miE+a9nK8T3PI2nyfIIf/OAHZZ/MG264gV5//fWkRFAvNzIyIgcN+vWvf21ZTnch5033WWPFev10iM8a4rOWr/NOTk5SXV1d0canQ3zWEJ+1dAS62CcAACC+SURBVMebiyWnm6gBBYCywF9877rrLnriiSdkLSjXyNx9992WX4gBygHf23yPf+tb35LbXKvJn4HUe14vx58Jxv9alctV6nnxWQNYOE4+AezKIb6oLXkN6NTUFFVXV6sta/k+L+KzhvisFSq+yspKisVicj0dXD+zXMtxzUxtbS0FAgFqa2uTc4JafSlervgY3l8zxGctl3L6PX/o0CG67bbb6I033rCs1dTLPf744/TFL35R1r6kay670PNu3bo17WeNFfP1Y4jPGuKzhvjSQ3xmiE8zPTOr1jSoAQWAssFfgL/whS/Qrl270PcTbIHvca595Hs+U59OLsefid27d+elr6bxvPisASwcRsEFO0MCCgBlhRPQ66+/Xn4pBrADTgT5ns82Ai1/Jurr6/P22dDPi88awMJhFFywMySgAGXm1Vdfpc7OTnK73XLAkRUrVsjJ4zMtXCaXcrw4nU7L/cYl1+Pluxwv69evp+9973uyhsfqcV7yfd5cy/FSyOt32WWXyfed33++DyCZ8bPB1+pCr3OmZTk+H1dccQU99dRT8jVZPa4v/JngKVQyfTZ4Weh583U8Xgp1/fDZAAAoHkhAAcoI10j8zd/8Df3hD3+gr371q7KJD3fzxmKPhd9vft/5/ef7gO8H3g8kawfx2bDvYvXZAFhOPJI0gF0hAQUoA+fOnSOPx0O///3v5Retr3/961T5oxtp9T8mTxZPZ/ppc0UvhRaYk0QHvOTY0k9RtW0tRL0VXuo/ozYXKdTjIO9AlBYWKsdQQb0LfYEG+nkXIzqwmSrE9YqYwhDxORzUO6Y28+zyyy+nTZs2yfef74N33nlH3hdnz55VJeyHPxtc8/V//+//lU3e+NrwNeJrBfaR+tngn5V8X/D9AbAcrrrqKrUGYD9IQAHKwObNm+ljH/uYnIIEX6yB8X3wz//8z/Txj3+cbr31VrXXfrxer7wG/NlYvXq12gt2xp8Nvh/4vuD7g2tIAQBg6SABBShx3LTwmmuuofb2drUnR2f6yevopX6u3ZR9plJqL8d6qaJC27//lNonabV4ib5WPSGxL0r9t26gzvggtdXpxxH7tsyXS1vrJ86TOJaIRx5NxOTpIhr01dDm/gjFORZDDayskZXnlVvz5+n+9+Qvk/I1Jh9b4nNu6SV/Ij4tZuN5LWtBE9dEW5JeU+J1eOnJX8YNNbeG+HqG1T5BxuYlr3zMT6P8hHTxplxLL18Tq/0WMXd0dNCHP/xhWw4Uw80sr732WnkNAFLxfcH3x7333oskFJYc18QD2BUSUIASxoNpHDx4kP7hH/5BJiAL10Ftp3bJL1+RfqK2nSrJ46a6nk7qGYmJx/aR6+SgLK0lPB4a5wRIPCc+GaDmrr0ieXOS7/AI9TiaKTAZJF8tN2WtobZrR7VyIT91uK2a54pk1j0unqP104r0j9NekUQ5W4M02k3ULM5zTCSDmV6ZPA8FKMLn+R8O6hKFta+S4th1bVQf0o492t1BHmMz4qMiKbmHX1+EAi0icT4YSjpvsNWpCirymozTodP8HI61mTr65q+X191BfnmuffSnvxgSMasojPHdzFfcaJDqZQwiNkf6eKMDO+avZXyU6rceoDFxeNN+335D0jqP74/vfve7thp85bXXXpOfja997WtqD4AZ3x88aBnfLwBLCaPggp05otFoxj/76ZPmV1RkzlVzLcfefvttuuSSS9SWtXyfF/FZQ3zWChXf2rVrKRKJyPV0FhIf92e66KKL5Jeo1ASU+zJ6SCQnnW61R+Ak6sow3TvXTu6zImmqC5JXJYwyYXPsJRdvn+mlij4XnT3soxo+LNfuie3IER8lp2WG59SK9Qqx/oZad3jEw3Fqb+BynLjWUHinvq0zPl/tUjj+vetFAioSQQfXPIrzn1Pn55rKGk6cO10pxxXnuXUNhe+Zo3b6CjnESx+Ni9fKD3GSWBemXbzNr0fsHIm1i8TPeDx34rymBDSV8ZqkXh8V79nDjfTDW1Pi0+OtVdf/jWPkqxNBqJis4nUZ4jMyxp3NfffdR3Nzc3T//ferPdbK5fPLnwmeCJs/IwCZfPnLX6bZ2Vl64IEH1J708PvNDPFZy1bulVdeoQ9+8INFG58O8VlDfNbSHe/y1VeoNSWehfihLJdsci3HOOnNJt/nzbUcQ3xmuZZjiM9MLyeSRLUnvYXE19DQEP/hD3+o9iYb7aY4dY+qLWUyEPc6/PHRmLbeTGJde0QYjfupOR6YjMcj/c1xR0sgfo7LsZA/TmI7oq9rlYxq0Z4jn+8wrCeV0ZbmfnmEZDIOVUY/h8Dxc3kZgjgnx6M/xvFpr007jz+k7RePxANbHGJbPMsUJy8qPvV69Nc3f7z581oZ7XbEVQWrtqiY5PMN8enxnotZxNeitvXrb7zGxmPLRb+eWlz6/p7Ek5L3z5/H7Pnnn5f3Szbl8vm9/vrr5WsGyEb/bIgvTmpPevj9ZpZrOYb45k1MTMh/cz0ew/Uzy7UcQ3xmuZZji4nvD9MzSUv2dBcAitZLL70k+/dZca0XaV2qM2HixrScrWjGKaw3ixWPjatVp6teraUKUW+iqanW7FMkWGlwc1y9nLZY1irW+iioHo80Bakm0bczvfApvUmwi1wtatVKi2r6mljMNa05G+ulDQ/30AsxdazQ/CtPf72yxJcqQ7zuTn3fKDk2bKZ+cW1T95NlM2cN3yd8v9jFyy+/nPazAWDE9wnfLwBLCaPggp0hAQUoYb/73e/SjnorkyLZP1Pt4Oafj3YS7bmJ3InWuoMUPKH1ioyeCNJgi5caOeFpaKSeY1vpAHc05Of1WQ/iEh3Ym9KnUeemxm6tX6XEzUkdFgMRyf3GwXZE2rrepdZSHAvSsHwtIRruknsEJzU2Gfpiju2nrUc5GRPr4jX4j7bRfnVOOXBRyrkuXMo1STqXus4yzTfH13aUVyxkiNc8NUw9uWodafar1RR8n/D9YheZPhsARnb7bAAALDckoADlqqGd4qF6aqvTR0mtoba/eIHmOj2GQX38VH+qRj5e46un0UQfTze1j/ZQ54YK+bxwU4C0+lQ3befBd0QGy8/ZQbvkAD5aLSrX9g0lRsF1d0YocFKci89d10bUH0np/ynU+mhf/zh5ZHwihiEv7VO1pFyDmxgFV7yWkT18bC43TC4Rg87Zuo8C1EY1fIy+dfTUHi7Dj4jXMBmgcRVrjY8oMKn6V2agn9c0omzDdjrU0kk3yFFwdxDtFNfkaJjC8kFxLjnQEj9WQ69/6ilqUlc5OT4XBbrlbgvp43V38gBD2vvkcHgoPvKQ/CNC6n4KZX99AACw/DAKLtiZ7JCm1i29++678l8ezCGTXMuxqakpqq6uVlvW8n1exGcN8VkrVHyVlZWJDtrpLCS+FStWyONxArJgxkF51C4ob3yfZPmRXzafX/5sZHutADoeMIMH6cr2sxS/38wQn7Vs5Y4fP06bNm0q2vh0iM8a4rOW7njTM7NqTYMaUAAAAAAAAFgSSEAB7EoO/oPaTwAAgKW2bt06tQZgP0hAAQAAAACWEEbBBTtz8Fwtat1SIdoQnz9/nqqqqtSWtXyfF/FZQ3zWChXfqlWraGZmRq6ns5D4Vq5ceeF9QMF2+D4RP/PVlrVy+fzyZwN9QCFX3Ad0eno6689S/H4zQ3zWEJ81xJdeOcc3F0v+fYwaUADIzjhdSrr1rELUK77c8Rc8bfHTaLb8QBx/c4U4fr7yiAXFm515GpQ8G+sV1yl/8QIAQHGYnJxUawD2g1FwLSA+M8RnbaHlimoU3AvFSZw+eq5xXT1sjZNPD433RyioplmJDmymNW3X0Ugsw3M5Ab0yTPfOiTL5eIk5x5sbTkD3rp9/TXnHCagIdDRP8fJ9glFwAcwwCq4Z4rOWr/NiFFzEl6qc48MouACQJDrgJUePXsem1VL2jqlNkQBVbOmnaKLmUDxe10aD1EEeQ81cWByjQs6Pqc0BanImTOPUTN6N84mas/Ve6qFOGtbPpc6t1Y4m1/qlPb6sIVTPEXFGEvlGlPq36McyvJ5M5GvUn2M4P59jSy/5E8fTYuDr5umi5DlDk+IJqHi0WLxbxHUW+7VYkuPzG6t4DXH0Pqf2AQAAAJQJJKAANufc6KXmk2GREgmcKLY0i4xPS6ii4Z9Sc9NNNJ82uql9MiBSSW4+q9fKdVCQ9sn2/aPdQ9S2UySscr9BbSN5Wwaprc6YDIpjxWLU3sDrnJB5RA4al7VWkf5x8iSS4k5x/G+r44tj6MfnRM3dIZO3eDxCAWqjtf5R4lQu1LNGbHECKB4L+anDnSYxTtAS63p1/tFukWBz4q0epaMdRPfEtPNsEa/xYEgk0EFRjqhZr9WV8YxTYFLF47hNxqMbvHaXPDa/3lBPDbVdK2JV8XVt2Cyfp8dB4pj8WKO4tgAAUH4wCi7YGRJQALurdVH90SANc4ImEtD6nbuIhoYpGo/S8L+KBOuGbM1LtZpNbrjmvrlH22XiJN8RPRm0qPk7M0zBo35qlMko144GKd6pNzptMhzfr+1iItbBlgBtl88Rx98pHnv4hyKHjVL450T+nT4tcW7YTgGR/AZPmNLieWPDItWbP797m0iyj4YprG0K/BhH4KTGW0SCbiF6Iiji8VJjLW+JeO4R1+LkRCKJbV7vUmshGu4SR7xZvT4R36GWIZo4K9ZlTbGfdqkmvTIOuQYAAOUEo+CCnSEBBbA9NzV2D1JYJKCh58bJJRJSl0i95H9HrxPb2Tpf1osyajWbhnat1o+XyQD9x4bNWs0kJ5NaCQt8fHMM0fC4WlNE3JysOWTc2i6Nk1zXqtWMuFmxSo5lM+NxeU2kFr4mOTjaRjX6MdwdFD/6eiKJrXclJ/LziXgNtYnkfPx1kapmvA4AAAAApQ8JKADImsXxcIjCJznZ44RNJF9PD1PnnkaSFX+LxX0jE01qldpGam4Z0pI8lTwuhNNVr9YUlbzFRaroatF2aaLidanVTFpUk93EEiRfrom1rls1q00sHWkGD2pWTXXnl6Cv5oKuAwAAlJ7Tp0+rNQD7QQIKADLxoaG9FOTkTWy6b66nwaFx6rm5QTZ9XbSGRvJ3eZIHAxrbT1uPNmm1p+L89dSRGJBIDoxk7INphZO1o220Xx/Up6+DaM9N5HaIBPoaoo4+9XxxnrajyQMgmXB8iWOp8y9w+hPZl7Zrb6Kvaaingiq2BCxeg1bjzP1IpTM81UwF9XJzZNlXtoP2qkGNQge5JhYgOx6RuUKvfTcsC54mSA6ktbB7HwAWbmJiQq0B2A8SUADQEh9OdZoatX6TnJAeq6fG6y3ST5UsGkfBzc5N7fFR8Y/hy7F7nJ46fUzVMmqDG42rx2t89TR6RPXhTKfWR8FEn9IaOejQ2Q6P1le085wclEg2h5UDFWWrzUw9P1FgMvvUJ671zfOj4Mp46uVAS3wMT1c3vXC4zfI1uDsjFDgpYuX46toofugsPSTOLfuO9gWIxDH5sb3rA2To9QqQWfcIxQy16rJmvVBTBAEAAFwgx+zsrGH8f7NCzCNz/vx5qqqqUlvW8n1exGcN8VkrVHyrVq2imZkZuZ4Ox/fss8+S1+ul97znPWpvMv14K1euXPp5QKFk8X0ifuarLWvl8vnlzwYnYHbBNaAbaITmOrU/wiTjUaZrKHytnzq61MjKe0Sy2qXK8gjOst8zkb+by+Rv7tlSwfOATk9PZ/1Zit9vZojPWrZyk5OTVFdXV7Tx6RCfNcRnLd3xeCYDI9SAAhSZM2fO0M6dO+UIeT09PfTWW2+pRwAALlzHSVdiaiLH7m9QP6b+AVg2nHwC2JVD/MJZ8hrQqakpqq6uVlvW8n1exGcN8VkrVHyVlZWyxjKT//N//g9t3rxZ1oI+9thjdPjwYZmQ8qLXiOrHW7FiBWpAIWd8n2SrFSyXzy9/NmxXA9rFg3AZ8WBX3PxcqwENNqk5aznprNhLLm4C7xggb12Yduk1nrI21LBtE1wDOjc3l/VnKX6/mSE+a4jPGuJLr5zjm55Jbn2FGlCAIvWhD32InnjiCRobG6OzZ89SbW0t7dmzBzWiAGDN1Ac0ue9z6lRAEqb+AVgWGAUX7AwJKECRMyai3DyXE1E0zQWAvODRpNUqACwdjIILdoYEFGAJ3XjjjbKJV6blr//6ry2TS05E/+Vf/oX6+/vp6aefprvuuks9AgBwgTD1DwAALDEkoABLaHh42NA8znr5yU9+Yjn67csvv0yf+9znyOfz0ac//Wn65je/qR4pH/Pzf3KfNUfyvKFLIkS9jjTnHeuliopeGrVPt0IoNV0bzHOB9mSbLAlT/wAsh3Xr1qk1APtBAgpQ5PTEs6GhQTa/5Wa4nZ2daadoKQ/iS/GROLU3qE0AyMjdGTfNASqXTh5KKPXz5Kb2WJB8dWrAHZ7DVpUPtvqo3WYDEAEsBx7pHsCukIACFCmrxPPhhx9e8sQzOrBZ1aZ4qbfHq2pUUmsoeVRNr5rWQRjrna+BEUuiHO/f4iUv798SoAgXT5T10v5TWjHT8WXtY7rj9VKvKKsfI6DHkELWrqrnc7n+M+oBdS65v2dY7VN4RFD1HP//x1/Q1f6k18E1tmqfKpt4ban7Hb3iSilJ+/2oWQUAAABbQAIKUIR+/etfL3viKYkE7EttcZnUxeO7iLpy6B3GSZt7XD0nTpH+ZuroU0kaO0rU/EaM4kfaqOYsl+0gf4jL7iPXSYvji+Nt9ozTodPiOZbH6yDayc+PUGDLEN32nVDKVBSCSPZqfPUiydNiGu0epLaDWrlQzxpqI04YxWM3k2EWxOT5ET/i6CKH8cjidXj5NR7xkTPpNYs4HLfRWv+oKC2OkXQtxlVfu9T9/0F9T0e04wIAQNnDKLhgZ47Z2dmMf3cvxDwy58+fp6qqKrVlLd/nRXzWEJ+15Y6P5wD1er1pk079eCtXrizoPKBc+7nm1L0Uk834tFrEmlO7KN7pkvMKhkXipzXr4xpQNa+g3qxPxzV9fS6KcKLG6+JQI7F28nAx42NJZRtpOOn4BhbHG1VNBvV450S8ma6I/jpi4nUM3LqGwvfE1Hm0+RLleWtT5kPkRPjKMN07J7ZfTD2vON6QN+l1VIgYzx520QG+LnIuRn5AJ66Xw2p/YfF9In7mqy1r5fL55c8GJ/cAueB5QKenp7P+LMXvNzPEZy1buZGREdqwYUPRxqdDfNYQn7V0x5uLJf8+Rg0oQBH67Gc/WxR9PMOnuEZy4V/ieVL8RPNS93ydotTiIpdajYZ/qtYyC/VUzA+ukuF46Rma2YqlxqfXtIYpfFStpso2P2LqeY+2UY0hxvjR18XR3dQ+6aWgSMrlfr25rmm/ockuAAAAQBmr4Ax1qRf+S6PV/mJZEN/iFsS3uGUh8RWaaz3PEJhD7apI1hKp5Fgvebq4T6PWvDQeSj+mptN1nVrLQBxvw8M99EIs+/HSiQ7smG9mKxZuxqsRSWSLWk210PkRu0e1+BJLh1bLaxjgJdIUpBp9VNKk/UO01p9ttNL8sLqPjEu5fD4AFsrqPkpd8PttcQvim194FFyr/ZkWXL/FLYhvccti4kuFGlAASMu5sZmaH96rBuwJ0f5EzaGm4zktaYqeCMraQnMlXpT6+1JqLI0aGsl/tI32y0GFspSVcimTjfF1OKnxFkOf0rH91KbXiJrmR9xKg5wwyq1kzo1eau7Sr5OqseVazUkexMgw8JDQvN6l9ZM17ceQ/AAAdoFRcMHOkIACQHq1Pvp2wEFtsqnoMLkSNYfa3IHNXR7ZhHQHealH7JV1pQ3bKSASN49sjrqDaKcodzRMYX7MxE3tIT91uLlsDYWbRFn1SII43qGWTrpBjoKb7XjWnK27ZKKrNZEdpkauRT0ZpqjIJp2t36YAqcf6XBToVk9SrzExP+KfPUU9XEY9moRrM0P16jo5yNPVTS8cFses89G+/nF1LRyyn+i+Vqcsn7y/if7x0zXqYAAAAADlyxHn9l8ZFKIT69TUFFVXV6sta/k+L+KzhvislUp8K1asKOggRMm0AXqCTREKchIFJYfvkyw/8svm88GfjWyvFUDHTcvm5uay/izF7zczxGctWzkeBZdrQYs1Ph3is4b4rKU73vRM8gCIqAEFgPR4NNfE/Js11HbtKJJPAACARZqYmFBrAPaDBBQA0mtop5g++A8vajoWAAAAAIALgQQUAAAAAGAJ8Si4AHaFBBQAAAAAYAlhFFywMySgAFAyogNecmxRU6YAAAAAQMlxRKM8EUF6PMIm4xHiMsm1HHv77bfpkksuUVvW8n1exGcN8VkrlfjWrFkj15dmFNzlxwkoT2USOeIjDIW0cHyfiJ/5astauXw++LOBUXAhV3zvnTt3LuvPUvx+M0N81rKV+9WvfkXve9/7ijY+HeKzhvispTve5auvUGuK+AWd0ezsrFyyybUc46Q3m3yfN9dyDPGZ5VqOIT6zXMuxhcTHH2HxYVd7i91o3C/i5ZjlsmckLiOfDMSbyR/3d88/5g/JJ2hC/rj4Tij2N4syzXFqCcQj6iHdqOG5pmOI5yf2J54biQdaRJnunvnHukflI5KMSe0Xsc0/Ip63xZF4TnN/aiTFjWPOplw+H7m8VgCdSDxz+lmK329muZZjiG/e888/L//N9XgM188s13IM8ZnlWo4tJr4/TM8kLdnTXQCAReM5RD003h/RRtOdDJB39zdoYJLzBNZB4+u1x0QySR19qpntmX7a7OmknpGYeGwfuU4OytKp3J2GkXr52A4/NTaIB8Tzve4OEsmoeCxCAWqjmp6Q9iSh86SLzvEovyGRGnftpf4zvDdEvXVtVC+fw/F0kGdLP0VEqNGBL9HWa0bUuUap3rdflAYAAACAXCEBBYAl4CTfkfj8HKK1LrpOW1OaybtRe8x9s0gGdWfCNLj5EN3RwM3ixDF2Gh6zwgnrlUFqPv0QyQlj+PktAdrOyaj+/K7hRNLY1NRITj50QyMljjw2LNJhlcAK7m0Baj4aJvOMbW5qj7dr5wEAAFgAjIILdoYEFACWxlgvcf8qbfFQR1xrx6qpJ1etWjWIhsfVWi5C1HvlVrpu5Bj56rR+XKbni8S3Wa2yepeTrHt8dZBHj7WujQZpnF4/Eydn6zEaoQ2J19E7pooDAAAsAEbBBTtDAgoAS0Akh4mmsFrzVb/I/KyTv3lOV71ay0Zr4kujc9Tunj+q6flcI6pWM2oJUERv0iuXILWppNbdyc2BtddAbq9qtgsAAAAAuUACClDCLr30UvrNb36jtkpHdOAb1Cn+na8BTaOhkXqObaUDY1xSJJl9Hdr+JJx81lCwKUIPyaa6BlzjebSN9suaSvX87sbMzWa5OW7iORyrlxyOXhoVIYR6Ksg7ENEekKxrbosR3yd8v9hFqX42YOnZ7bMBxeH06dNqDcB+kIAClLA///M/p5/97Gdqq5i5aXt/M3W4taarO+I76dDmIZo4qx5Oy03toz3UuaFCPK+Gwk2BpCa0mjCFjxIN+mqoQm82KxbvQFQkoD4KhvzqvDXURgGKdGbrtSnOORmgcRVrjY8oMNlOHpHbujtHqL5trTqHR2SkpdMHlO8Tvl/s4kMf+lCJfDZgufF9wvcLwFKamDCPLABgF0hAAUrYRz/6UXr22Wdlk9Bi52wNqqarcQr6POQ7EqN2rrHkJNE4mE9DO8WN83yK7RiPVCue194qyprmAOXBgPSmsvNLYsAjPp6+P/FcbVAkeX6JjxEkn16bKWPSj2XYz+ViehNcfr7aXQK+//3vy/vFLj7ykY/I1wyQDf8MbWxsVFsAAFBoDp6rRa1bevfdd+W/F198sfw3nVzLsfPnz1NVVZXaspbv8yI+a4jPWqnE9/rrr5PH46FwOEyrV6+W+wBScRNDHvAiFArR1VdfrfZaK5fPx2uvvUYbN26Uzdwuv/xy9QhAMv5s8Gikx48fp7/4i79Qe9PD7zczxGctW7nJyUmqq6sr2vh0iM8a4rOW7nhzseR0EzWgACWMk4nPfOYzdP/998saOQArfH/cfvvtWZPPcqJ/Nr785S+rPQBmfH/cdttttvpsQHHg5BPArhziS+uS14BOTU1RdXW12rKW7/MiPmuIz1qpxce1oB/72Meoo8NqkB6wM7/fL5uivvDCC7b8fLjdbvr4xz+OzwaY8GeDm9/+6Ec/kv267fj5yATxWUN86SE+M8SnmZ6ZVWsa1IAClIFjx47Rv/3bv9HnP/95jPwJEt8HX/jCF+QX7MOHD6u99hMMBuU14M/Gm2++qfaCnfFng+8Hvi/4/uDkE2CpYRRcsDMkoABlYM2aNTQ6OkqrVq2Sff3uu+8+2acJyai98PvN7zu//3wfrFy5Ut4Xa9euVSXshz8b3Pf1j//4j2VfP3w27Cn1s8E/K/m+4PsDYDlgFFywMySgAGXkscceox//+Mf0R3/0R/TAAw/IL1ralCFY7LDw+83vO7//fB/w/cD7gejRRx/FZ8PGi9VnAwAAlgcSUIAy84EPfIB6enrkX/d//etf0+zsbGLakHQLl8mlHC/RaNRyv3HJ9Xj5LseLneP77W9/K993fv/5PoBkxs8GX6sLvc6ZFnw+zEuu5XgpVHz4bECx4RYZAHaFBBQAAAAAYAlxrTyAXSEBBQAAAAAAgCWBBBQAAAAAYAlhFFywM8fs7OySzwN6/vx5qqqqUlvW8n1exGcN8VlDfOkhPjPEZw3xWUN86SE+M8RnrdTjGxkZoQ0bNhRtfDrEZw3xWUt3vLlYcrqJGlAAAAAAAABYEo44Dw+XQSEy6KmpKaqurlZb1vJ9XsRnDfFZQ3zpIT4zxGcN8VlDfOkhPjPEZ63U4+MmuDwQUbHGp0N81hCftXTHm56ZVWsa1IACAAAAACwhjIILdoYEFAAAAAAAAJYEElAAAAAAgCWEUXDBzpCAAgAAAAAsoYmJCbUGYD9IQAEAAAAAAGBJIAEFAAAAAFhC69atU2sA9oMEFAAAAABgCWEUXLAzx+zs7JLPA3r+/HmqqqpSW9byfV7EZw3xWUN86SE+M8RnDfFZQ3zpIT4zxGcN8VlDfOkhPrOlim8ulpxuogYUAAAAAGAJTU5OqjUA+3HEBbVuqRAZ9NTUFFVXV6sta/k+L+KzhvisIb70EJ8Z4rOG+KwhvvQQnxnis1bq8R0/fpw2bdpUtPHpEJ81xGct3fGmZ2bVmgY1oAAAAAAAALAEiP5/9lUv6jsydxkAAAAASUVORK5CYII=;" vertex="1" parent="WIyWlLk6GJQsqaUBKTNV-1">
          <mxGeometry x="-70" y="670" width="928" height="633" as="geometry" />
        </mxCell>
        <mxCell id="rzEQRnUU2mOkOvjP8USI-1" value="note that: student admission info is consistent as student address&lt;br&gt;including it&#39;s zoned info&lt;br&gt;&lt;br&gt;* HS/MS meaning are eligible to apply for" style="text;html=1;align=center;verticalAlign=middle;resizable=0;points=[];autosize=1;strokeColor=none;fillColor=none;" vertex="1" parent="WIyWlLk6GJQsqaUBKTNV-1">
          <mxGeometry x="-15" y="1135" width="370" height="70" as="geometry" />
        </mxCell>
        <mxCell id="rzEQRnUU2mOkOvjP8USI-4" value="Yes" style="rounded=0;html=1;jettySize=auto;orthogonalLoop=1;fontSize=11;endArrow=block;endFill=0;endSize=8;strokeWidth=1;shadow=0;labelBackgroundColor=none;edgeStyle=orthogonalEdgeStyle;" edge="1" parent="WIyWlLk6GJQsqaUBKTNV-1" source="rzEQRnUU2mOkOvjP8USI-6">
          <mxGeometry x="0.3333" y="20" relative="1" as="geometry">
            <mxPoint as="offset" />
            <mxPoint x="220" y="560" as="targetPoint" />
          </mxGeometry>
        </mxCell>
        <mxCell id="rzEQRnUU2mOkOvjP8USI-5" value="Yes" style="edgeStyle=orthogonalEdgeStyle;rounded=0;html=1;jettySize=auto;orthogonalLoop=1;fontSize=11;endArrow=block;endFill=0;endSize=8;strokeWidth=1;shadow=0;labelBackgroundColor=none;" edge="1" parent="WIyWlLk6GJQsqaUBKTNV-1" source="rzEQRnUU2mOkOvjP8USI-6">
          <mxGeometry y="10" relative="1" as="geometry">
            <mxPoint as="offset" />
            <mxPoint x="320" y="470" as="targetPoint" />
          </mxGeometry>
        </mxCell>
        <mxCell id="rzEQRnUU2mOkOvjP8USI-6" value="in public school?" style="rhombus;whiteSpace=wrap;html=1;shadow=0;fontFamily=Helvetica;fontSize=12;align=center;strokeWidth=1;spacing=6;spacingTop=-4;" vertex="1" parent="WIyWlLk6GJQsqaUBKTNV-1">
          <mxGeometry x="170" y="430" width="100" height="80" as="geometry" />
        </mxCell>
        <mxCell id="rzEQRnUU2mOkOvjP8USI-7" value="Yes" style="rounded=0;html=1;jettySize=auto;orthogonalLoop=1;fontSize=11;endArrow=block;endFill=0;endSize=8;strokeWidth=1;shadow=0;labelBackgroundColor=none;edgeStyle=orthogonalEdgeStyle;" edge="1" parent="WIyWlLk6GJQsqaUBKTNV-1" source="rzEQRnUU2mOkOvjP8USI-9">
          <mxGeometry x="0.3333" y="20" relative="1" as="geometry">
            <mxPoint as="offset" />
            <mxPoint x="370" y="430" as="targetPoint" />
          </mxGeometry>
        </mxCell>
        <mxCell id="rzEQRnUU2mOkOvjP8USI-8" value="Yes" style="edgeStyle=orthogonalEdgeStyle;rounded=0;html=1;jettySize=auto;orthogonalLoop=1;fontSize=11;endArrow=block;endFill=0;endSize=8;strokeWidth=1;shadow=0;labelBackgroundColor=none;" edge="1" parent="WIyWlLk6GJQsqaUBKTNV-1" source="rzEQRnUU2mOkOvjP8USI-9">
          <mxGeometry y="10" relative="1" as="geometry">
            <mxPoint as="offset" />
            <mxPoint x="470" y="340" as="targetPoint" />
          </mxGeometry>
        </mxCell>
        <mxCell id="rzEQRnUU2mOkOvjP8USI-9" value="in public school?" style="rhombus;whiteSpace=wrap;html=1;shadow=0;fontFamily=Helvetica;fontSize=12;align=center;strokeWidth=1;spacing=6;spacingTop=-4;" vertex="1" parent="WIyWlLk6GJQsqaUBKTNV-1">
          <mxGeometry x="320" y="300" width="100" height="80" as="geometry" />
        </mxCell>
        <mxCell id="rzEQRnUU2mOkOvjP8USI-10" value="Yes" style="rounded=0;html=1;jettySize=auto;orthogonalLoop=1;fontSize=11;endArrow=block;endFill=0;endSize=8;strokeWidth=1;shadow=0;labelBackgroundColor=none;edgeStyle=orthogonalEdgeStyle;" edge="1" parent="WIyWlLk6GJQsqaUBKTNV-1" source="rzEQRnUU2mOkOvjP8USI-12">
          <mxGeometry x="0.3333" y="20" relative="1" as="geometry">
            <mxPoint as="offset" />
            <mxPoint x="520" y="430" as="targetPoint" />
          </mxGeometry>
        </mxCell>
        <mxCell id="rzEQRnUU2mOkOvjP8USI-11" value="Yes" style="edgeStyle=orthogonalEdgeStyle;rounded=0;html=1;jettySize=auto;orthogonalLoop=1;fontSize=11;endArrow=block;endFill=0;endSize=8;strokeWidth=1;shadow=0;labelBackgroundColor=none;" edge="1" parent="WIyWlLk6GJQsqaUBKTNV-1" source="rzEQRnUU2mOkOvjP8USI-12">
          <mxGeometry y="10" relative="1" as="geometry">
            <mxPoint as="offset" />
            <mxPoint x="620" y="340" as="targetPoint" />
          </mxGeometry>
        </mxCell>
        <mxCell id="rzEQRnUU2mOkOvjP8USI-12" value="in public school?" style="rhombus;whiteSpace=wrap;html=1;shadow=0;fontFamily=Helvetica;fontSize=12;align=center;strokeWidth=1;spacing=6;spacingTop=-4;" vertex="1" parent="WIyWlLk6GJQsqaUBKTNV-1">
          <mxGeometry x="470" y="300" width="100" height="80" as="geometry" />
        </mxCell>
        <mxCell id="rzEQRnUU2mOkOvjP8USI-13" value="Yes" style="rounded=0;html=1;jettySize=auto;orthogonalLoop=1;fontSize=11;endArrow=block;endFill=0;endSize=8;strokeWidth=1;shadow=0;labelBackgroundColor=none;edgeStyle=orthogonalEdgeStyle;" edge="1" parent="WIyWlLk6GJQsqaUBKTNV-1" source="rzEQRnUU2mOkOvjP8USI-15">
          <mxGeometry x="0.3333" y="20" relative="1" as="geometry">
            <mxPoint as="offset" />
            <mxPoint x="670" y="430" as="targetPoint" />
          </mxGeometry>
        </mxCell>
        <mxCell id="rzEQRnUU2mOkOvjP8USI-14" value="Yes" style="edgeStyle=orthogonalEdgeStyle;rounded=0;html=1;jettySize=auto;orthogonalLoop=1;fontSize=11;endArrow=block;endFill=0;endSize=8;strokeWidth=1;shadow=0;labelBackgroundColor=none;" edge="1" parent="WIyWlLk6GJQsqaUBKTNV-1" source="rzEQRnUU2mOkOvjP8USI-15">
          <mxGeometry y="10" relative="1" as="geometry">
            <mxPoint as="offset" />
            <mxPoint x="770" y="340" as="targetPoint" />
          </mxGeometry>
        </mxCell>
        <mxCell id="rzEQRnUU2mOkOvjP8USI-15" value="in public school?" style="rhombus;whiteSpace=wrap;html=1;shadow=0;fontFamily=Helvetica;fontSize=12;align=center;strokeWidth=1;spacing=6;spacingTop=-4;" vertex="1" parent="WIyWlLk6GJQsqaUBKTNV-1">
          <mxGeometry x="620" y="300" width="100" height="80" as="geometry" />
        </mxCell>
        <mxCell id="rzEQRnUU2mOkOvjP8USI-16" value="Yes" style="rounded=0;html=1;jettySize=auto;orthogonalLoop=1;fontSize=11;endArrow=block;endFill=0;endSize=8;strokeWidth=1;shadow=0;labelBackgroundColor=none;edgeStyle=orthogonalEdgeStyle;" edge="1" parent="WIyWlLk6GJQsqaUBKTNV-1" source="rzEQRnUU2mOkOvjP8USI-18">
          <mxGeometry x="0.3333" y="20" relative="1" as="geometry">
            <mxPoint as="offset" />
            <mxPoint x="670" y="560" as="targetPoint" />
          </mxGeometry>
        </mxCell>
        <mxCell id="rzEQRnUU2mOkOvjP8USI-17" value="Yes" style="edgeStyle=orthogonalEdgeStyle;rounded=0;html=1;jettySize=auto;orthogonalLoop=1;fontSize=11;endArrow=block;endFill=0;endSize=8;strokeWidth=1;shadow=0;labelBackgroundColor=none;" edge="1" parent="WIyWlLk6GJQsqaUBKTNV-1" source="rzEQRnUU2mOkOvjP8USI-18">
          <mxGeometry y="10" relative="1" as="geometry">
            <mxPoint as="offset" />
            <mxPoint x="770" y="470" as="targetPoint" />
          </mxGeometry>
        </mxCell>
        <mxCell id="rzEQRnUU2mOkOvjP8USI-18" value="in public school?" style="rhombus;whiteSpace=wrap;html=1;shadow=0;fontFamily=Helvetica;fontSize=12;align=center;strokeWidth=1;spacing=6;spacingTop=-4;" vertex="1" parent="WIyWlLk6GJQsqaUBKTNV-1">
          <mxGeometry x="620" y="430" width="100" height="80" as="geometry" />
        </mxCell>
        <mxCell id="rzEQRnUU2mOkOvjP8USI-19" value="Yes" style="rounded=0;html=1;jettySize=auto;orthogonalLoop=1;fontSize=11;endArrow=block;endFill=0;endSize=8;strokeWidth=1;shadow=0;labelBackgroundColor=none;edgeStyle=orthogonalEdgeStyle;" edge="1" parent="WIyWlLk6GJQsqaUBKTNV-1" source="rzEQRnUU2mOkOvjP8USI-21">
          <mxGeometry x="0.3333" y="20" relative="1" as="geometry">
            <mxPoint as="offset" />
            <mxPoint x="370" y="560" as="targetPoint" />
          </mxGeometry>
        </mxCell>
        <mxCell id="rzEQRnUU2mOkOvjP8USI-20" value="Yes" style="edgeStyle=orthogonalEdgeStyle;rounded=0;html=1;jettySize=auto;orthogonalLoop=1;fontSize=11;endArrow=block;endFill=0;endSize=8;strokeWidth=1;shadow=0;labelBackgroundColor=none;" edge="1" parent="WIyWlLk6GJQsqaUBKTNV-1" source="rzEQRnUU2mOkOvjP8USI-21">
          <mxGeometry y="10" relative="1" as="geometry">
            <mxPoint as="offset" />
            <mxPoint x="470" y="470" as="targetPoint" />
          </mxGeometry>
        </mxCell>
        <mxCell id="rzEQRnUU2mOkOvjP8USI-21" value="in public school?" style="rhombus;whiteSpace=wrap;html=1;shadow=0;fontFamily=Helvetica;fontSize=12;align=center;strokeWidth=1;spacing=6;spacingTop=-4;" vertex="1" parent="WIyWlLk6GJQsqaUBKTNV-1">
          <mxGeometry x="320" y="430" width="100" height="80" as="geometry" />
        </mxCell>
        <mxCell id="rzEQRnUU2mOkOvjP8USI-22" value="Yes" style="rounded=0;html=1;jettySize=auto;orthogonalLoop=1;fontSize=11;endArrow=block;endFill=0;endSize=8;strokeWidth=1;shadow=0;labelBackgroundColor=none;edgeStyle=orthogonalEdgeStyle;" edge="1" parent="WIyWlLk6GJQsqaUBKTNV-1" source="rzEQRnUU2mOkOvjP8USI-24">
          <mxGeometry x="0.3333" y="20" relative="1" as="geometry">
            <mxPoint as="offset" />
            <mxPoint x="370" y="690" as="targetPoint" />
          </mxGeometry>
        </mxCell>
        <mxCell id="rzEQRnUU2mOkOvjP8USI-23" value="Yes" style="edgeStyle=orthogonalEdgeStyle;rounded=0;html=1;jettySize=auto;orthogonalLoop=1;fontSize=11;endArrow=block;endFill=0;endSize=8;strokeWidth=1;shadow=0;labelBackgroundColor=none;" edge="1" parent="WIyWlLk6GJQsqaUBKTNV-1" source="rzEQRnUU2mOkOvjP8USI-24">
          <mxGeometry y="10" relative="1" as="geometry">
            <mxPoint as="offset" />
            <mxPoint x="470" y="600" as="targetPoint" />
          </mxGeometry>
        </mxCell>
        <mxCell id="rzEQRnUU2mOkOvjP8USI-24" value="in public school?" style="rhombus;whiteSpace=wrap;html=1;shadow=0;fontFamily=Helvetica;fontSize=12;align=center;strokeWidth=1;spacing=6;spacingTop=-4;" vertex="1" parent="WIyWlLk6GJQsqaUBKTNV-1">
          <mxGeometry x="320" y="560" width="100" height="80" as="geometry" />
        </mxCell>
      </root>
    </mxGraphModel>
  </diagram>
</mxfile>
